<?xml version="1.0" encoding="UTF-8" standalone="no"?>
<!DOCTYPE svg PUBLIC "-//W3C//DTD SVG 1.1//EN"
 "http://www.w3.org/Graphics/SVG/1.1/DTD/svg11.dtd">
<!-- Generated by graphviz version 7.0.1 (20221109.1506)
 -->
<!-- Title: mcu Pages: 1 -->
<svg width="2180pt" height="1005pt"
 viewBox="0.00 0.00 2180.00 1005.18" xmlns="http://www.w3.org/2000/svg" xmlns:xlink="http://www.w3.org/1999/xlink">
<g id="graph0" class="graph" transform="scale(1 1) rotate(0) translate(4 1001.18)">
<title>mcu</title>
<polygon fill="white" stroke="none" points="-4,4 -4,-1001.18 2176,-1001.18 2176,4 -4,4"/>
<text text-anchor="middle" x="1086" y="-7.8" font-family="Arial" font-size="14.00">Marvel Cinematic Universe Dependency Chart</text>
<g id="clust1" class="cluster">
<title>cluster_defenders</title>
</g>
<!-- ironman1 -->
<g id="node1" class="node">
<title>ironman1</title>
<ellipse fill="none" stroke="red" stroke-width="5" cx="990" cy="-979.18" rx="46.29" ry="18"/>
<text text-anchor="middle" x="990" y="-975.48" font-family="Arial" font-size="14.00">Iron Man</text>
</g>
<!-- thehulk -->
<g id="node2" class="node">
<title>thehulk</title>
<ellipse fill="none" stroke="red" stroke-width="5" cx="1148" cy="-880.31" rx="86.38" ry="18"/>
<text text-anchor="middle" x="1148" y="-876.61" font-family="Arial" font-size="14.00">The Incredible Hulk</text>
</g>
<!-- ironman2 -->
<g id="node3" class="node">
<title>ironman2</title>
<ellipse fill="none" stroke="red" cx="990" cy="-880.31" rx="53.09" ry="18"/>
<text text-anchor="middle" x="990" y="-876.61" font-family="Arial" font-size="14.00">Iron Man 2</text>
</g>
<!-- ironman2&#45;&gt;ironman1 -->
<g id="edge1" class="edge">
<title>ironman2&#45;&gt;ironman1</title>
<path fill="none" stroke="black" d="M990,-898.63C990,-912.2 990,-931.44 990,-947.59"/>
<polygon fill="black" stroke="black" points="986.5,-947.17 990,-957.17 993.5,-947.17 986.5,-947.17"/>
</g>
<!-- capamerica1 -->
<g id="node4" class="node">
<title>capamerica1</title>
<ellipse fill="none" stroke="red" stroke-width="5" cx="1586" cy="-880.31" rx="87.86" ry="26.74"/>
<text text-anchor="middle" x="1586" y="-884.11" font-family="Arial" font-size="14.00">Captain America:</text>
<text text-anchor="middle" x="1586" y="-869.11" font-family="Arial" font-size="14.00">The First Avenger</text>
</g>
<!-- thor1 -->
<g id="node5" class="node">
<title>thor1</title>
<ellipse fill="none" stroke="red" stroke-width="5" cx="1281" cy="-880.31" rx="28.7" ry="18"/>
<text text-anchor="middle" x="1281" y="-876.61" font-family="Arial" font-size="14.00">Thor</text>
</g>
<!-- avengers -->
<g id="node6" class="node">
<title>avengers</title>
<ellipse fill="none" stroke="red" cx="1148" cy="-780.44" rx="65.79" ry="18"/>
<text text-anchor="middle" x="1148" y="-776.74" font-family="Arial" font-size="14.00">The Avengers</text>
</g>
<!-- avengers&#45;&gt;thehulk -->
<g id="edge5" class="edge">
<title>avengers&#45;&gt;thehulk</title>
<path fill="none" stroke="black" d="M1148,-798.94C1148,-812.74 1148,-832.33 1148,-848.72"/>
<polygon fill="black" stroke="black" points="1144.5,-848.44 1148,-858.44 1151.5,-848.44 1144.5,-848.44"/>
</g>
<!-- avengers&#45;&gt;ironman2 -->
<g id="edge2" class="edge">
<title>avengers&#45;&gt;ironman2</title>
<path fill="none" stroke="black" d="M1122.26,-797.38C1095.55,-813.93 1053.63,-839.89 1024.16,-858.15"/>
<polygon fill="black" stroke="black" points="1022.63,-854.98 1015.97,-863.22 1026.32,-860.93 1022.63,-854.98"/>
</g>
<!-- avengers&#45;&gt;capamerica1 -->
<g id="edge4" class="edge">
<title>avengers&#45;&gt;capamerica1</title>
<path fill="none" stroke="black" d="M1197.82,-792.57C1271.97,-809.14 1412.28,-840.49 1502.35,-860.62"/>
<polygon fill="black" stroke="black" points="1501.35,-863.98 1511.87,-862.75 1502.87,-857.15 1501.35,-863.98"/>
</g>
<!-- avengers&#45;&gt;thor1 -->
<g id="edge3" class="edge">
<title>avengers&#45;&gt;thor1</title>
<path fill="none" stroke="black" d="M1170.26,-797.82C1192.72,-814.35 1227.49,-839.94 1252.08,-858.03"/>
<polygon fill="black" stroke="black" points="1249.92,-860.79 1260.05,-863.9 1254.07,-855.15 1249.92,-860.79"/>
</g>
<!-- ironman3 -->
<g id="node7" class="node">
<title>ironman3</title>
<ellipse fill="none" stroke="orange" cx="1148" cy="-680.57" rx="53.09" ry="18"/>
<text text-anchor="middle" x="1148" y="-676.87" font-family="Arial" font-size="14.00">Iron Man 3</text>
</g>
<!-- ironman3&#45;&gt;avengers -->
<g id="edge6" class="edge">
<title>ironman3&#45;&gt;avengers</title>
<path fill="none" stroke="black" d="M1148,-699.07C1148,-713.4 1148,-733.98 1148,-750.72"/>
<polygon fill="black" stroke="black" points="1144.5,-750.58 1148,-760.58 1151.5,-750.58 1144.5,-750.58"/>
</g>
<!-- thor2 -->
<g id="node8" class="node">
<title>thor2</title>
<ellipse fill="none" stroke="orange" cx="484" cy="-680.57" rx="77.19" ry="18"/>
<text text-anchor="middle" x="484" y="-676.87" font-family="Arial" font-size="14.00">Thor: Dark World</text>
</g>
<!-- thor2&#45;&gt;avengers -->
<g id="edge7" class="edge">
<title>thor2&#45;&gt;avengers</title>
<path fill="none" stroke="black" d="M547.97,-691C673.54,-709.51 951.25,-750.44 1080,-769.42"/>
<polygon fill="black" stroke="black" points="1079.34,-772.86 1089.75,-770.85 1080.37,-765.93 1079.34,-772.86"/>
</g>
<!-- capamerica2 -->
<g id="node9" class="node">
<title>capamerica2</title>
<ellipse fill="none" stroke="orange" cx="1320" cy="-680.57" rx="101.23" ry="26.74"/>
<text text-anchor="middle" x="1320" y="-684.37" font-family="Arial" font-size="14.00">Captain America and</text>
<text text-anchor="middle" x="1320" y="-669.37" font-family="Arial" font-size="14.00">the Winter Soldier</text>
</g>
<!-- capamerica2&#45;&gt;avengers -->
<g id="edge8" class="edge">
<title>capamerica2&#45;&gt;avengers</title>
<path fill="none" stroke="black" d="M1278.36,-705.26C1250.06,-721.36 1212.94,-742.49 1185.55,-758.07"/>
<polygon fill="black" stroke="black" points="1183.84,-755.02 1176.88,-763.01 1187.3,-761.1 1183.84,-755.02"/>
</g>
<!-- guardians1 -->
<g id="node10" class="node">
<title>guardians1</title>
<ellipse fill="none" stroke="orange" stroke-width="5" cx="844" cy="-680.57" rx="106.68" ry="18"/>
<text text-anchor="middle" x="844" y="-676.87" font-family="Arial" font-size="14.00">Guardians of the Galaxy</text>
</g>
<!-- ageofultron -->
<g id="node11" class="node">
<title>ageofultron</title>
<ellipse fill="none" stroke="orange" cx="1513" cy="-680.57" rx="73.58" ry="26.74"/>
<text text-anchor="middle" x="1513" y="-684.37" font-family="Arial" font-size="14.00">The Avengers:</text>
<text text-anchor="middle" x="1513" y="-669.37" font-family="Arial" font-size="14.00">Age of Ultron</text>
</g>
<!-- ageofultron&#45;&gt;avengers -->
<g id="edge10" class="edge">
<title>ageofultron&#45;&gt;avengers</title>
<path fill="none" stroke="black" d="M1458.65,-698.96C1449.13,-701.87 1439.29,-704.81 1430,-707.44 1353.54,-729.1 1264.6,-751.32 1207.37,-765.24"/>
<polygon fill="black" stroke="black" points="1206.72,-761.79 1197.83,-767.55 1208.37,-768.6 1206.72,-761.79"/>
</g>
<!-- antman -->
<g id="node12" class="node">
<title>antman</title>
<ellipse fill="none" stroke="orange" stroke-width="5" cx="1649" cy="-680.57" rx="44.39" ry="18"/>
<text text-anchor="middle" x="1649" y="-676.87" font-family="Arial" font-size="14.00">Ant&#45;Man</text>
</g>
<!-- civilwar -->
<g id="node13" class="node">
<title>civilwar</title>
<ellipse fill="none" stroke="purple" cx="1553" cy="-572.83" rx="85.62" ry="26.74"/>
<text text-anchor="middle" x="1553" y="-576.63" font-family="Arial" font-size="14.00">Captain America:</text>
<text text-anchor="middle" x="1553" y="-561.63" font-family="Arial" font-size="14.00">Civil War</text>
</g>
<!-- civilwar&#45;&gt;capamerica2 -->
<g id="edge11" class="edge">
<title>civilwar&#45;&gt;capamerica2</title>
<path fill="none" stroke="black" d="M1505.29,-595.48C1468.99,-611.96 1418.81,-634.73 1379.82,-652.42"/>
<polygon fill="black" stroke="black" points="1378.7,-649.09 1371.04,-656.41 1381.59,-655.46 1378.7,-649.09"/>
</g>
<!-- civilwar&#45;&gt;ageofultron -->
<g id="edge12" class="edge">
<title>civilwar&#45;&gt;ageofultron</title>
<path fill="none" stroke="black" d="M1543.21,-599.7C1538.28,-612.75 1532.2,-628.82 1526.8,-643.1"/>
<polygon fill="black" stroke="black" points="1523.62,-641.6 1523.36,-652.19 1530.17,-644.07 1523.62,-641.6"/>
</g>
<!-- civilwar&#45;&gt;antman -->
<g id="edge13" class="edge">
<title>civilwar&#45;&gt;antman</title>
<path fill="none" stroke="black" d="M1575.75,-598.89C1590.67,-615.32 1610.14,-636.77 1625.26,-653.42"/>
<polygon fill="black" stroke="black" points="1622.39,-655.47 1631.7,-660.52 1627.57,-650.76 1622.39,-655.47"/>
</g>
<!-- docstrange -->
<g id="node14" class="node">
<title>docstrange</title>
<ellipse fill="none" stroke="purple" stroke-width="5" cx="325" cy="-572.83" rx="69.59" ry="18"/>
<text text-anchor="middle" x="325" y="-569.13" font-family="Arial" font-size="14.00">Doctor Strange</text>
</g>
<!-- guardians2 -->
<g id="node15" class="node">
<title>guardians2</title>
<ellipse fill="none" stroke="purple" cx="844" cy="-572.83" rx="113.98" ry="18"/>
<text text-anchor="middle" x="844" y="-569.13" font-family="Arial" font-size="14.00">Guardians of the Galaxy 2</text>
</g>
<!-- guardians2&#45;&gt;guardians1 -->
<g id="edge14" class="edge">
<title>guardians2&#45;&gt;guardians1</title>
<path fill="none" stroke="black" d="M844,-591.29C844,-606.96 844,-630.3 844,-649.04"/>
<polygon fill="black" stroke="black" points="840.5,-648.78 844,-658.78 847.5,-648.78 840.5,-648.78"/>
</g>
<!-- spidey1 -->
<g id="node16" class="node">
<title>spidey1</title>
<ellipse fill="none" stroke="purple" cx="643" cy="-572.83" rx="69.09" ry="26.74"/>
<text text-anchor="middle" x="643" y="-576.63" font-family="Arial" font-size="14.00">Spider&#45;Man:</text>
<text text-anchor="middle" x="643" y="-561.63" font-family="Arial" font-size="14.00">Homecoming</text>
</g>
<!-- spidey1&#45;&gt;avengers -->
<g id="edge9" class="edge">
<title>spidey1&#45;&gt;avengers</title>
<path fill="none" stroke="black" d="M651.94,-599.63C664.08,-630.54 688.86,-681.4 728,-707.44 783.44,-744.32 968.56,-764.93 1073.59,-773.92"/>
<polygon fill="black" stroke="black" points="1073.29,-777.41 1083.55,-774.76 1073.87,-770.43 1073.29,-777.41"/>
</g>
<!-- thor3 -->
<g id="node17" class="node">
<title>thor3</title>
<ellipse fill="none" stroke="purple" cx="484" cy="-572.83" rx="71.49" ry="18"/>
<text text-anchor="middle" x="484" y="-569.13" font-family="Arial" font-size="14.00">Thor: Ragnorok</text>
</g>
<!-- thor3&#45;&gt;thor2 -->
<g id="edge15" class="edge">
<title>thor3&#45;&gt;thor2</title>
<path fill="none" stroke="black" d="M484,-591.29C484,-607.44 484,-631.74 484,-650.77"/>
<polygon fill="black" stroke="black" points="480.5,-650.57 484,-660.57 487.5,-650.57 480.5,-650.57"/>
</g>
<!-- bpanther1 -->
<g id="node18" class="node">
<title>bpanther1</title>
<ellipse fill="none" stroke="purple" stroke-width="5" cx="172" cy="-572.83" rx="65.79" ry="18"/>
<text text-anchor="middle" x="172" y="-569.13" font-family="Arial" font-size="14.00">Black Panther</text>
</g>
<!-- bpanther2 -->
<g id="node19" class="node">
<title>bpanther2</title>
<ellipse fill="none" stroke="blue" cx="183" cy="-465.09" rx="87.86" ry="26.74"/>
<text text-anchor="middle" x="183" y="-468.89" font-family="Arial" font-size="14.00">Black Panther 2:</text>
<text text-anchor="middle" x="183" y="-453.89" font-family="Arial" font-size="14.00">Wakanda Forever</text>
</g>
<!-- bpanther2&#45;&gt;bpanther1 -->
<g id="edge30" class="edge">
<title>bpanther2&#45;&gt;bpanther1</title>
<path fill="none" stroke="black" d="M180.28,-492.23C178.73,-507.14 176.78,-525.9 175.16,-541.47"/>
<polygon fill="black" stroke="black" points="171.71,-540.82 174.15,-551.12 178.67,-541.54 171.71,-540.82"/>
</g>
<!-- whatif1 -->
<g id="node20" class="node">
<title>whatif1</title>
<polygon fill="none" stroke="blue" points="529.5,-384.22 454.5,-384.22 454.5,-346.22 529.5,-346.22 529.5,-384.22"/>
<text text-anchor="middle" x="492" y="-369.02" font-family="Arial" font-size="14.00">What If..?</text>
<text text-anchor="middle" x="492" y="-354.02" font-family="Arial" font-size="14.00">Season 1</text>
</g>
<!-- whatif1&#45;&gt;bpanther1 -->
<g id="edge32" class="edge">
<title>whatif1&#45;&gt;bpanther1</title>
<path fill="none" stroke="black" d="M463.32,-384.65C405.1,-422.06 273.13,-506.85 208.73,-548.23"/>
<polygon fill="black" stroke="black" points="207.16,-545.08 200.64,-553.43 210.94,-550.97 207.16,-545.08"/>
</g>
<!-- infinitywar -->
<g id="node22" class="node">
<title>infinitywar</title>
<ellipse fill="none" stroke="purple" cx="583" cy="-465.09" rx="73.58" ry="26.74"/>
<text text-anchor="middle" x="583" y="-468.89" font-family="Arial" font-size="14.00">The Avengers:</text>
<text text-anchor="middle" x="583" y="-453.89" font-family="Arial" font-size="14.00">Infinity War</text>
</g>
<!-- whatif1&#45;&gt;infinitywar -->
<g id="edge31" class="edge">
<title>whatif1&#45;&gt;infinitywar</title>
<path fill="none" stroke="black" d="M509.12,-384.63C521.28,-397.71 537.95,-415.64 552.38,-431.15"/>
<polygon fill="black" stroke="black" points="549.71,-433.43 559.09,-438.37 554.84,-428.67 549.71,-433.43"/>
</g>
<!-- whatif2 -->
<g id="node21" class="node">
<title>whatif2</title>
<polygon fill="none" stroke="green" points="531.5,-284.35 452.5,-284.35 452.5,-246.35 531.5,-246.35 531.5,-284.35"/>
<text text-anchor="middle" x="492" y="-269.15" font-family="Arial" font-size="14.00">What If...?</text>
<text text-anchor="middle" x="492" y="-254.15" font-family="Arial" font-size="14.00">Season 2</text>
</g>
<!-- whatif2&#45;&gt;whatif1 -->
<g id="edge33" class="edge">
<title>whatif2&#45;&gt;whatif1</title>
<path fill="none" stroke="black" d="M492,-284.76C492,-298.84 492,-318.53 492,-334.79"/>
<polygon fill="black" stroke="black" points="488.5,-334.38 492,-344.38 495.5,-334.38 488.5,-334.38"/>
</g>
<!-- infinitywar&#45;&gt;civilwar -->
<g id="edge17" class="edge">
<title>infinitywar&#45;&gt;civilwar</title>
<path fill="none" stroke="black" d="M656.47,-468.46C807.62,-474.29 1163.95,-492.92 1458,-545.96 1465.6,-547.33 1473.48,-549.03 1481.31,-550.88"/>
<polygon fill="black" stroke="black" points="1480.27,-554.23 1490.82,-553.24 1481.96,-547.44 1480.27,-554.23"/>
</g>
<!-- infinitywar&#45;&gt;docstrange -->
<g id="edge19" class="edge">
<title>infinitywar&#45;&gt;docstrange</title>
<path fill="none" stroke="black" d="M535.08,-485.73C489.38,-504.46 420.86,-532.54 374.61,-551.5"/>
<polygon fill="black" stroke="black" points="373.56,-548.15 365.63,-555.18 376.21,-554.62 373.56,-548.15"/>
</g>
<!-- infinitywar&#45;&gt;guardians2 -->
<g id="edge20" class="edge">
<title>infinitywar&#45;&gt;guardians2</title>
<path fill="none" stroke="black" d="M631.18,-485.61C677.23,-504.26 746.39,-532.29 793.28,-551.28"/>
<polygon fill="black" stroke="black" points="791.82,-554.47 802.4,-554.98 794.45,-547.98 791.82,-554.47"/>
</g>
<!-- infinitywar&#45;&gt;spidey1 -->
<g id="edge21" class="edge">
<title>infinitywar&#45;&gt;spidey1</title>
<path fill="none" stroke="black" d="M597.52,-491.69C605.19,-505.19 614.71,-521.97 623.06,-536.68"/>
<polygon fill="black" stroke="black" points="619.88,-538.18 627.86,-545.15 625.97,-534.73 619.88,-538.18"/>
</g>
<!-- infinitywar&#45;&gt;thor3 -->
<g id="edge16" class="edge">
<title>infinitywar&#45;&gt;thor3</title>
<path fill="none" stroke="black" d="M559.79,-490.88C544.02,-507.72 523.24,-529.92 507.42,-546.81"/>
<polygon fill="black" stroke="black" points="504.98,-544.31 500.7,-554 510.09,-549.09 504.98,-544.31"/>
</g>
<!-- infinitywar&#45;&gt;bpanther1 -->
<g id="edge22" class="edge">
<title>infinitywar&#45;&gt;bpanther1</title>
<path fill="none" stroke="black" d="M519.76,-479.03C451.65,-493.44 340.36,-518.37 246,-545.96 238.8,-548.07 231.28,-550.46 223.9,-552.93"/>
<polygon fill="black" stroke="black" points="223.01,-549.53 214.67,-556.08 225.27,-556.16 223.01,-549.53"/>
</g>
<!-- antman2 -->
<g id="node23" class="node">
<title>antman2</title>
<ellipse fill="none" stroke="purple" cx="720" cy="-365.22" rx="100.98" ry="18"/>
<text text-anchor="middle" x="720" y="-361.52" font-family="Arial" font-size="14.00">Ant&#45;Man and the Wasp</text>
</g>
<!-- antman2&#45;&gt;infinitywar -->
<g id="edge34" class="edge">
<title>antman2&#45;&gt;infinitywar</title>
<path fill="none" stroke="black" d="M696.45,-383.04C676.79,-397.09 648.3,-417.44 624.79,-434.24"/>
<polygon fill="black" stroke="black" points="623.05,-431.17 616.95,-439.84 627.12,-436.87 623.05,-431.17"/>
</g>
<!-- capmarvel -->
<g id="node24" class="node">
<title>capmarvel</title>
<ellipse fill="none" stroke="purple" cx="986" cy="-365.22" rx="70.39" ry="18"/>
<text text-anchor="middle" x="986" y="-361.52" font-family="Arial" font-size="14.00">Captain Marvel</text>
</g>
<!-- capmarvel&#45;&gt;avengers -->
<g id="edge23" class="edge">
<title>capmarvel&#45;&gt;avengers</title>
<path fill="none" stroke="black" d="M984.2,-383.65C980.78,-423.46 976.02,-523.57 1005,-599.83 1029.54,-664.4 1086.4,-723.87 1120.56,-755.54"/>
<polygon fill="black" stroke="black" points="1117.86,-757.81 1127.61,-761.96 1122.57,-752.64 1117.86,-757.81"/>
</g>
<!-- endgame -->
<g id="node25" class="node">
<title>endgame</title>
<ellipse fill="none" stroke="purple" cx="986" cy="-265.35" rx="73.58" ry="26.74"/>
<text text-anchor="middle" x="986" y="-269.15" font-family="Arial" font-size="14.00">The Avengers:</text>
<text text-anchor="middle" x="986" y="-254.15" font-family="Arial" font-size="14.00">Endgame</text>
</g>
<!-- endgame&#45;&gt;antman2 -->
<g id="edge35" class="edge">
<title>endgame&#45;&gt;antman2</title>
<path fill="none" stroke="black" d="M935.03,-285.1C888.56,-302.2 820.18,-327.36 773.07,-344.69"/>
<polygon fill="black" stroke="black" points="772.07,-341.33 763.89,-348.07 774.49,-347.9 772.07,-341.33"/>
</g>
<!-- endgame&#45;&gt;capmarvel -->
<g id="edge24" class="edge">
<title>endgame&#45;&gt;capmarvel</title>
<path fill="none" stroke="black" d="M986,-292.58C986,-305.89 986,-322.09 986,-335.71"/>
<polygon fill="black" stroke="black" points="982.5,-335.36 986,-345.36 989.5,-335.36 982.5,-335.36"/>
</g>
<!-- spidey2 -->
<g id="node26" class="node">
<title>spidey2</title>
<ellipse fill="none" stroke="purple" cx="658" cy="-157.61" rx="79.81" ry="26.74"/>
<text text-anchor="middle" x="658" y="-161.41" font-family="Arial" font-size="14.00">Spider&#45;Man:</text>
<text text-anchor="middle" x="658" y="-146.41" font-family="Arial" font-size="14.00">Far From Home</text>
</g>
<!-- spidey2&#45;&gt;endgame -->
<g id="edge25" class="edge">
<title>spidey2&#45;&gt;endgame</title>
<path fill="none" stroke="black" d="M714.39,-176.79C771.72,-195.27 860.47,-223.88 920.79,-243.33"/>
<polygon fill="black" stroke="black" points="919.68,-246.65 930.27,-246.38 921.83,-239.98 919.68,-246.65"/>
</g>
<!-- wandavision -->
<g id="node27" class="node">
<title>wandavision</title>
<polygon fill="none" stroke="blue" points="458,-175.61 362,-175.61 362,-139.61 458,-139.61 458,-175.61"/>
<text text-anchor="middle" x="410" y="-153.91" font-family="Arial" font-size="14.00">WandaVision</text>
</g>
<!-- wandavision&#45;&gt;endgame -->
<g id="edge27" class="edge">
<title>wandavision&#45;&gt;endgame</title>
<path fill="none" stroke="black" d="M444.39,-176.03C451.71,-179.22 459.5,-182.25 467,-184.48 616.7,-229.05 798.48,-249.74 902.36,-258.54"/>
<polygon fill="black" stroke="black" points="901.94,-262.02 912.2,-259.36 902.52,-255.05 901.94,-262.02"/>
</g>
<!-- falcon -->
<g id="node28" class="node">
<title>falcon</title>
<polygon fill="none" stroke="blue" points="888.5,-176.61 755.5,-176.61 755.5,-138.61 888.5,-138.61 888.5,-176.61"/>
<text text-anchor="middle" x="822" y="-161.41" font-family="Arial" font-size="14.00">The Falcon and the</text>
<text text-anchor="middle" x="822" y="-146.41" font-family="Arial" font-size="14.00">Winter Soldier</text>
</g>
<!-- falcon&#45;&gt;endgame -->
<g id="edge65" class="edge">
<title>falcon&#45;&gt;endgame</title>
<path fill="none" stroke="black" d="M850.57,-177.03C875.55,-193.14 912.25,-216.8 941.15,-235.43"/>
<polygon fill="black" stroke="black" points="939.05,-238.24 949.35,-240.72 942.84,-232.36 939.05,-238.24"/>
</g>
<!-- loki1 -->
<g id="node29" class="node">
<title>loki1</title>
<polygon fill="none" stroke="blue" points="94,-283.35 40,-283.35 40,-247.35 94,-247.35 94,-283.35"/>
<text text-anchor="middle" x="67" y="-261.65" font-family="Arial" font-size="14.00">Loki</text>
</g>
<!-- loki1&#45;&gt;thor2 -->
<g id="edge57" class="edge">
<title>loki1&#45;&gt;thor2</title>
<path fill="none" stroke="black" d="M62.23,-283.64C48.35,-338.1 14.01,-507.95 97,-599.83 136.57,-643.64 297.87,-664.59 399.32,-673.61"/>
<polygon fill="black" stroke="black" points="399,-677.09 409.27,-674.47 399.61,-670.12 399,-677.09"/>
</g>
<!-- bwidow -->
<g id="node30" class="node">
<title>bwidow</title>
<ellipse fill="none" stroke="blue" cx="1565" cy="-265.35" rx="61.99" ry="18"/>
<text text-anchor="middle" x="1565" y="-261.65" font-family="Arial" font-size="14.00">Black Widow</text>
</g>
<!-- bwidow&#45;&gt;civilwar -->
<g id="edge18" class="edge">
<title>bwidow&#45;&gt;civilwar</title>
<path fill="none" stroke="black" d="M1564.32,-283.65C1562.43,-331.87 1557.06,-468.59 1554.45,-534.89"/>
<polygon fill="black" stroke="black" points="1550.97,-534.39 1554.07,-544.52 1557.96,-534.66 1550.97,-534.39"/>
</g>
<!-- shangchi -->
<g id="node31" class="node">
<title>shangchi</title>
<ellipse fill="none" stroke="blue" cx="1148" cy="-572.83" rx="134.2" ry="26.74"/>
<text text-anchor="middle" x="1148" y="-576.63" font-family="Arial" font-size="14.00">Shang&#45;Chi:</text>
<text text-anchor="middle" x="1148" y="-561.63" font-family="Arial" font-size="14.00">The Legend of the Ten Rings</text>
</g>
<!-- shangchi&#45;&gt;ironman3 -->
<g id="edge41" class="edge">
<title>shangchi&#45;&gt;ironman3</title>
<path fill="none" stroke="black" d="M1148,-599.97C1148,-615.47 1148,-635.12 1148,-651.02"/>
<polygon fill="black" stroke="black" points="1144.5,-650.81 1148,-660.81 1151.5,-650.81 1144.5,-650.81"/>
</g>
<!-- eternals -->
<g id="node32" class="node">
<title>eternals</title>
<ellipse fill="none" stroke="blue" cx="1675" cy="-49.87" rx="60.39" ry="18"/>
<text text-anchor="middle" x="1675" y="-46.17" font-family="Arial" font-size="14.00">The Eternals</text>
</g>
<!-- hawkeye -->
<g id="node33" class="node">
<title>hawkeye</title>
<polygon fill="none" stroke="blue" points="1606,-175.61 1534,-175.61 1534,-139.61 1606,-139.61 1606,-175.61"/>
<text text-anchor="middle" x="1570" y="-153.91" font-family="Arial" font-size="14.00">Hawkeye</text>
</g>
<!-- hawkeye&#45;&gt;endgame -->
<g id="edge58" class="edge">
<title>hawkeye&#45;&gt;endgame</title>
<path fill="none" stroke="black" d="M1543.66,-175.93C1537.72,-179.21 1531.3,-182.29 1525,-184.48 1370.67,-238.11 1179.26,-255.73 1071.04,-261.52"/>
<polygon fill="black" stroke="black" points="1070.86,-258.02 1061.06,-262.03 1071.22,-265.01 1070.86,-258.02"/>
</g>
<!-- hawkeye&#45;&gt;bwidow -->
<g id="edge60" class="edge">
<title>hawkeye&#45;&gt;bwidow</title>
<path fill="none" stroke="black" d="M1569.17,-176.07C1568.41,-192.22 1567.26,-216.52 1566.36,-235.54"/>
<polygon fill="black" stroke="black" points="1562.87,-235.2 1565.9,-245.35 1569.87,-235.53 1562.87,-235.2"/>
</g>
<!-- daredevil3 -->
<g id="node62" class="node">
<title>daredevil3</title>
<polygon fill="none" stroke="blue" points="1921,-284.35 1847,-284.35 1847,-246.35 1921,-246.35 1921,-284.35"/>
<text text-anchor="middle" x="1884" y="-269.15" font-family="Arial" font-size="14.00">Daredevil</text>
<text text-anchor="middle" x="1884" y="-254.15" font-family="Arial" font-size="14.00">Season 3</text>
</g>
<!-- hawkeye&#45;&gt;daredevil3 -->
<g id="edge59" class="edge">
<title>hawkeye&#45;&gt;daredevil3</title>
<path fill="none" stroke="black" d="M1606.22,-172.01C1617.9,-176.18 1630.95,-180.68 1643,-184.48 1728.77,-211.52 1754.87,-204.19 1838,-238.48 1839.78,-239.21 1841.57,-240 1843.37,-240.83"/>
<polygon fill="black" stroke="black" points="1841.72,-243.91 1852.23,-245.22 1844.83,-237.64 1841.72,-243.91"/>
</g>
<!-- spidey3 -->
<g id="node34" class="node">
<title>spidey3</title>
<ellipse fill="none" stroke="blue" cx="670" cy="-49.87" rx="74.49" ry="26.74"/>
<text text-anchor="middle" x="670" y="-53.67" font-family="Arial" font-size="14.00">Spider&#45;Man:</text>
<text text-anchor="middle" x="670" y="-38.67" font-family="Arial" font-size="14.00">No Way Home</text>
</g>
<!-- spidey3&#45;&gt;spidey2 -->
<g id="edge26" class="edge">
<title>spidey3&#45;&gt;spidey2</title>
<path fill="none" stroke="black" d="M667.03,-77.01C665.59,-89.72 663.83,-105.22 662.25,-119.16"/>
<polygon fill="black" stroke="black" points="658.79,-118.57 661.14,-128.9 665.75,-119.36 658.79,-118.57"/>
</g>
<!-- moonknight -->
<g id="node35" class="node">
<title>moonknight</title>
<polygon fill="none" stroke="blue" points="1846.5,-67.87 1753.5,-67.87 1753.5,-31.87 1846.5,-31.87 1846.5,-67.87"/>
<text text-anchor="middle" x="1800" y="-46.17" font-family="Arial" font-size="14.00">Moon Knight</text>
</g>
<!-- docstrange2 -->
<g id="node36" class="node">
<title>docstrange2</title>
<ellipse fill="none" stroke="blue" cx="332" cy="-49.87" rx="108.38" ry="26.74"/>
<text text-anchor="middle" x="332" y="-53.67" font-family="Arial" font-size="14.00">Doctor Strange 2:</text>
<text text-anchor="middle" x="332" y="-38.67" font-family="Arial" font-size="14.00">Multiverse of Madness</text>
</g>
<!-- docstrange2&#45;&gt;wandavision -->
<g id="edge29" class="edge">
<title>docstrange2&#45;&gt;wandavision</title>
<path fill="none" stroke="black" d="M350.88,-76.47C362.87,-92.71 378.34,-113.69 390.45,-130.11"/>
<polygon fill="black" stroke="black" points="387.49,-131.99 396.25,-137.96 393.13,-127.84 387.49,-131.99"/>
</g>
<!-- msmarvel -->
<g id="node37" class="node">
<title>msmarvel</title>
<polygon fill="none" stroke="blue" points="560,-175.61 476,-175.61 476,-139.61 560,-139.61 560,-175.61"/>
<text text-anchor="middle" x="518" y="-153.91" font-family="Arial" font-size="14.00">Ms. Marvel</text>
</g>
<!-- thor4 -->
<g id="node38" class="node">
<title>thor4</title>
<ellipse fill="none" stroke="blue" cx="1011" cy="-157.61" rx="104.78" ry="18"/>
<text text-anchor="middle" x="1011" y="-153.91" font-family="Arial" font-size="14.00">Thor: Love and Thunder</text>
</g>
<!-- thor4&#45;&gt;endgame -->
<g id="edge66" class="edge">
<title>thor4&#45;&gt;endgame</title>
<path fill="none" stroke="black" d="M1006.87,-176.07C1003.57,-190.03 998.83,-210.07 994.7,-227.53"/>
<polygon fill="black" stroke="black" points="991.34,-226.54 992.45,-237.07 998.16,-228.15 991.34,-226.54"/>
</g>
<!-- shehulk -->
<g id="node39" class="node">
<title>shehulk</title>
<polygon fill="none" stroke="blue" points="1516,-175.61 1444,-175.61 1444,-139.61 1516,-139.61 1516,-175.61"/>
<text text-anchor="middle" x="1480" y="-153.91" font-family="Arial" font-size="14.00">She&#45;Hulk</text>
</g>
<!-- shehulk&#45;&gt;endgame -->
<g id="edge61" class="edge">
<title>shehulk&#45;&gt;endgame</title>
<path fill="none" stroke="black" d="M1453.13,-176.05C1447.32,-179.25 1441.1,-182.26 1435,-184.48 1312.27,-229.13 1161.3,-249.4 1069.42,-258.17"/>
<polygon fill="black" stroke="black" points="1069.11,-254.68 1059.47,-259.09 1069.75,-261.65 1069.11,-254.68"/>
</g>
<!-- shehulk&#45;&gt;daredevil3 -->
<g id="edge62" class="edge">
<title>shehulk&#45;&gt;daredevil3</title>
<path fill="none" stroke="black" d="M1506.86,-176.08C1512.67,-179.27 1518.9,-182.28 1525,-184.48 1657.79,-232.39 1704.99,-191.19 1838,-238.48 1840.23,-239.27 1842.47,-240.17 1844.71,-241.13"/>
<polygon fill="black" stroke="black" points="1843.12,-244.26 1853.65,-245.44 1846.16,-237.95 1843.12,-244.26"/>
</g>
<!-- werewolf -->
<g id="node40" class="node">
<title>werewolf</title>
<polygon fill="none" stroke="blue" points="1991,-67.87 1865,-67.87 1865,-31.87 1991,-31.87 1991,-67.87"/>
<text text-anchor="middle" x="1928" y="-46.17" font-family="Arial" font-size="14.00">Werewolf by Night</text>
</g>
<!-- guardiansxmas -->
<g id="node41" class="node">
<title>guardiansxmas</title>
<polygon fill="none" stroke="blue" points="1426,-176.61 1262,-176.61 1262,-138.61 1426,-138.61 1426,-176.61"/>
<text text-anchor="middle" x="1344" y="-161.41" font-family="Arial" font-size="14.00">Guardians of the Galaxy</text>
<text text-anchor="middle" x="1344" y="-146.41" font-family="Arial" font-size="14.00">Christmas Special</text>
</g>
<!-- guardiansxmas&#45;&gt;endgame -->
<g id="edge67" class="edge">
<title>guardiansxmas&#45;&gt;endgame</title>
<path fill="none" stroke="black" d="M1281.64,-177.03C1217.82,-195.88 1118.96,-225.08 1053.38,-244.45"/>
<polygon fill="black" stroke="black" points="1052.39,-241.09 1043.8,-247.28 1054.38,-247.8 1052.39,-241.09"/>
</g>
<!-- antman3 -->
<g id="node42" class="node">
<title>antman3</title>
<ellipse fill="none" stroke="green" cx="232" cy="-157.61" rx="112.36" ry="26.74"/>
<text text-anchor="middle" x="232" y="-161.41" font-family="Arial" font-size="14.00">Ant&#45;Man and the Wasp:</text>
<text text-anchor="middle" x="232" y="-146.41" font-family="Arial" font-size="14.00">Quantumania</text>
</g>
<!-- antman3&#45;&gt;endgame -->
<g id="edge36" class="edge">
<title>antman3&#45;&gt;endgame</title>
<path fill="none" stroke="black" d="M312.2,-176.76C325.78,-179.54 339.76,-182.23 353,-184.48 549.78,-217.87 783.15,-243.82 904.11,-256.27"/>
<polygon fill="black" stroke="black" points="903.65,-259.74 913.95,-257.28 904.36,-252.78 903.65,-259.74"/>
</g>
<!-- antman3&#45;&gt;loki1 -->
<g id="edge28" class="edge">
<title>antman3&#45;&gt;loki1</title>
<path fill="none" stroke="black" d="M193.73,-183.13C166.6,-200.52 130.4,-223.72 103.64,-240.87"/>
<polygon fill="black" stroke="black" points="102.05,-237.73 95.52,-246.07 105.83,-243.62 102.05,-237.73"/>
</g>
<!-- guardians3 -->
<g id="node43" class="node">
<title>guardians3</title>
<ellipse fill="none" stroke="green" cx="1344" cy="-49.87" rx="113.98" ry="18"/>
<text text-anchor="middle" x="1344" y="-46.17" font-family="Arial" font-size="14.00">Guardians of the Galaxy 3</text>
</g>
<!-- guardians3&#45;&gt;guardiansxmas -->
<g id="edge68" class="edge">
<title>guardians3&#45;&gt;guardiansxmas</title>
<path fill="none" stroke="black" d="M1344,-68.33C1344,-84.29 1344,-108.2 1344,-127.12"/>
<polygon fill="black" stroke="black" points="1340.5,-126.9 1344,-136.9 1347.5,-126.9 1340.5,-126.9"/>
</g>
<!-- secretinvasion -->
<g id="node44" class="node">
<title>secretinvasion</title>
<polygon fill="none" stroke="green" points="1244,-175.61 1134,-175.61 1134,-139.61 1244,-139.61 1244,-175.61"/>
<text text-anchor="middle" x="1189" y="-153.91" font-family="Arial" font-size="14.00">Secret Invasion</text>
</g>
<!-- secretinvasion&#45;&gt;endgame -->
<g id="edge63" class="edge">
<title>secretinvasion&#45;&gt;endgame</title>
<path fill="none" stroke="black" d="M1155.48,-176.07C1123.36,-192.8 1074.44,-218.28 1037.4,-237.58"/>
<polygon fill="black" stroke="black" points="1035.89,-234.42 1028.64,-242.14 1039.12,-240.63 1035.89,-234.42"/>
</g>
<!-- loki2 -->
<g id="node45" class="node">
<title>loki2</title>
<polygon fill="none" stroke="green" points="102,-175.61 0,-175.61 0,-139.61 102,-139.61 102,-175.61"/>
<text text-anchor="middle" x="51" y="-153.91" font-family="Arial" font-size="14.00">Loki Season 2</text>
</g>
<!-- loki2&#45;&gt;loki1 -->
<g id="edge56" class="edge">
<title>loki2&#45;&gt;loki1</title>
<path fill="none" stroke="black" d="M53.64,-176.07C56.09,-192.22 59.76,-216.52 62.64,-235.54"/>
<polygon fill="black" stroke="black" points="59.17,-236 64.13,-245.37 66.09,-234.96 59.17,-236"/>
</g>
<!-- themarvels -->
<g id="node46" class="node">
<title>themarvels</title>
<ellipse fill="none" stroke="green" cx="518" cy="-49.87" rx="59.59" ry="18"/>
<text text-anchor="middle" x="518" y="-46.17" font-family="Arial" font-size="14.00">The Marvels</text>
</g>
<!-- themarvels&#45;&gt;wandavision -->
<g id="edge37" class="edge">
<title>themarvels&#45;&gt;wandavision</title>
<path fill="none" stroke="black" d="M501.12,-67.39C483.68,-84.47 456.23,-111.35 436.01,-131.15"/>
<polygon fill="black" stroke="black" points="433.61,-128.59 428.92,-138.09 438.51,-133.6 433.61,-128.59"/>
</g>
<!-- themarvels&#45;&gt;msmarvel -->
<g id="edge38" class="edge">
<title>themarvels&#45;&gt;msmarvel</title>
<path fill="none" stroke="black" d="M518,-68.33C518,-84.48 518,-108.78 518,-127.8"/>
<polygon fill="black" stroke="black" points="514.5,-127.61 518,-137.61 521.5,-127.61 514.5,-127.61"/>
</g>
<!-- echo -->
<g id="node47" class="node">
<title>echo</title>
<polygon fill="none" stroke="green" points="1597,-67.87 1543,-67.87 1543,-31.87 1597,-31.87 1597,-67.87"/>
<text text-anchor="middle" x="1570" y="-46.17" font-family="Arial" font-size="14.00">Echo</text>
</g>
<!-- echo&#45;&gt;hawkeye -->
<g id="edge69" class="edge">
<title>echo&#45;&gt;hawkeye</title>
<path fill="none" stroke="black" d="M1570,-68.33C1570,-84.48 1570,-108.78 1570,-127.8"/>
<polygon fill="black" stroke="black" points="1566.5,-127.61 1570,-137.61 1573.5,-127.61 1566.5,-127.61"/>
</g>
<!-- darkhold -->
<g id="node48" class="node">
<title>darkhold</title>
<polygon fill="none" stroke="green" points="206,-68.87 90,-68.87 90,-30.87 206,-30.87 206,-68.87"/>
<text text-anchor="middle" x="148" y="-53.67" font-family="Arial" font-size="14.00">Agatha:</text>
<text text-anchor="middle" x="148" y="-38.67" font-family="Arial" font-size="14.00">Darkhold Diaries</text>
</g>
<!-- darkhold&#45;&gt;wandavision -->
<g id="edge64" class="edge">
<title>darkhold&#45;&gt;wandavision</title>
<path fill="none" stroke="black" d="M193.09,-69.33C200.36,-72 207.84,-74.57 215,-76.74 275.15,-94.97 296.83,-79.42 353,-107.61 364.97,-113.61 376.5,-122.68 386.02,-131.38"/>
<polygon fill="black" stroke="black" points="383.42,-133.74 393.06,-138.13 388.26,-128.68 383.42,-133.74"/>
</g>
<!-- agentshield -->
<g id="node49" class="node">
<title>agentshield</title>
<polygon fill="none" stroke="red" points="1449.5,-590.83 1300.5,-590.83 1300.5,-554.83 1449.5,-554.83 1449.5,-590.83"/>
<text text-anchor="middle" x="1375" y="-569.13" font-family="Arial" font-size="14.00">Agents of S.H.I.E.L.D.</text>
</g>
<!-- agentshield&#45;&gt;ironman3 -->
<g id="edge42" class="edge">
<title>agentshield&#45;&gt;ironman3</title>
<path fill="none" stroke="black" d="M1337.52,-591.29C1296.42,-610.43 1230.72,-641.04 1188.47,-660.72"/>
<polygon fill="black" stroke="black" points="1187.23,-657.44 1179.64,-664.83 1190.18,-663.78 1187.23,-657.44"/>
</g>
<!-- agentshield&#45;&gt;capamerica2 -->
<g id="edge43" class="edge">
<title>agentshield&#45;&gt;capamerica2</title>
<path fill="none" stroke="black" d="M1365.92,-591.29C1358.52,-605.51 1347.84,-626.06 1338.63,-643.75"/>
<polygon fill="black" stroke="black" points="1335.63,-641.94 1334.12,-652.42 1341.84,-645.17 1335.63,-641.94"/>
</g>
<!-- agentcarter1 -->
<g id="node50" class="node">
<title>agentcarter1</title>
<polygon fill="none" stroke="red" points="1718.5,-799.44 1625.5,-799.44 1625.5,-761.44 1718.5,-761.44 1718.5,-799.44"/>
<text text-anchor="middle" x="1672" y="-784.24" font-family="Arial" font-size="14.00">Agent Carter</text>
<text text-anchor="middle" x="1672" y="-769.24" font-family="Arial" font-size="14.00">Season 1</text>
</g>
<!-- agentcarter1&#45;&gt;capamerica1 -->
<g id="edge39" class="edge">
<title>agentcarter1&#45;&gt;capamerica1</title>
<path fill="none" stroke="black" d="M1655.82,-799.85C1644.92,-812.25 1630.19,-829.02 1617.07,-843.95"/>
<polygon fill="black" stroke="black" points="1614.55,-841.52 1610.57,-851.35 1619.8,-846.14 1614.55,-841.52"/>
</g>
<!-- agentcarter2 -->
<g id="node51" class="node">
<title>agentcarter2</title>
<polygon fill="none" stroke="red" points="1804.5,-699.57 1711.5,-699.57 1711.5,-661.57 1804.5,-661.57 1804.5,-699.57"/>
<text text-anchor="middle" x="1758" y="-684.37" font-family="Arial" font-size="14.00">Agent Carter</text>
<text text-anchor="middle" x="1758" y="-669.37" font-family="Arial" font-size="14.00">Season 2</text>
</g>
<!-- agentcarter2&#45;&gt;agentcarter1 -->
<g id="edge40" class="edge">
<title>agentcarter2&#45;&gt;agentcarter1</title>
<path fill="none" stroke="black" d="M1741.82,-699.98C1728.73,-714.88 1710.11,-736.07 1695.39,-752.82"/>
<polygon fill="black" stroke="black" points="1693.07,-750.16 1689.1,-759.98 1698.33,-754.78 1693.07,-750.16"/>
</g>
<!-- daredevil1 -->
<g id="node52" class="node">
<title>daredevil1</title>
<polygon fill="none" stroke="blue" points="1885,-591.83 1811,-591.83 1811,-553.83 1885,-553.83 1885,-591.83"/>
<text text-anchor="middle" x="1848" y="-576.63" font-family="Arial" font-size="14.00">Daredevil</text>
<text text-anchor="middle" x="1848" y="-561.63" font-family="Arial" font-size="14.00">Season 1</text>
</g>
<!-- jjones1 -->
<g id="node53" class="node">
<title>jjones1</title>
<polygon fill="none" stroke="blue" points="1792.5,-484.09 1691.5,-484.09 1691.5,-446.09 1792.5,-446.09 1792.5,-484.09"/>
<text text-anchor="middle" x="1742" y="-468.89" font-family="Arial" font-size="14.00">Jessica Jones</text>
<text text-anchor="middle" x="1742" y="-453.89" font-family="Arial" font-size="14.00">Season 1</text>
</g>
<!-- daredevil2 -->
<g id="node54" class="node">
<title>daredevil2</title>
<polygon fill="none" stroke="blue" points="1885,-484.09 1811,-484.09 1811,-446.09 1885,-446.09 1885,-484.09"/>
<text text-anchor="middle" x="1848" y="-468.89" font-family="Arial" font-size="14.00">Daredevil</text>
<text text-anchor="middle" x="1848" y="-453.89" font-family="Arial" font-size="14.00">Season 2</text>
</g>
<!-- daredevil2&#45;&gt;daredevil1 -->
<g id="edge45" class="edge">
<title>daredevil2&#45;&gt;daredevil1</title>
<path fill="none" stroke="black" d="M1848,-484.51C1848,-500.43 1848,-523.73 1848,-542.26"/>
<polygon fill="black" stroke="black" points="1844.5,-542.11 1848,-552.11 1851.5,-542.11 1844.5,-542.11"/>
</g>
<!-- lukecage1 -->
<g id="node55" class="node">
<title>lukecage1</title>
<polygon fill="none" stroke="blue" points="1985,-484.09 1903,-484.09 1903,-446.09 1985,-446.09 1985,-484.09"/>
<text text-anchor="middle" x="1944" y="-468.89" font-family="Arial" font-size="14.00">Luke Cage</text>
<text text-anchor="middle" x="1944" y="-453.89" font-family="Arial" font-size="14.00">Season 1</text>
</g>
<!-- ironfist1 -->
<g id="node56" class="node">
<title>ironfist1</title>
<polygon fill="none" stroke="blue" points="2077,-484.09 2003,-484.09 2003,-446.09 2077,-446.09 2077,-484.09"/>
<text text-anchor="middle" x="2040" y="-468.89" font-family="Arial" font-size="14.00">Iron Fist</text>
<text text-anchor="middle" x="2040" y="-453.89" font-family="Arial" font-size="14.00">Season 1</text>
</g>
<!-- defenders -->
<g id="node57" class="node">
<title>defenders</title>
<polygon fill="none" stroke="blue" points="1937,-383.22 1831,-383.22 1831,-347.22 1937,-347.22 1937,-383.22"/>
<text text-anchor="middle" x="1884" y="-361.52" font-family="Arial" font-size="14.00">The Defenders</text>
</g>
<!-- defenders&#45;&gt;jjones1 -->
<g id="edge46" class="edge">
<title>defenders&#45;&gt;jjones1</title>
<path fill="none" stroke="black" d="M1858.61,-383.72C1836.12,-399.22 1803.03,-422.03 1777.84,-439.39"/>
<polygon fill="black" stroke="black" points="1776.11,-436.33 1769.86,-444.89 1780.08,-442.1 1776.11,-436.33"/>
</g>
<!-- defenders&#45;&gt;daredevil2 -->
<g id="edge44" class="edge">
<title>defenders&#45;&gt;daredevil2</title>
<path fill="none" stroke="black" d="M1877.56,-383.72C1872.29,-398.06 1864.71,-418.65 1858.55,-435.4"/>
<polygon fill="black" stroke="black" points="1855.44,-433.73 1855.27,-444.33 1862.01,-436.15 1855.44,-433.73"/>
</g>
<!-- defenders&#45;&gt;lukecage1 -->
<g id="edge47" class="edge">
<title>defenders&#45;&gt;lukecage1</title>
<path fill="none" stroke="black" d="M1894.73,-383.72C1903.69,-398.33 1916.63,-419.44 1927,-436.35"/>
<polygon fill="black" stroke="black" points="1923.75,-437.76 1931.96,-444.46 1929.72,-434.1 1923.75,-437.76"/>
</g>
<!-- defenders&#45;&gt;ironfist1 -->
<g id="edge48" class="edge">
<title>defenders&#45;&gt;ironfist1</title>
<path fill="none" stroke="black" d="M1911.89,-383.72C1936.82,-399.36 1973.59,-422.43 2001.35,-439.84"/>
<polygon fill="black" stroke="black" points="1999.15,-442.59 2009.48,-444.94 2002.87,-436.66 1999.15,-442.59"/>
</g>
<!-- punisher1 -->
<g id="node58" class="node">
<title>punisher1</title>
<polygon fill="none" stroke="blue" points="2155.5,-284.35 2058.5,-284.35 2058.5,-246.35 2155.5,-246.35 2155.5,-284.35"/>
<text text-anchor="middle" x="2107" y="-269.15" font-family="Arial" font-size="14.00">The Punisher</text>
<text text-anchor="middle" x="2107" y="-254.15" font-family="Arial" font-size="14.00">Season 1</text>
</g>
<!-- punisher1&#45;&gt;defenders -->
<g id="edge53" class="edge">
<title>punisher1&#45;&gt;defenders</title>
<path fill="none" stroke="black" d="M2066.56,-284.81C2061,-287.31 2055.36,-289.84 2050,-292.22 2011.52,-309.29 1967.85,-328.22 1934.95,-342.38"/>
<polygon fill="black" stroke="black" points="1933.87,-339.04 1926.07,-346.21 1936.63,-345.47 1933.87,-339.04"/>
</g>
<!-- jjones2 -->
<g id="node59" class="node">
<title>jjones2</title>
<polygon fill="none" stroke="blue" points="2040.5,-284.35 1939.5,-284.35 1939.5,-246.35 2040.5,-246.35 2040.5,-284.35"/>
<text text-anchor="middle" x="1990" y="-269.15" font-family="Arial" font-size="14.00">Jessica Jones</text>
<text text-anchor="middle" x="1990" y="-254.15" font-family="Arial" font-size="14.00">Season 2</text>
</g>
<!-- jjones2&#45;&gt;defenders -->
<g id="edge50" class="edge">
<title>jjones2&#45;&gt;defenders</title>
<path fill="none" stroke="black" d="M1970.06,-284.76C1953.32,-300.22 1929.24,-322.45 1910.81,-339.47"/>
<polygon fill="black" stroke="black" points="1908.87,-336.5 1903.89,-345.85 1913.61,-341.64 1908.87,-336.5"/>
</g>
<!-- lukecage2 -->
<g id="node60" class="node">
<title>lukecage2</title>
<polygon fill="none" stroke="blue" points="1829,-284.35 1747,-284.35 1747,-246.35 1829,-246.35 1829,-284.35"/>
<text text-anchor="middle" x="1788" y="-269.15" font-family="Arial" font-size="14.00">Luke Cage</text>
<text text-anchor="middle" x="1788" y="-254.15" font-family="Arial" font-size="14.00">Season 2</text>
</g>
<!-- lukecage2&#45;&gt;defenders -->
<g id="edge51" class="edge">
<title>lukecage2&#45;&gt;defenders</title>
<path fill="none" stroke="black" d="M1806.06,-284.76C1821.09,-300.08 1842.64,-322.05 1859.27,-339.01"/>
<polygon fill="black" stroke="black" points="1856.43,-341.11 1865.93,-345.8 1861.43,-336.21 1856.43,-341.11"/>
</g>
<!-- ironfist2 -->
<g id="node61" class="node">
<title>ironfist2</title>
<polygon fill="none" stroke="blue" points="1729,-284.35 1655,-284.35 1655,-246.35 1729,-246.35 1729,-284.35"/>
<text text-anchor="middle" x="1692" y="-269.15" font-family="Arial" font-size="14.00">Iron Fist</text>
<text text-anchor="middle" x="1692" y="-254.15" font-family="Arial" font-size="14.00">Season 2</text>
</g>
<!-- ironfist2&#45;&gt;defenders -->
<g id="edge52" class="edge">
<title>ironfist2&#45;&gt;defenders</title>
<path fill="none" stroke="black" d="M1724.3,-284.8C1728.88,-287.34 1733.54,-289.87 1738,-292.22 1770.84,-309.54 1808.42,-328.04 1837.23,-341.95"/>
<polygon fill="black" stroke="black" points="1835.53,-345.02 1846.06,-346.2 1838.57,-338.71 1835.53,-345.02"/>
</g>
<!-- daredevil3&#45;&gt;defenders -->
<g id="edge49" class="edge">
<title>daredevil3&#45;&gt;defenders</title>
<path fill="none" stroke="black" d="M1884,-284.76C1884,-299.11 1884,-319.28 1884,-335.71"/>
<polygon fill="black" stroke="black" points="1880.5,-335.37 1884,-345.37 1887.5,-335.37 1880.5,-335.37"/>
</g>
<!-- punisher2 -->
<g id="node63" class="node">
<title>punisher2</title>
<polygon fill="none" stroke="blue" points="2155.5,-176.61 2058.5,-176.61 2058.5,-138.61 2155.5,-138.61 2155.5,-176.61"/>
<text text-anchor="middle" x="2107" y="-161.41" font-family="Arial" font-size="14.00">The Punisher</text>
<text text-anchor="middle" x="2107" y="-146.41" font-family="Arial" font-size="14.00">Season 2</text>
</g>
<!-- punisher2&#45;&gt;punisher1 -->
<g id="edge54" class="edge">
<title>punisher2&#45;&gt;punisher1</title>
<path fill="none" stroke="black" d="M2107,-177.03C2107,-192.95 2107,-216.25 2107,-234.78"/>
<polygon fill="black" stroke="black" points="2103.5,-234.63 2107,-244.63 2110.5,-234.63 2103.5,-234.63"/>
</g>
<!-- jjones3 -->
<g id="node64" class="node">
<title>jjones3</title>
<polygon fill="none" stroke="blue" points="2040.5,-176.61 1939.5,-176.61 1939.5,-138.61 2040.5,-138.61 2040.5,-176.61"/>
<text text-anchor="middle" x="1990" y="-161.41" font-family="Arial" font-size="14.00">Jessica Jones</text>
<text text-anchor="middle" x="1990" y="-146.41" font-family="Arial" font-size="14.00">Season 3</text>
</g>
<!-- jjones3&#45;&gt;jjones2 -->
<g id="edge55" class="edge">
<title>jjones3&#45;&gt;jjones2</title>
<path fill="none" stroke="black" d="M1990,-177.03C1990,-192.95 1990,-216.25 1990,-234.78"/>
<polygon fill="black" stroke="black" points="1986.5,-234.63 1990,-244.63 1993.5,-234.63 1986.5,-234.63"/>
</g>
</g>
</svg>
