<?xml version="1.0" encoding="UTF-8" standalone="no"?>
<!DOCTYPE svg PUBLIC "-//W3C//DTD SVG 1.1//EN"
 "http://www.w3.org/Graphics/SVG/1.1/DTD/svg11.dtd">
<!-- Generated by graphviz version 7.0.1 (20221109.1506)
 -->
<!-- Title: mcu Pages: 1 -->
<svg width="2169pt" height="1021pt"
 viewBox="0.00 0.00 2169.00 1020.92" xmlns="http://www.w3.org/2000/svg" xmlns:xlink="http://www.w3.org/1999/xlink">
<g id="graph0" class="graph" transform="scale(1 1) rotate(0) translate(4 1016.92)">
<title>mcu</title>
<polygon fill="white" stroke="none" points="-4,4 -4,-1016.92 2165,-1016.92 2165,4 -4,4"/>
<text text-anchor="middle" x="1080.5" y="-7.8" font-family="Arial" font-size="14.00">Marvel Cinematic Universe Dependency Chart</text>
<g id="clust1" class="cluster">
<title>cluster_defenders</title>
</g>
<!-- ironman1 -->
<g id="node1" class="node">
<title>ironman1</title>
<ellipse fill="none" stroke="red" stroke-width="5" cx="915" cy="-994.92" rx="46.29" ry="18"/>
<text text-anchor="middle" x="915" y="-991.22" font-family="Arial" font-size="14.00">Iron Man</text>
</g>
<!-- thehulk -->
<g id="node2" class="node">
<title>thehulk</title>
<ellipse fill="none" stroke="red" stroke-width="5" cx="1073" cy="-896.05" rx="86.38" ry="18"/>
<text text-anchor="middle" x="1073" y="-892.35" font-family="Arial" font-size="14.00">The Incredible Hulk</text>
</g>
<!-- ironman2 -->
<g id="node3" class="node">
<title>ironman2</title>
<ellipse fill="none" stroke="red" cx="915" cy="-896.05" rx="53.09" ry="18"/>
<text text-anchor="middle" x="915" y="-892.35" font-family="Arial" font-size="14.00">Iron Man 2</text>
</g>
<!-- ironman2&#45;&gt;ironman1 -->
<g id="edge1" class="edge">
<title>ironman2&#45;&gt;ironman1</title>
<path fill="none" stroke="black" d="M915,-914.37C915,-927.94 915,-947.18 915,-963.33"/>
<polygon fill="black" stroke="black" points="911.5,-962.91 915,-972.91 918.5,-962.91 911.5,-962.91"/>
</g>
<!-- capamerica1 -->
<g id="node4" class="node">
<title>capamerica1</title>
<ellipse fill="none" stroke="red" stroke-width="5" cx="1511" cy="-896.05" rx="87.86" ry="26.74"/>
<text text-anchor="middle" x="1511" y="-899.85" font-family="Arial" font-size="14.00">Captain America:</text>
<text text-anchor="middle" x="1511" y="-884.85" font-family="Arial" font-size="14.00">The First Avenger</text>
</g>
<!-- thor1 -->
<g id="node5" class="node">
<title>thor1</title>
<ellipse fill="none" stroke="red" stroke-width="5" cx="815" cy="-896.05" rx="28.7" ry="18"/>
<text text-anchor="middle" x="815" y="-892.35" font-family="Arial" font-size="14.00">Thor</text>
</g>
<!-- avengers -->
<g id="node6" class="node">
<title>avengers</title>
<ellipse fill="none" stroke="red" cx="915" cy="-796.18" rx="65.79" ry="18"/>
<text text-anchor="middle" x="915" y="-792.48" font-family="Arial" font-size="14.00">The Avengers</text>
</g>
<!-- avengers&#45;&gt;thehulk -->
<g id="edge5" class="edge">
<title>avengers&#45;&gt;thehulk</title>
<path fill="none" stroke="black" d="M940.74,-813.12C966.03,-828.79 1004.97,-852.91 1034.06,-870.93"/>
<polygon fill="black" stroke="black" points="1031.88,-873.7 1042.22,-875.99 1035.56,-867.74 1031.88,-873.7"/>
</g>
<!-- avengers&#45;&gt;ironman2 -->
<g id="edge2" class="edge">
<title>avengers&#45;&gt;ironman2</title>
<path fill="none" stroke="black" d="M915,-814.68C915,-829.01 915,-849.59 915,-866.33"/>
<polygon fill="black" stroke="black" points="911.5,-866.19 915,-876.19 918.5,-866.19 911.5,-866.19"/>
</g>
<!-- avengers&#45;&gt;capamerica1 -->
<g id="edge4" class="edge">
<title>avengers&#45;&gt;capamerica1</title>
<path fill="none" stroke="black" d="M970.27,-806.26C1073.35,-823.18 1295.81,-859.71 1420.89,-880.25"/>
<polygon fill="black" stroke="black" points="1420.01,-883.66 1430.45,-881.82 1421.15,-876.75 1420.01,-883.66"/>
</g>
<!-- avengers&#45;&gt;thor1 -->
<g id="edge3" class="edge">
<title>avengers&#45;&gt;thor1</title>
<path fill="none" stroke="black" d="M898.04,-813.78C881.9,-829.58 857.44,-853.51 839.25,-871.32"/>
<polygon fill="black" stroke="black" points="837.16,-868.46 832.46,-877.96 842.06,-873.47 837.16,-868.46"/>
</g>
<!-- ironman3 -->
<g id="node7" class="node">
<title>ironman3</title>
<ellipse fill="none" stroke="orange" cx="915" cy="-696.31" rx="53.09" ry="18"/>
<text text-anchor="middle" x="915" y="-692.61" font-family="Arial" font-size="14.00">Iron Man 3</text>
</g>
<!-- ironman3&#45;&gt;avengers -->
<g id="edge6" class="edge">
<title>ironman3&#45;&gt;avengers</title>
<path fill="none" stroke="black" d="M915,-714.81C915,-729.14 915,-749.72 915,-766.46"/>
<polygon fill="black" stroke="black" points="911.5,-766.32 915,-776.32 918.5,-766.32 911.5,-766.32"/>
</g>
<!-- thor2 -->
<g id="node8" class="node">
<title>thor2</title>
<ellipse fill="none" stroke="orange" cx="534" cy="-696.31" rx="77.19" ry="18"/>
<text text-anchor="middle" x="534" y="-692.61" font-family="Arial" font-size="14.00">Thor: Dark World</text>
</g>
<!-- thor2&#45;&gt;avengers -->
<g id="edge7" class="edge">
<title>thor2&#45;&gt;avengers</title>
<path fill="none" stroke="black" d="M584.59,-710.31C655.16,-728.43 782.8,-761.22 857.09,-780.3"/>
<polygon fill="black" stroke="black" points="856.07,-783.66 866.62,-782.75 857.81,-776.88 856.07,-783.66"/>
</g>
<!-- capamerica2 -->
<g id="node9" class="node">
<title>capamerica2</title>
<ellipse fill="none" stroke="orange" cx="1319" cy="-696.31" rx="101.23" ry="26.74"/>
<text text-anchor="middle" x="1319" y="-700.11" font-family="Arial" font-size="14.00">Captain America and</text>
<text text-anchor="middle" x="1319" y="-685.11" font-family="Arial" font-size="14.00">the Winter Soldier</text>
</g>
<!-- capamerica2&#45;&gt;avengers -->
<g id="edge8" class="edge">
<title>capamerica2&#45;&gt;avengers</title>
<path fill="none" stroke="black" d="M1245.84,-715.03C1168.03,-733.88 1046.45,-763.34 974.36,-780.8"/>
<polygon fill="black" stroke="black" points="973.59,-777.39 964.7,-783.14 975.24,-784.19 973.59,-777.39"/>
</g>
<!-- guardians1 -->
<g id="node10" class="node">
<title>guardians1</title>
<ellipse fill="none" stroke="orange" stroke-width="5" cx="1093" cy="-696.31" rx="106.68" ry="18"/>
<text text-anchor="middle" x="1093" y="-692.61" font-family="Arial" font-size="14.00">Guardians of the Galaxy</text>
</g>
<!-- ageofultron -->
<g id="node11" class="node">
<title>ageofultron</title>
<ellipse fill="none" stroke="orange" cx="1512" cy="-696.31" rx="73.58" ry="26.74"/>
<text text-anchor="middle" x="1512" y="-700.11" font-family="Arial" font-size="14.00">The Avengers:</text>
<text text-anchor="middle" x="1512" y="-685.11" font-family="Arial" font-size="14.00">Age of Ultron</text>
</g>
<!-- ageofultron&#45;&gt;avengers -->
<g id="edge10" class="edge">
<title>ageofultron&#45;&gt;avengers</title>
<path fill="none" stroke="black" d="M1459.21,-715.17C1449.26,-718.14 1438.87,-720.97 1429,-723.18 1273.86,-757.98 1088.39,-779.01 988.11,-788.73"/>
<polygon fill="black" stroke="black" points="988.03,-785.22 978.41,-789.65 988.7,-792.19 988.03,-785.22"/>
</g>
<!-- antman -->
<g id="node12" class="node">
<title>antman</title>
<ellipse fill="none" stroke="orange" stroke-width="5" cx="1648" cy="-696.31" rx="44.39" ry="18"/>
<text text-anchor="middle" x="1648" y="-692.61" font-family="Arial" font-size="14.00">Ant&#45;Man</text>
</g>
<!-- civilwar -->
<g id="node13" class="node">
<title>civilwar</title>
<ellipse fill="none" stroke="purple" cx="1553" cy="-588.57" rx="73.58" ry="26.74"/>
<text text-anchor="middle" x="1553" y="-592.37" font-family="Arial" font-size="14.00">The Avengers:</text>
<text text-anchor="middle" x="1553" y="-577.37" font-family="Arial" font-size="14.00">Civil War</text>
</g>
<!-- civilwar&#45;&gt;capamerica2 -->
<g id="edge11" class="edge">
<title>civilwar&#45;&gt;capamerica2</title>
<path fill="none" stroke="black" d="M1507.6,-610.08C1471.13,-626.57 1419.56,-649.87 1379.56,-667.95"/>
<polygon fill="black" stroke="black" points="1378.18,-664.73 1370.51,-672.03 1381.07,-671.1 1378.18,-664.73"/>
</g>
<!-- civilwar&#45;&gt;ageofultron -->
<g id="edge12" class="edge">
<title>civilwar&#45;&gt;ageofultron</title>
<path fill="none" stroke="black" d="M1542.97,-615.44C1537.91,-628.5 1531.68,-644.56 1526.14,-658.84"/>
<polygon fill="black" stroke="black" points="1522.97,-657.34 1522.62,-667.93 1529.49,-659.87 1522.97,-657.34"/>
</g>
<!-- civilwar&#45;&gt;antman -->
<g id="edge13" class="edge">
<title>civilwar&#45;&gt;antman</title>
<path fill="none" stroke="black" d="M1575.27,-614.36C1590.03,-630.79 1609.37,-652.31 1624.39,-669.03"/>
<polygon fill="black" stroke="black" points="1621.51,-671.06 1630.79,-676.16 1626.71,-666.38 1621.51,-671.06"/>
</g>
<!-- docstrange -->
<g id="node14" class="node">
<title>docstrange</title>
<ellipse fill="none" stroke="purple" stroke-width="5" cx="375" cy="-588.57" rx="69.59" ry="18"/>
<text text-anchor="middle" x="375" y="-584.87" font-family="Arial" font-size="14.00">Doctor Strange</text>
</g>
<!-- guardians2 -->
<g id="node15" class="node">
<title>guardians2</title>
<ellipse fill="none" stroke="purple" cx="1348" cy="-588.57" rx="113.98" ry="18"/>
<text text-anchor="middle" x="1348" y="-584.87" font-family="Arial" font-size="14.00">Guardians of the Galaxy 2</text>
</g>
<!-- guardians2&#45;&gt;guardians1 -->
<g id="edge14" class="edge">
<title>guardians2&#45;&gt;guardians1</title>
<path fill="none" stroke="black" d="M1308.72,-605.86C1265.2,-623.9 1194.81,-653.09 1146.34,-673.19"/>
<polygon fill="black" stroke="black" points="1145.03,-669.95 1137.13,-677.01 1147.71,-676.41 1145.03,-669.95"/>
</g>
<!-- spidey1 -->
<g id="node16" class="node">
<title>spidey1</title>
<ellipse fill="none" stroke="purple" cx="693" cy="-588.57" rx="69.09" ry="26.74"/>
<text text-anchor="middle" x="693" y="-592.37" font-family="Arial" font-size="14.00">Spider&#45;Man:</text>
<text text-anchor="middle" x="693" y="-577.37" font-family="Arial" font-size="14.00">Homecoming</text>
</g>
<!-- spidey1&#45;&gt;avengers -->
<g id="edge9" class="edge">
<title>spidey1&#45;&gt;avengers</title>
<path fill="none" stroke="black" d="M718.9,-613.56C761.49,-653 845.85,-731.13 888.7,-770.82"/>
<polygon fill="black" stroke="black" points="886.11,-773.19 895.82,-777.42 890.87,-768.06 886.11,-773.19"/>
</g>
<!-- thor3 -->
<g id="node17" class="node">
<title>thor3</title>
<ellipse fill="none" stroke="purple" cx="534" cy="-588.57" rx="71.49" ry="18"/>
<text text-anchor="middle" x="534" y="-584.87" font-family="Arial" font-size="14.00">Thor: Ragnorok</text>
</g>
<!-- thor3&#45;&gt;thor2 -->
<g id="edge15" class="edge">
<title>thor3&#45;&gt;thor2</title>
<path fill="none" stroke="black" d="M534,-607.03C534,-623.18 534,-647.48 534,-666.51"/>
<polygon fill="black" stroke="black" points="530.5,-666.31 534,-676.31 537.5,-666.31 530.5,-666.31"/>
</g>
<!-- bpanther1 -->
<g id="node18" class="node">
<title>bpanther1</title>
<ellipse fill="none" stroke="purple" stroke-width="5" cx="1039" cy="-480.83" rx="65.79" ry="18"/>
<text text-anchor="middle" x="1039" y="-477.13" font-family="Arial" font-size="14.00">Black Panther</text>
</g>
<!-- bpanther2 -->
<g id="node19" class="node">
<title>bpanther2</title>
<ellipse fill="none" stroke="blue" cx="1110" cy="-373.09" rx="87.86" ry="26.74"/>
<text text-anchor="middle" x="1110" y="-376.89" font-family="Arial" font-size="14.00">Black Panther 2:</text>
<text text-anchor="middle" x="1110" y="-361.89" font-family="Arial" font-size="14.00">Wakanda Forever</text>
</g>
<!-- bpanther2&#45;&gt;bpanther1 -->
<g id="edge29" class="edge">
<title>bpanther2&#45;&gt;bpanther1</title>
<path fill="none" stroke="black" d="M1092.81,-399.69C1082.35,-415.28 1068.95,-435.22 1058.15,-451.32"/>
<polygon fill="black" stroke="black" points="1055.31,-449.26 1052.64,-459.51 1061.13,-453.16 1055.31,-449.26"/>
</g>
<!-- whatif1 -->
<g id="node20" class="node">
<title>whatif1</title>
<polygon fill="none" stroke="blue" points="1004.5,-392.09 929.5,-392.09 929.5,-354.09 1004.5,-354.09 1004.5,-392.09"/>
<text text-anchor="middle" x="967" y="-376.89" font-family="Arial" font-size="14.00">What If..?</text>
<text text-anchor="middle" x="967" y="-361.89" font-family="Arial" font-size="14.00">Season 1</text>
</g>
<!-- whatif1&#45;&gt;bpanther1 -->
<g id="edge31" class="edge">
<title>whatif1&#45;&gt;bpanther1</title>
<path fill="none" stroke="black" d="M979.54,-392.51C990.61,-408.76 1006.91,-432.7 1019.65,-451.41"/>
<polygon fill="black" stroke="black" points="1016.74,-453.36 1025.27,-459.66 1022.53,-449.42 1016.74,-453.36"/>
</g>
<!-- infinitywar -->
<g id="node22" class="node">
<title>infinitywar</title>
<ellipse fill="none" stroke="purple" cx="811" cy="-480.83" rx="73.58" ry="26.74"/>
<text text-anchor="middle" x="811" y="-484.63" font-family="Arial" font-size="14.00">The Avengers:</text>
<text text-anchor="middle" x="811" y="-469.63" font-family="Arial" font-size="14.00">Infinity War</text>
</g>
<!-- whatif1&#45;&gt;infinitywar -->
<g id="edge30" class="edge">
<title>whatif1&#45;&gt;infinitywar</title>
<path fill="none" stroke="black" d="M939.83,-392.51C916.24,-408.49 881.68,-431.92 854.29,-450.49"/>
<polygon fill="black" stroke="black" points="852.5,-447.47 846.19,-455.98 856.43,-453.27 852.5,-447.47"/>
</g>
<!-- whatif2 -->
<g id="node21" class="node">
<title>whatif2</title>
<polygon fill="none" stroke="green" points="1006.5,-284.35 927.5,-284.35 927.5,-246.35 1006.5,-246.35 1006.5,-284.35"/>
<text text-anchor="middle" x="967" y="-269.15" font-family="Arial" font-size="14.00">What If...?</text>
<text text-anchor="middle" x="967" y="-254.15" font-family="Arial" font-size="14.00">Season 2</text>
</g>
<!-- whatif2&#45;&gt;whatif1 -->
<g id="edge32" class="edge">
<title>whatif2&#45;&gt;whatif1</title>
<path fill="none" stroke="black" d="M967,-284.77C967,-300.69 967,-323.99 967,-342.52"/>
<polygon fill="black" stroke="black" points="963.5,-342.37 967,-352.37 970.5,-342.37 963.5,-342.37"/>
</g>
<!-- infinitywar&#45;&gt;civilwar -->
<g id="edge17" class="edge">
<title>infinitywar&#45;&gt;civilwar</title>
<path fill="none" stroke="black" d="M876.01,-493.73C903.15,-498.46 935.04,-503.71 964,-507.7 1188.49,-538.61 1249.18,-515.38 1471,-561.7 1477.27,-563.01 1483.75,-564.61 1490.18,-566.36"/>
<polygon fill="black" stroke="black" points="1488.89,-569.63 1499.46,-569.02 1490.81,-562.9 1488.89,-569.63"/>
</g>
<!-- infinitywar&#45;&gt;docstrange -->
<g id="edge19" class="edge">
<title>infinitywar&#45;&gt;docstrange</title>
<path fill="none" stroke="black" d="M746.7,-494.27C674.86,-508.62 555.35,-533.84 454,-561.7 446.06,-563.88 437.73,-566.38 429.59,-568.94"/>
<polygon fill="black" stroke="black" points="428.54,-565.6 420.09,-571.98 430.68,-572.26 428.54,-565.6"/>
</g>
<!-- infinitywar&#45;&gt;guardians2 -->
<g id="edge20" class="edge">
<title>infinitywar&#45;&gt;guardians2</title>
<path fill="none" stroke="black" d="M875.6,-493.95C957.12,-509.32 1101.58,-536.82 1225,-561.7 1239.89,-564.7 1255.77,-567.98 1271.01,-571.17"/>
<polygon fill="black" stroke="black" points="1269.99,-574.53 1280.49,-573.16 1271.42,-567.68 1269.99,-574.53"/>
</g>
<!-- infinitywar&#45;&gt;spidey1 -->
<g id="edge23" class="edge">
<title>infinitywar&#45;&gt;spidey1</title>
<path fill="none" stroke="black" d="M783.93,-506.09C767.32,-520.97 745.89,-540.18 728,-556.21"/>
<polygon fill="black" stroke="black" points="725.78,-553.5 720.67,-562.78 730.45,-558.71 725.78,-553.5"/>
</g>
<!-- infinitywar&#45;&gt;thor3 -->
<g id="edge16" class="edge">
<title>infinitywar&#45;&gt;thor3</title>
<path fill="none" stroke="black" d="M761.16,-500.86C710.66,-520.13 633.03,-549.77 582.88,-568.91"/>
<polygon fill="black" stroke="black" points="581.81,-565.57 573.72,-572.41 584.31,-572.11 581.81,-565.57"/>
</g>
<!-- antman2 -->
<g id="node23" class="node">
<title>antman2</title>
<ellipse fill="none" stroke="purple" cx="811" cy="-373.09" rx="100.98" ry="18"/>
<text text-anchor="middle" x="811" y="-369.39" font-family="Arial" font-size="14.00">Ant&#45;Man and the Wasp</text>
</g>
<!-- antman2&#45;&gt;infinitywar -->
<g id="edge33" class="edge">
<title>antman2&#45;&gt;infinitywar</title>
<path fill="none" stroke="black" d="M811,-391.55C811,-405.28 811,-424.9 811,-442.15"/>
<polygon fill="black" stroke="black" points="807.5,-442.11 811,-452.11 814.5,-442.11 807.5,-442.11"/>
</g>
<!-- capmarvel -->
<g id="node24" class="node">
<title>capmarvel</title>
<ellipse fill="none" stroke="purple" cx="473" cy="-373.09" rx="70.39" ry="18"/>
<text text-anchor="middle" x="473" y="-369.39" font-family="Arial" font-size="14.00">Captain Marvel</text>
</g>
<!-- capmarvel&#45;&gt;avengers -->
<g id="edge21" class="edge">
<title>capmarvel&#45;&gt;avengers</title>
<path fill="none" stroke="black" d="M445.35,-389.89C384.49,-426.83 248,-522.77 296,-615.57 334.03,-689.09 371.27,-692.13 448,-723.18 578.07,-775.81 742.81,-790.26 837.82,-794.05"/>
<polygon fill="black" stroke="black" points="837.42,-797.53 847.54,-794.4 837.68,-790.54 837.42,-797.53"/>
</g>
<!-- endgame -->
<g id="node25" class="node">
<title>endgame</title>
<ellipse fill="none" stroke="purple" cx="823" cy="-265.35" rx="73.58" ry="26.74"/>
<text text-anchor="middle" x="823" y="-269.15" font-family="Arial" font-size="14.00">The Avengers:</text>
<text text-anchor="middle" x="823" y="-254.15" font-family="Arial" font-size="14.00">Endgame</text>
</g>
<!-- endgame&#45;&gt;antman2 -->
<g id="edge34" class="edge">
<title>endgame&#45;&gt;antman2</title>
<path fill="none" stroke="black" d="M820.03,-292.49C818.27,-307.99 816.04,-327.64 814.24,-343.54"/>
<polygon fill="black" stroke="black" points="810.78,-343.01 813.13,-353.34 817.73,-343.8 810.78,-343.01"/>
</g>
<!-- endgame&#45;&gt;capmarvel -->
<g id="edge22" class="edge">
<title>endgame&#45;&gt;capmarvel</title>
<path fill="none" stroke="black" d="M767.15,-283.22C701.57,-303.04 593.45,-335.7 528.16,-355.43"/>
<polygon fill="black" stroke="black" points="527.29,-352.03 518.73,-358.28 529.31,-358.73 527.29,-352.03"/>
</g>
<!-- spidey2 -->
<g id="node26" class="node">
<title>spidey2</title>
<ellipse fill="none" stroke="purple" cx="442" cy="-157.61" rx="79.81" ry="26.74"/>
<text text-anchor="middle" x="442" y="-161.41" font-family="Arial" font-size="14.00">Spider&#45;Man:</text>
<text text-anchor="middle" x="442" y="-146.41" font-family="Arial" font-size="14.00">Far From Home</text>
</g>
<!-- spidey2&#45;&gt;endgame -->
<g id="edge24" class="edge">
<title>spidey2&#45;&gt;endgame</title>
<path fill="none" stroke="black" d="M500.85,-175.86C510.9,-178.76 521.24,-181.73 531,-184.48 607.03,-205.93 694.45,-229.72 753.67,-245.72"/>
<polygon fill="black" stroke="black" points="752.72,-249.09 763.29,-248.32 754.55,-242.33 752.72,-249.09"/>
</g>
<!-- wandavision -->
<g id="node27" class="node">
<title>wandavision</title>
<polygon fill="none" stroke="blue" points="636,-175.61 540,-175.61 540,-139.61 636,-139.61 636,-175.61"/>
<text text-anchor="middle" x="588" y="-153.91" font-family="Arial" font-size="14.00">WandaVision</text>
</g>
<!-- wandavision&#45;&gt;endgame -->
<g id="edge26" class="edge">
<title>wandavision&#45;&gt;endgame</title>
<path fill="none" stroke="black" d="M626.32,-176.03C632.56,-178.86 638.96,-181.75 645,-184.48 686.02,-202.99 732.42,-223.81 767.56,-239.55"/>
<polygon fill="black" stroke="black" points="765.68,-242.54 776.23,-243.43 768.54,-236.15 765.68,-242.54"/>
</g>
<!-- falcon -->
<g id="node28" class="node">
<title>falcon</title>
<polygon fill="none" stroke="blue" points="889.5,-176.61 756.5,-176.61 756.5,-138.61 889.5,-138.61 889.5,-176.61"/>
<text text-anchor="middle" x="823" y="-161.41" font-family="Arial" font-size="14.00">The Falcon and the</text>
<text text-anchor="middle" x="823" y="-146.41" font-family="Arial" font-size="14.00">Winter Soldier</text>
</g>
<!-- falcon&#45;&gt;endgame -->
<g id="edge63" class="edge">
<title>falcon&#45;&gt;endgame</title>
<path fill="none" stroke="black" d="M823,-177.03C823,-190.78 823,-210.03 823,-226.97"/>
<polygon fill="black" stroke="black" points="819.5,-226.71 823,-236.71 826.5,-226.71 819.5,-226.71"/>
</g>
<!-- loki1 -->
<g id="node29" class="node">
<title>loki1</title>
<polygon fill="none" stroke="blue" points="259,-283.35 205,-283.35 205,-247.35 259,-247.35 259,-283.35"/>
<text text-anchor="middle" x="232" y="-261.65" font-family="Arial" font-size="14.00">Loki</text>
</g>
<!-- loki1&#45;&gt;thor2 -->
<g id="edge55" class="edge">
<title>loki1&#45;&gt;thor2</title>
<path fill="none" stroke="black" d="M229.58,-283.81C222.86,-339.67 209.78,-516.15 296,-615.57 334.37,-659.81 398.04,-679.58 449.88,-688.38"/>
<polygon fill="black" stroke="black" points="449.16,-691.81 459.59,-689.91 450.25,-684.89 449.16,-691.81"/>
</g>
<!-- bwidow -->
<g id="node30" class="node">
<title>bwidow</title>
<ellipse fill="none" stroke="blue" cx="1514" cy="-265.35" rx="61.99" ry="18"/>
<text text-anchor="middle" x="1514" y="-261.65" font-family="Arial" font-size="14.00">Black Widow</text>
</g>
<!-- bwidow&#45;&gt;civilwar -->
<g id="edge18" class="edge">
<title>bwidow&#45;&gt;civilwar</title>
<path fill="none" stroke="black" d="M1516.1,-283.62C1522.2,-333.88 1540.05,-480.9 1548.48,-550.38"/>
<polygon fill="black" stroke="black" points="1544.99,-550.62 1549.67,-560.12 1551.94,-549.77 1544.99,-550.62"/>
</g>
<!-- shangchi -->
<g id="node31" class="node">
<title>shangchi</title>
<ellipse fill="none" stroke="blue" cx="915" cy="-588.57" rx="134.2" ry="26.74"/>
<text text-anchor="middle" x="915" y="-592.37" font-family="Arial" font-size="14.00">Shang&#45;Chi:</text>
<text text-anchor="middle" x="915" y="-577.37" font-family="Arial" font-size="14.00">The Legend of the Ten Rings</text>
</g>
<!-- shangchi&#45;&gt;ironman3 -->
<g id="edge40" class="edge">
<title>shangchi&#45;&gt;ironman3</title>
<path fill="none" stroke="black" d="M915,-615.71C915,-631.21 915,-650.86 915,-666.76"/>
<polygon fill="black" stroke="black" points="911.5,-666.55 915,-676.55 918.5,-666.55 911.5,-666.55"/>
</g>
<!-- eternals -->
<g id="node32" class="node">
<title>eternals</title>
<ellipse fill="none" stroke="blue" cx="1608" cy="-49.87" rx="60.39" ry="18"/>
<text text-anchor="middle" x="1608" y="-46.17" font-family="Arial" font-size="14.00">The Eternals</text>
</g>
<!-- hawkeye -->
<g id="node33" class="node">
<title>hawkeye</title>
<polygon fill="none" stroke="blue" points="1538,-175.61 1466,-175.61 1466,-139.61 1538,-139.61 1538,-175.61"/>
<text text-anchor="middle" x="1502" y="-153.91" font-family="Arial" font-size="14.00">Hawkeye</text>
</g>
<!-- hawkeye&#45;&gt;endgame -->
<g id="edge56" class="edge">
<title>hawkeye&#45;&gt;endgame</title>
<path fill="none" stroke="black" d="M1465.57,-174.91C1456.1,-178.58 1445.81,-182.09 1436,-184.48 1211.09,-239.21 1145.53,-195.93 918,-238.48 908.82,-240.2 899.23,-242.36 889.83,-244.7"/>
<polygon fill="black" stroke="black" points="889.19,-241.25 880.38,-247.13 890.94,-248.03 889.19,-241.25"/>
</g>
<!-- hawkeye&#45;&gt;bwidow -->
<g id="edge58" class="edge">
<title>hawkeye&#45;&gt;bwidow</title>
<path fill="none" stroke="black" d="M1503.98,-176.07C1505.81,-192.22 1508.57,-216.52 1510.73,-235.54"/>
<polygon fill="black" stroke="black" points="1507.24,-235.82 1511.84,-245.36 1514.19,-235.03 1507.24,-235.82"/>
</g>
<!-- daredevil3 -->
<g id="node62" class="node">
<title>daredevil3</title>
<polygon fill="none" stroke="blue" points="1718,-284.35 1644,-284.35 1644,-246.35 1718,-246.35 1718,-284.35"/>
<text text-anchor="middle" x="1681" y="-269.15" font-family="Arial" font-size="14.00">Daredevil</text>
<text text-anchor="middle" x="1681" y="-254.15" font-family="Arial" font-size="14.00">Season 3</text>
</g>
<!-- hawkeye&#45;&gt;daredevil3 -->
<g id="edge57" class="edge">
<title>hawkeye&#45;&gt;daredevil3</title>
<path fill="none" stroke="black" d="M1531.56,-176.07C1561.16,-193.56 1606.97,-220.62 1640.06,-240.17"/>
<polygon fill="black" stroke="black" points="1638.2,-243.13 1648.59,-245.21 1641.76,-237.11 1638.2,-243.13"/>
</g>
<!-- spidey3 -->
<g id="node34" class="node">
<title>spidey3</title>
<ellipse fill="none" stroke="blue" cx="204" cy="-49.87" rx="74.49" ry="26.74"/>
<text text-anchor="middle" x="204" y="-53.67" font-family="Arial" font-size="14.00">Spider&#45;Man:</text>
<text text-anchor="middle" x="204" y="-38.67" font-family="Arial" font-size="14.00">No Way Home</text>
</g>
<!-- spidey3&#45;&gt;spidey2 -->
<g id="edge25" class="edge">
<title>spidey3&#45;&gt;spidey2</title>
<path fill="none" stroke="black" d="M257.15,-69.07C285.92,-79.43 321.85,-93.19 353,-107.61 366.52,-113.87 380.81,-121.33 393.88,-128.52"/>
<polygon fill="black" stroke="black" points="391.85,-131.4 402.29,-133.21 395.26,-125.28 391.85,-131.4"/>
</g>
<!-- moonknight -->
<g id="node35" class="node">
<title>moonknight</title>
<polygon fill="none" stroke="blue" points="1779.5,-67.87 1686.5,-67.87 1686.5,-31.87 1779.5,-31.87 1779.5,-67.87"/>
<text text-anchor="middle" x="1733" y="-46.17" font-family="Arial" font-size="14.00">Moon Knight</text>
</g>
<!-- docstrange2 -->
<g id="node36" class="node">
<title>docstrange2</title>
<ellipse fill="none" stroke="blue" cx="404" cy="-49.87" rx="108.38" ry="26.74"/>
<text text-anchor="middle" x="404" y="-53.67" font-family="Arial" font-size="14.00">Doctor Strange 2:</text>
<text text-anchor="middle" x="404" y="-38.67" font-family="Arial" font-size="14.00">Multiverse of Madness</text>
</g>
<!-- docstrange2&#45;&gt;wandavision -->
<g id="edge28" class="edge">
<title>docstrange2&#45;&gt;wandavision</title>
<path fill="none" stroke="black" d="M462.4,-72.77C484.61,-82.16 509.69,-94.1 531,-107.61 541.86,-114.49 552.8,-123.34 562.15,-131.61"/>
<polygon fill="black" stroke="black" points="559.71,-134.12 569.46,-138.27 564.43,-128.95 559.71,-134.12"/>
</g>
<!-- msmarvel -->
<g id="node37" class="node">
<title>msmarvel</title>
<polygon fill="none" stroke="blue" points="738,-175.61 654,-175.61 654,-139.61 738,-139.61 738,-175.61"/>
<text text-anchor="middle" x="696" y="-153.91" font-family="Arial" font-size="14.00">Ms. Marvel</text>
</g>
<!-- thor4 -->
<g id="node38" class="node">
<title>thor4</title>
<ellipse fill="none" stroke="blue" cx="1012" cy="-157.61" rx="104.78" ry="18"/>
<text text-anchor="middle" x="1012" y="-153.91" font-family="Arial" font-size="14.00">Thor: Love and Thunder</text>
</g>
<!-- thor4&#45;&gt;endgame -->
<g id="edge64" class="edge">
<title>thor4&#45;&gt;endgame</title>
<path fill="none" stroke="black" d="M982.47,-175.13C952.99,-191.63 907.15,-217.27 872.18,-236.84"/>
<polygon fill="black" stroke="black" points="870.5,-233.76 863.48,-241.7 873.92,-239.87 870.5,-233.76"/>
</g>
<!-- shehulk -->
<g id="node39" class="node">
<title>shehulk</title>
<polygon fill="none" stroke="blue" points="1628,-175.61 1556,-175.61 1556,-139.61 1628,-139.61 1628,-175.61"/>
<text text-anchor="middle" x="1592" y="-153.91" font-family="Arial" font-size="14.00">She&#45;Hulk</text>
</g>
<!-- shehulk&#45;&gt;endgame -->
<g id="edge59" class="edge">
<title>shehulk&#45;&gt;endgame</title>
<path fill="none" stroke="black" d="M1566.24,-175.96C1560.16,-179.32 1553.54,-182.43 1547,-184.48 1279.26,-268.39 1194.26,-189.42 918,-238.48 908.75,-240.12 899.08,-242.25 889.62,-244.59"/>
<polygon fill="black" stroke="black" points="888.91,-241.15 880.1,-247.03 890.65,-247.94 888.91,-241.15"/>
</g>
<!-- shehulk&#45;&gt;daredevil3 -->
<g id="edge60" class="edge">
<title>shehulk&#45;&gt;daredevil3</title>
<path fill="none" stroke="black" d="M1606.7,-176.07C1620.76,-192.78 1642.18,-218.23 1658.41,-237.51"/>
<polygon fill="black" stroke="black" points="1655.59,-239.6 1664.71,-245 1660.95,-235.09 1655.59,-239.6"/>
</g>
<!-- werewolf -->
<g id="node40" class="node">
<title>werewolf</title>
<polygon fill="none" stroke="blue" points="1924,-67.87 1798,-67.87 1798,-31.87 1924,-31.87 1924,-67.87"/>
<text text-anchor="middle" x="1861" y="-46.17" font-family="Arial" font-size="14.00">Werewolf by Night</text>
</g>
<!-- guardiansxmas -->
<g id="node41" class="node">
<title>guardiansxmas</title>
<polygon fill="none" stroke="blue" points="1427,-176.61 1263,-176.61 1263,-138.61 1427,-138.61 1427,-176.61"/>
<text text-anchor="middle" x="1345" y="-161.41" font-family="Arial" font-size="14.00">Guardians of the Galaxy</text>
<text text-anchor="middle" x="1345" y="-146.41" font-family="Arial" font-size="14.00">Christmas Special</text>
</g>
<!-- guardiansxmas&#45;&gt;endgame -->
<g id="edge65" class="edge">
<title>guardiansxmas&#45;&gt;endgame</title>
<path fill="none" stroke="black" d="M1284.06,-177C1274.07,-179.71 1263.78,-182.31 1254,-184.48 1106.34,-217.22 1065.84,-206.56 918,-238.48 909.09,-240.4 899.77,-242.65 890.6,-245"/>
<polygon fill="black" stroke="black" points="889.77,-241.59 880.99,-247.51 891.55,-248.37 889.77,-241.59"/>
</g>
<!-- antman3 -->
<g id="node42" class="node">
<title>antman3</title>
<ellipse fill="none" stroke="green" cx="232" cy="-157.61" rx="112.36" ry="26.74"/>
<text text-anchor="middle" x="232" y="-161.41" font-family="Arial" font-size="14.00">Ant&#45;Man and the Wasp:</text>
<text text-anchor="middle" x="232" y="-146.41" font-family="Arial" font-size="14.00">Quantumania</text>
</g>
<!-- antman3&#45;&gt;endgame -->
<g id="edge35" class="edge">
<title>antman3&#45;&gt;endgame</title>
<path fill="none" stroke="black" d="M313.26,-176.48C326.52,-179.25 340.13,-182.01 353,-184.48 490.33,-210.82 651.11,-237.18 744.57,-252.06"/>
<polygon fill="black" stroke="black" points="743.98,-255.51 754.41,-253.63 745.08,-248.6 743.98,-255.51"/>
</g>
<!-- antman3&#45;&gt;loki1 -->
<g id="edge27" class="edge">
<title>antman3&#45;&gt;loki1</title>
<path fill="none" stroke="black" d="M232,-184.75C232,-200.25 232,-219.9 232,-235.8"/>
<polygon fill="black" stroke="black" points="228.5,-235.59 232,-245.59 235.5,-235.59 228.5,-235.59"/>
</g>
<!-- guardians3 -->
<g id="node43" class="node">
<title>guardians3</title>
<ellipse fill="none" stroke="green" cx="1344" cy="-49.87" rx="113.98" ry="18"/>
<text text-anchor="middle" x="1344" y="-46.17" font-family="Arial" font-size="14.00">Guardians of the Galaxy 3</text>
</g>
<!-- guardians3&#45;&gt;guardiansxmas -->
<g id="edge66" class="edge">
<title>guardians3&#45;&gt;guardiansxmas</title>
<path fill="none" stroke="black" d="M1344.17,-68.33C1344.32,-84.29 1344.54,-108.2 1344.72,-127.12"/>
<polygon fill="black" stroke="black" points="1341.22,-126.93 1344.81,-136.9 1348.22,-126.87 1341.22,-126.93"/>
</g>
<!-- secretinvasion -->
<g id="node44" class="node">
<title>secretinvasion</title>
<polygon fill="none" stroke="green" points="1245,-175.61 1135,-175.61 1135,-139.61 1245,-139.61 1245,-175.61"/>
<text text-anchor="middle" x="1190" y="-153.91" font-family="Arial" font-size="14.00">Secret Invasion</text>
</g>
<!-- secretinvasion&#45;&gt;endgame -->
<g id="edge61" class="edge">
<title>secretinvasion&#45;&gt;endgame</title>
<path fill="none" stroke="black" d="M1148.98,-176.11C1141.4,-179.08 1133.51,-182 1126,-184.48 1035.31,-214.44 1010.3,-213.93 918,-238.48 909.58,-240.72 900.74,-243.09 892,-245.46"/>
<polygon fill="black" stroke="black" points="891.19,-242.05 882.46,-248.04 893.03,-248.81 891.19,-242.05"/>
</g>
<!-- loki2 -->
<g id="node45" class="node">
<title>loki2</title>
<polygon fill="none" stroke="green" points="102,-175.61 0,-175.61 0,-139.61 102,-139.61 102,-175.61"/>
<text text-anchor="middle" x="51" y="-153.91" font-family="Arial" font-size="14.00">Loki Season 2</text>
</g>
<!-- loki2&#45;&gt;loki1 -->
<g id="edge54" class="edge">
<title>loki2&#45;&gt;loki1</title>
<path fill="none" stroke="black" d="M80.89,-176.07C112.1,-194.3 161.11,-222.94 194.81,-242.62"/>
<polygon fill="black" stroke="black" points="193.03,-245.64 203.43,-247.66 196.56,-239.59 193.03,-245.64"/>
</g>
<!-- themarvels -->
<g id="node46" class="node">
<title>themarvels</title>
<ellipse fill="none" stroke="green" cx="724" cy="-49.87" rx="59.59" ry="18"/>
<text text-anchor="middle" x="724" y="-46.17" font-family="Arial" font-size="14.00">The Marvels</text>
</g>
<!-- themarvels&#45;&gt;wandavision -->
<g id="edge36" class="edge">
<title>themarvels&#45;&gt;wandavision</title>
<path fill="none" stroke="black" d="M700.79,-66.74C684.84,-77.84 663.32,-93.2 645,-107.61 635.38,-115.17 625.17,-123.77 616.08,-131.63"/>
<polygon fill="black" stroke="black" points="613.8,-128.96 608.57,-138.18 618.41,-134.24 613.8,-128.96"/>
</g>
<!-- themarvels&#45;&gt;msmarvel -->
<g id="edge37" class="edge">
<title>themarvels&#45;&gt;msmarvel</title>
<path fill="none" stroke="black" d="M719.5,-67.86C715.18,-84.18 708.57,-109.14 703.46,-128.43"/>
<polygon fill="black" stroke="black" points="700.14,-127.29 700.97,-137.85 706.91,-129.08 700.14,-127.29"/>
</g>
<!-- echo -->
<g id="node47" class="node">
<title>echo</title>
<polygon fill="none" stroke="green" points="1530,-67.87 1476,-67.87 1476,-31.87 1530,-31.87 1530,-67.87"/>
<text text-anchor="middle" x="1503" y="-46.17" font-family="Arial" font-size="14.00">Echo</text>
</g>
<!-- echo&#45;&gt;hawkeye -->
<g id="edge67" class="edge">
<title>echo&#45;&gt;hawkeye</title>
<path fill="none" stroke="black" d="M1502.83,-68.33C1502.68,-84.48 1502.45,-108.78 1502.27,-127.8"/>
<polygon fill="black" stroke="black" points="1498.77,-127.58 1502.18,-137.61 1505.77,-127.64 1498.77,-127.58"/>
</g>
<!-- darkhold -->
<g id="node48" class="node">
<title>darkhold</title>
<polygon fill="none" stroke="green" points="646,-68.87 530,-68.87 530,-30.87 646,-30.87 646,-68.87"/>
<text text-anchor="middle" x="588" y="-53.67" font-family="Arial" font-size="14.00">Agatha:</text>
<text text-anchor="middle" x="588" y="-38.67" font-family="Arial" font-size="14.00">Darkhold Diaries</text>
</g>
<!-- darkhold&#45;&gt;wandavision -->
<g id="edge62" class="edge">
<title>darkhold&#45;&gt;wandavision</title>
<path fill="none" stroke="black" d="M588,-69.29C588,-85.5 588,-109.37 588,-128.05"/>
<polygon fill="black" stroke="black" points="584.5,-127.94 588,-137.94 591.5,-127.94 584.5,-127.94"/>
</g>
<!-- agentshield -->
<g id="node49" class="node">
<title>agentshield</title>
<polygon fill="none" stroke="red" points="1216.5,-606.57 1067.5,-606.57 1067.5,-570.57 1216.5,-570.57 1216.5,-606.57"/>
<text text-anchor="middle" x="1142" y="-584.87" font-family="Arial" font-size="14.00">Agents of S.H.I.E.L.D.</text>
</g>
<!-- agentshield&#45;&gt;ironman3 -->
<g id="edge41" class="edge">
<title>agentshield&#45;&gt;ironman3</title>
<path fill="none" stroke="black" d="M1104.52,-607.03C1063.42,-626.17 997.72,-656.78 955.47,-676.46"/>
<polygon fill="black" stroke="black" points="954.23,-673.18 946.64,-680.57 957.18,-679.52 954.23,-673.18"/>
</g>
<!-- agentcarter1 -->
<g id="node50" class="node">
<title>agentcarter1</title>
<polygon fill="none" stroke="red" points="1680.5,-815.18 1587.5,-815.18 1587.5,-777.18 1680.5,-777.18 1680.5,-815.18"/>
<text text-anchor="middle" x="1634" y="-799.98" font-family="Arial" font-size="14.00">Agent Carter</text>
<text text-anchor="middle" x="1634" y="-784.98" font-family="Arial" font-size="14.00">Season 1</text>
</g>
<!-- agentcarter1&#45;&gt;capamerica1 -->
<g id="edge38" class="edge">
<title>agentcarter1&#45;&gt;capamerica1</title>
<path fill="none" stroke="black" d="M1610.86,-815.59C1594.52,-828.59 1572.17,-846.38 1552.75,-861.83"/>
<polygon fill="black" stroke="black" points="1550.61,-859.06 1544.96,-868.03 1554.97,-864.54 1550.61,-859.06"/>
</g>
<!-- agentcarter2 -->
<g id="node51" class="node">
<title>agentcarter2</title>
<polygon fill="none" stroke="red" points="1803.5,-715.31 1710.5,-715.31 1710.5,-677.31 1803.5,-677.31 1803.5,-715.31"/>
<text text-anchor="middle" x="1757" y="-700.11" font-family="Arial" font-size="14.00">Agent Carter</text>
<text text-anchor="middle" x="1757" y="-685.11" font-family="Arial" font-size="14.00">Season 2</text>
</g>
<!-- agentcarter2&#45;&gt;agentcarter1 -->
<g id="edge39" class="edge">
<title>agentcarter2&#45;&gt;agentcarter1</title>
<path fill="none" stroke="black" d="M1733.86,-715.72C1714.71,-730.96 1687.29,-752.78 1666.02,-769.7"/>
<polygon fill="black" stroke="black" points="1663.86,-766.95 1658.22,-775.91 1668.22,-772.42 1663.86,-766.95"/>
</g>
<!-- daredevil1 -->
<g id="node52" class="node">
<title>daredevil1</title>
<polygon fill="none" stroke="blue" points="1893,-607.57 1819,-607.57 1819,-569.57 1893,-569.57 1893,-607.57"/>
<text text-anchor="middle" x="1856" y="-592.37" font-family="Arial" font-size="14.00">Daredevil</text>
<text text-anchor="middle" x="1856" y="-577.37" font-family="Arial" font-size="14.00">Season 1</text>
</g>
<!-- jjones1 -->
<g id="node53" class="node">
<title>jjones1</title>
<polygon fill="none" stroke="blue" points="1800.5,-499.83 1699.5,-499.83 1699.5,-461.83 1800.5,-461.83 1800.5,-499.83"/>
<text text-anchor="middle" x="1750" y="-484.63" font-family="Arial" font-size="14.00">Jessica Jones</text>
<text text-anchor="middle" x="1750" y="-469.63" font-family="Arial" font-size="14.00">Season 1</text>
</g>
<!-- daredevil2 -->
<g id="node54" class="node">
<title>daredevil2</title>
<polygon fill="none" stroke="blue" points="1893,-499.83 1819,-499.83 1819,-461.83 1893,-461.83 1893,-499.83"/>
<text text-anchor="middle" x="1856" y="-484.63" font-family="Arial" font-size="14.00">Daredevil</text>
<text text-anchor="middle" x="1856" y="-469.63" font-family="Arial" font-size="14.00">Season 2</text>
</g>
<!-- daredevil2&#45;&gt;daredevil1 -->
<g id="edge43" class="edge">
<title>daredevil2&#45;&gt;daredevil1</title>
<path fill="none" stroke="black" d="M1856,-500.25C1856,-516.17 1856,-539.47 1856,-558"/>
<polygon fill="black" stroke="black" points="1852.5,-557.85 1856,-567.85 1859.5,-557.85 1852.5,-557.85"/>
</g>
<!-- lukecage1 -->
<g id="node55" class="node">
<title>lukecage1</title>
<polygon fill="none" stroke="blue" points="1993,-499.83 1911,-499.83 1911,-461.83 1993,-461.83 1993,-499.83"/>
<text text-anchor="middle" x="1952" y="-484.63" font-family="Arial" font-size="14.00">Luke Cage</text>
<text text-anchor="middle" x="1952" y="-469.63" font-family="Arial" font-size="14.00">Season 1</text>
</g>
<!-- ironfist1 -->
<g id="node56" class="node">
<title>ironfist1</title>
<polygon fill="none" stroke="blue" points="2085,-499.83 2011,-499.83 2011,-461.83 2085,-461.83 2085,-499.83"/>
<text text-anchor="middle" x="2048" y="-484.63" font-family="Arial" font-size="14.00">Iron Fist</text>
<text text-anchor="middle" x="2048" y="-469.63" font-family="Arial" font-size="14.00">Season 1</text>
</g>
<!-- defenders -->
<g id="node57" class="node">
<title>defenders</title>
<polygon fill="none" stroke="blue" points="1957,-391.09 1851,-391.09 1851,-355.09 1957,-355.09 1957,-391.09"/>
<text text-anchor="middle" x="1904" y="-369.39" font-family="Arial" font-size="14.00">The Defenders</text>
</g>
<!-- defenders&#45;&gt;jjones1 -->
<g id="edge44" class="edge">
<title>defenders&#45;&gt;jjones1</title>
<path fill="none" stroke="black" d="M1878.57,-391.55C1853.32,-408.89 1814.37,-435.63 1785.96,-455.14"/>
<polygon fill="black" stroke="black" points="1784.27,-452.05 1778.01,-460.6 1788.23,-457.82 1784.27,-452.05"/>
</g>
<!-- defenders&#45;&gt;daredevil2 -->
<g id="edge42" class="edge">
<title>defenders&#45;&gt;daredevil2</title>
<path fill="none" stroke="black" d="M1896.07,-391.55C1888.69,-407.81 1877.56,-432.33 1868.9,-451.41"/>
<polygon fill="black" stroke="black" points="1865.83,-449.7 1864.89,-460.26 1872.21,-452.6 1865.83,-449.7"/>
</g>
<!-- defenders&#45;&gt;lukecage1 -->
<g id="edge45" class="edge">
<title>defenders&#45;&gt;lukecage1</title>
<path fill="none" stroke="black" d="M1911.93,-391.55C1919.31,-407.81 1930.44,-432.33 1939.1,-451.41"/>
<polygon fill="black" stroke="black" points="1935.79,-452.6 1943.11,-460.26 1942.17,-449.7 1935.79,-452.6"/>
</g>
<!-- defenders&#45;&gt;ironfist1 -->
<g id="edge46" class="edge">
<title>defenders&#45;&gt;ironfist1</title>
<path fill="none" stroke="black" d="M1927.78,-391.55C1951.36,-408.87 1987.71,-435.56 2014.27,-455.06"/>
<polygon fill="black" stroke="black" points="2011.87,-457.64 2022,-460.74 2016.01,-452 2011.87,-457.64"/>
</g>
<!-- punisher1 -->
<g id="node58" class="node">
<title>punisher1</title>
<polygon fill="none" stroke="blue" points="1952.5,-284.35 1855.5,-284.35 1855.5,-246.35 1952.5,-246.35 1952.5,-284.35"/>
<text text-anchor="middle" x="1904" y="-269.15" font-family="Arial" font-size="14.00">The Punisher</text>
<text text-anchor="middle" x="1904" y="-254.15" font-family="Arial" font-size="14.00">Season 1</text>
</g>
<!-- punisher1&#45;&gt;defenders -->
<g id="edge51" class="edge">
<title>punisher1&#45;&gt;defenders</title>
<path fill="none" stroke="black" d="M1904,-284.77C1904,-300.98 1904,-324.85 1904,-343.53"/>
<polygon fill="black" stroke="black" points="1900.5,-343.42 1904,-353.42 1907.5,-343.42 1900.5,-343.42"/>
</g>
<!-- jjones2 -->
<g id="node59" class="node">
<title>jjones2</title>
<polygon fill="none" stroke="blue" points="1837.5,-284.35 1736.5,-284.35 1736.5,-246.35 1837.5,-246.35 1837.5,-284.35"/>
<text text-anchor="middle" x="1787" y="-269.15" font-family="Arial" font-size="14.00">Jessica Jones</text>
<text text-anchor="middle" x="1787" y="-254.15" font-family="Arial" font-size="14.00">Season 2</text>
</g>
<!-- jjones2&#45;&gt;defenders -->
<g id="edge48" class="edge">
<title>jjones2&#45;&gt;defenders</title>
<path fill="none" stroke="black" d="M1807.38,-284.77C1826.6,-302.14 1855.54,-328.3 1876.74,-347.45"/>
<polygon fill="black" stroke="black" points="1874.13,-349.81 1883.89,-353.92 1878.82,-344.62 1874.13,-349.81"/>
</g>
<!-- lukecage2 -->
<g id="node60" class="node">
<title>lukecage2</title>
<polygon fill="none" stroke="blue" points="2145,-284.35 2063,-284.35 2063,-246.35 2145,-246.35 2145,-284.35"/>
<text text-anchor="middle" x="2104" y="-269.15" font-family="Arial" font-size="14.00">Luke Cage</text>
<text text-anchor="middle" x="2104" y="-254.15" font-family="Arial" font-size="14.00">Season 2</text>
</g>
<!-- lukecage2&#45;&gt;defenders -->
<g id="edge49" class="edge">
<title>lukecage2&#45;&gt;defenders</title>
<path fill="none" stroke="black" d="M2069.16,-284.77C2035.1,-302.78 1983.16,-330.24 1946.64,-349.54"/>
<polygon fill="black" stroke="black" points="1945.32,-346.28 1938.12,-354.05 1948.6,-352.47 1945.32,-346.28"/>
</g>
<!-- ironfist2 -->
<g id="node61" class="node">
<title>ironfist2</title>
<polygon fill="none" stroke="blue" points="2045,-284.35 1971,-284.35 1971,-246.35 2045,-246.35 2045,-284.35"/>
<text text-anchor="middle" x="2008" y="-269.15" font-family="Arial" font-size="14.00">Iron Fist</text>
<text text-anchor="middle" x="2008" y="-254.15" font-family="Arial" font-size="14.00">Season 2</text>
</g>
<!-- ironfist2&#45;&gt;defenders -->
<g id="edge50" class="edge">
<title>ironfist2&#45;&gt;defenders</title>
<path fill="none" stroke="black" d="M1989.88,-284.77C1972.95,-301.98 1947.53,-327.83 1928.74,-346.94"/>
<polygon fill="black" stroke="black" points="1926.45,-344.27 1921.94,-353.85 1931.44,-349.18 1926.45,-344.27"/>
</g>
<!-- daredevil3&#45;&gt;defenders -->
<g id="edge47" class="edge">
<title>daredevil3&#45;&gt;defenders</title>
<path fill="none" stroke="black" d="M1713.7,-284.77C1718.46,-287.33 1723.34,-289.88 1728,-292.22 1769.64,-313.09 1817.86,-334.81 1853.29,-350.32"/>
<polygon fill="black" stroke="black" points="1851.44,-353.33 1862,-354.12 1854.24,-346.91 1851.44,-353.33"/>
</g>
<!-- punisher2 -->
<g id="node63" class="node">
<title>punisher2</title>
<polygon fill="none" stroke="blue" points="1952.5,-176.61 1855.5,-176.61 1855.5,-138.61 1952.5,-138.61 1952.5,-176.61"/>
<text text-anchor="middle" x="1904" y="-161.41" font-family="Arial" font-size="14.00">The Punisher</text>
<text text-anchor="middle" x="1904" y="-146.41" font-family="Arial" font-size="14.00">Season 2</text>
</g>
<!-- punisher2&#45;&gt;punisher1 -->
<g id="edge52" class="edge">
<title>punisher2&#45;&gt;punisher1</title>
<path fill="none" stroke="black" d="M1904,-177.03C1904,-192.95 1904,-216.25 1904,-234.78"/>
<polygon fill="black" stroke="black" points="1900.5,-234.63 1904,-244.63 1907.5,-234.63 1900.5,-234.63"/>
</g>
<!-- jjones3 -->
<g id="node64" class="node">
<title>jjones3</title>
<polygon fill="none" stroke="blue" points="1837.5,-176.61 1736.5,-176.61 1736.5,-138.61 1837.5,-138.61 1837.5,-176.61"/>
<text text-anchor="middle" x="1787" y="-161.41" font-family="Arial" font-size="14.00">Jessica Jones</text>
<text text-anchor="middle" x="1787" y="-146.41" font-family="Arial" font-size="14.00">Season 3</text>
</g>
<!-- jjones3&#45;&gt;jjones2 -->
<g id="edge53" class="edge">
<title>jjones3&#45;&gt;jjones2</title>
<path fill="none" stroke="black" d="M1787,-177.03C1787,-192.95 1787,-216.25 1787,-234.78"/>
<polygon fill="black" stroke="black" points="1783.5,-234.63 1787,-244.63 1790.5,-234.63 1783.5,-234.63"/>
</g>
</g>
</svg>
