<?xml version="1.0" encoding="UTF-8" standalone="no"?>
<!DOCTYPE svg PUBLIC "-//W3C//DTD SVG 1.1//EN"
 "http://www.w3.org/Graphics/SVG/1.1/DTD/svg11.dtd">
<!-- Generated by graphviz version 7.0.1 (20221109.1506)
 -->
<!-- Title: mcu Pages: 1 -->
<svg width="2352pt" height="1021pt"
 viewBox="0.00 0.00 2352.00 1020.92" xmlns="http://www.w3.org/2000/svg" xmlns:xlink="http://www.w3.org/1999/xlink">
<g id="graph0" class="graph" transform="scale(1 1) rotate(0) translate(4 1016.92)">
<title>mcu</title>
<polygon fill="white" stroke="none" points="-4,4 -4,-1016.92 2348,-1016.92 2348,4 -4,4"/>
<text text-anchor="middle" x="1172" y="-7.8" font-family="Arial" font-size="14.00">Marvel Cinematic Universe Dependency Chart</text>
<g id="clust1" class="cluster">
<title>cluster_oddball</title>
</g>
<g id="clust2" class="cluster">
<title>cluster_defenders</title>
</g>
<!-- ironman1 -->
<g id="node1" class="node">
<title>ironman1</title>
<ellipse fill="none" stroke="red" stroke-width="5" cx="1408" cy="-994.92" rx="46.29" ry="18"/>
<text text-anchor="middle" x="1408" y="-991.22" font-family="Arial" font-size="14.00">Iron Man</text>
</g>
<!-- thehulk -->
<g id="node2" class="node">
<title>thehulk</title>
<ellipse fill="none" stroke="red" stroke-width="5" cx="1175" cy="-896.05" rx="86.38" ry="18"/>
<text text-anchor="middle" x="1175" y="-892.35" font-family="Arial" font-size="14.00">The Incredible Hulk</text>
</g>
<!-- ironman2 -->
<g id="node3" class="node">
<title>ironman2</title>
<ellipse fill="none" stroke="red" cx="1408" cy="-896.05" rx="53.09" ry="18"/>
<text text-anchor="middle" x="1408" y="-892.35" font-family="Arial" font-size="14.00">Iron Man 2</text>
</g>
<!-- ironman2&#45;&gt;ironman1 -->
<g id="edge1" class="edge">
<title>ironman2&#45;&gt;ironman1</title>
<path fill="none" stroke="black" d="M1408,-914.37C1408,-927.94 1408,-947.18 1408,-963.33"/>
<polygon fill="black" stroke="black" points="1404.5,-962.91 1408,-972.91 1411.5,-962.91 1404.5,-962.91"/>
</g>
<!-- capamerica1 -->
<g id="node4" class="node">
<title>capamerica1</title>
<ellipse fill="none" stroke="red" stroke-width="5" cx="1675" cy="-896.05" rx="87.86" ry="26.74"/>
<text text-anchor="middle" x="1675" y="-899.85" font-family="Arial" font-size="14.00">Captain America:</text>
<text text-anchor="middle" x="1675" y="-884.85" font-family="Arial" font-size="14.00">The First Avenger</text>
</g>
<!-- thor1 -->
<g id="node5" class="node">
<title>thor1</title>
<ellipse fill="none" stroke="red" stroke-width="5" cx="1308" cy="-896.05" rx="28.7" ry="18"/>
<text text-anchor="middle" x="1308" y="-892.35" font-family="Arial" font-size="14.00">Thor</text>
</g>
<!-- avengers -->
<g id="node6" class="node">
<title>avengers</title>
<ellipse fill="none" stroke="red" cx="1308" cy="-796.18" rx="65.79" ry="18"/>
<text text-anchor="middle" x="1308" y="-792.48" font-family="Arial" font-size="14.00">The Avengers</text>
</g>
<!-- avengers&#45;&gt;thehulk -->
<g id="edge5" class="edge">
<title>avengers&#45;&gt;thehulk</title>
<path fill="none" stroke="black" d="M1285.74,-813.56C1264.85,-828.93 1233.3,-852.15 1209.21,-869.88"/>
<polygon fill="black" stroke="black" points="1207.25,-866.97 1201.27,-875.72 1211.4,-872.61 1207.25,-866.97"/>
</g>
<!-- avengers&#45;&gt;ironman2 -->
<g id="edge2" class="edge">
<title>avengers&#45;&gt;ironman2</title>
<path fill="none" stroke="black" d="M1324.96,-813.78C1341.01,-829.48 1365.26,-853.22 1383.42,-871"/>
<polygon fill="black" stroke="black" points="1380.61,-873.14 1390.21,-877.64 1385.51,-868.14 1380.61,-873.14"/>
</g>
<!-- avengers&#45;&gt;capamerica1 -->
<g id="edge4" class="edge">
<title>avengers&#45;&gt;capamerica1</title>
<path fill="none" stroke="black" d="M1353.74,-809.38C1414.33,-825.54 1522.13,-854.28 1596.02,-873.99"/>
<polygon fill="black" stroke="black" points="1595.09,-877.36 1605.66,-876.56 1596.9,-870.6 1595.09,-877.36"/>
</g>
<!-- avengers&#45;&gt;thor1 -->
<g id="edge3" class="edge">
<title>avengers&#45;&gt;thor1</title>
<path fill="none" stroke="black" d="M1308,-814.68C1308,-828.48 1308,-848.07 1308,-864.46"/>
<polygon fill="black" stroke="black" points="1304.5,-864.18 1308,-874.18 1311.5,-864.18 1304.5,-864.18"/>
</g>
<!-- ironman3 -->
<g id="node7" class="node">
<title>ironman3</title>
<ellipse fill="none" stroke="orange" cx="1136" cy="-696.31" rx="53.09" ry="18"/>
<text text-anchor="middle" x="1136" y="-692.61" font-family="Arial" font-size="14.00">Iron Man 3</text>
</g>
<!-- ironman3&#45;&gt;avengers -->
<g id="edge6" class="edge">
<title>ironman3&#45;&gt;avengers</title>
<path fill="none" stroke="black" d="M1162.5,-712.39C1191.45,-728.86 1238.04,-755.37 1270.68,-773.95"/>
<polygon fill="black" stroke="black" points="1268.59,-776.79 1279.02,-778.69 1272.06,-770.7 1268.59,-776.79"/>
</g>
<!-- thor2 -->
<g id="node8" class="node">
<title>thor2</title>
<ellipse fill="none" stroke="orange" cx="588" cy="-696.31" rx="77.19" ry="18"/>
<text text-anchor="middle" x="588" y="-692.61" font-family="Arial" font-size="14.00">Thor: Dark World</text>
</g>
<!-- thor2&#45;&gt;avengers -->
<g id="edge7" class="edge">
<title>thor2&#45;&gt;avengers</title>
<path fill="none" stroke="black" d="M651.82,-706.78C685.73,-711.76 728.11,-717.91 766,-723.18 935.46,-746.75 1134.98,-772.82 1238.22,-786.19"/>
<polygon fill="black" stroke="black" points="1237.55,-789.63 1247.92,-787.44 1238.45,-782.69 1237.55,-789.63"/>
</g>
<!-- capamerica2 -->
<g id="node9" class="node">
<title>capamerica2</title>
<ellipse fill="none" stroke="orange" cx="1308" cy="-696.31" rx="101.23" ry="26.74"/>
<text text-anchor="middle" x="1308" y="-700.11" font-family="Arial" font-size="14.00">Captain America and</text>
<text text-anchor="middle" x="1308" y="-685.11" font-family="Arial" font-size="14.00">the Winter Soldier</text>
</g>
<!-- capamerica2&#45;&gt;avengers -->
<g id="edge8" class="edge">
<title>capamerica2&#45;&gt;avengers</title>
<path fill="none" stroke="black" d="M1308,-723.54C1308,-736.85 1308,-753.05 1308,-766.67"/>
<polygon fill="black" stroke="black" points="1304.5,-766.33 1308,-776.33 1311.5,-766.33 1304.5,-766.33"/>
</g>
<!-- guardians1 -->
<g id="node10" class="node">
<title>guardians1</title>
<ellipse fill="none" stroke="orange" stroke-width="5" cx="948" cy="-696.31" rx="106.68" ry="18"/>
<text text-anchor="middle" x="948" y="-692.61" font-family="Arial" font-size="14.00">Guardians of the Galaxy</text>
</g>
<!-- ageofultron -->
<g id="node11" class="node">
<title>ageofultron</title>
<ellipse fill="none" stroke="orange" cx="1501" cy="-696.31" rx="73.58" ry="26.74"/>
<text text-anchor="middle" x="1501" y="-700.11" font-family="Arial" font-size="14.00">The Avengers:</text>
<text text-anchor="middle" x="1501" y="-685.11" font-family="Arial" font-size="14.00">Age of Ultron</text>
</g>
<!-- ageofultron&#45;&gt;avengers -->
<g id="edge10" class="edge">
<title>ageofultron&#45;&gt;avengers</title>
<path fill="none" stroke="black" d="M1459.12,-718.55C1426.31,-735.19 1380.93,-758.2 1348.48,-774.65"/>
<polygon fill="black" stroke="black" points="1347.12,-771.42 1339.78,-779.06 1350.29,-777.66 1347.12,-771.42"/>
</g>
<!-- antman -->
<g id="node12" class="node">
<title>antman</title>
<ellipse fill="none" stroke="orange" stroke-width="5" cx="1637" cy="-696.31" rx="44.39" ry="18"/>
<text text-anchor="middle" x="1637" y="-692.61" font-family="Arial" font-size="14.00">Ant&#45;Man</text>
</g>
<!-- civilwar -->
<g id="node13" class="node">
<title>civilwar</title>
<ellipse fill="none" stroke="purple" cx="1607" cy="-588.57" rx="73.58" ry="26.74"/>
<text text-anchor="middle" x="1607" y="-592.37" font-family="Arial" font-size="14.00">The Avengers:</text>
<text text-anchor="middle" x="1607" y="-577.37" font-family="Arial" font-size="14.00">Civil War</text>
</g>
<!-- civilwar&#45;&gt;capamerica2 -->
<g id="edge11" class="edge">
<title>civilwar&#45;&gt;capamerica2</title>
<path fill="none" stroke="black" d="M1555.26,-607.87C1506.29,-625.19 1432.41,-651.32 1378.15,-670.5"/>
<polygon fill="black" stroke="black" points="1377.26,-667.1 1369,-673.74 1379.6,-673.7 1377.26,-667.1"/>
</g>
<!-- civilwar&#45;&gt;ageofultron -->
<g id="edge12" class="edge">
<title>civilwar&#45;&gt;ageofultron</title>
<path fill="none" stroke="black" d="M1582.42,-614.1C1567.83,-628.64 1549.18,-647.25 1533.4,-662.99"/>
<polygon fill="black" stroke="black" points="1531.13,-660.31 1526.52,-669.85 1536.07,-665.27 1531.13,-660.31"/>
</g>
<!-- civilwar&#45;&gt;antman -->
<g id="edge13" class="edge">
<title>civilwar&#45;&gt;antman</title>
<path fill="none" stroke="black" d="M1614.34,-615.44C1618.61,-630.49 1624.01,-649.54 1628.47,-665.26"/>
<polygon fill="black" stroke="black" points="1625.01,-665.89 1631.11,-674.56 1631.75,-663.98 1625.01,-665.89"/>
</g>
<!-- docstrange -->
<g id="node14" class="node">
<title>docstrange</title>
<ellipse fill="none" stroke="purple" stroke-width="5" cx="429" cy="-588.57" rx="69.59" ry="18"/>
<text text-anchor="middle" x="429" y="-584.87" font-family="Arial" font-size="14.00">Doctor Strange</text>
</g>
<!-- guardians2 -->
<g id="node15" class="node">
<title>guardians2</title>
<ellipse fill="none" stroke="purple" cx="948" cy="-588.57" rx="113.98" ry="18"/>
<text text-anchor="middle" x="948" y="-584.87" font-family="Arial" font-size="14.00">Guardians of the Galaxy 2</text>
</g>
<!-- guardians2&#45;&gt;guardians1 -->
<g id="edge14" class="edge">
<title>guardians2&#45;&gt;guardians1</title>
<path fill="none" stroke="black" d="M948,-607.03C948,-622.7 948,-646.04 948,-664.78"/>
<polygon fill="black" stroke="black" points="944.5,-664.52 948,-674.52 951.5,-664.52 944.5,-664.52"/>
</g>
<!-- spidey1 -->
<g id="node16" class="node">
<title>spidey1</title>
<ellipse fill="none" stroke="purple" cx="747" cy="-588.57" rx="69.09" ry="26.74"/>
<text text-anchor="middle" x="747" y="-592.37" font-family="Arial" font-size="14.00">Spider&#45;Man:</text>
<text text-anchor="middle" x="747" y="-577.37" font-family="Arial" font-size="14.00">Homecoming</text>
</g>
<!-- spidey1&#45;&gt;avengers -->
<g id="edge9" class="edge">
<title>spidey1&#45;&gt;avengers</title>
<path fill="none" stroke="black" d="M755.86,-615.49C767.91,-646.53 792.6,-697.53 832,-723.18 896.56,-765.22 1115,-784.05 1232.2,-791.3"/>
<polygon fill="black" stroke="black" points="1231.86,-794.78 1242.05,-791.89 1232.28,-787.8 1231.86,-794.78"/>
</g>
<!-- thor3 -->
<g id="node17" class="node">
<title>thor3</title>
<ellipse fill="none" stroke="purple" cx="588" cy="-588.57" rx="71.49" ry="18"/>
<text text-anchor="middle" x="588" y="-584.87" font-family="Arial" font-size="14.00">Thor: Ragnorok</text>
</g>
<!-- thor3&#45;&gt;thor2 -->
<g id="edge15" class="edge">
<title>thor3&#45;&gt;thor2</title>
<path fill="none" stroke="black" d="M588,-607.03C588,-623.18 588,-647.48 588,-666.51"/>
<polygon fill="black" stroke="black" points="584.5,-666.31 588,-676.31 591.5,-666.31 584.5,-666.31"/>
</g>
<!-- bpanther1 -->
<g id="node18" class="node">
<title>bpanther1</title>
<ellipse fill="none" stroke="purple" stroke-width="5" cx="171" cy="-480.83" rx="65.79" ry="18"/>
<text text-anchor="middle" x="171" y="-477.13" font-family="Arial" font-size="14.00">Black Panther</text>
</g>
<!-- bpanther2 -->
<g id="node19" class="node">
<title>bpanther2</title>
<ellipse fill="none" stroke="blue" cx="113" cy="-373.09" rx="87.86" ry="26.74"/>
<text text-anchor="middle" x="113" y="-376.89" font-family="Arial" font-size="14.00">Black Panther 2:</text>
<text text-anchor="middle" x="113" y="-361.89" font-family="Arial" font-size="14.00">Wakanda Forever</text>
</g>
<!-- bpanther2&#45;&gt;bpanther1 -->
<g id="edge29" class="edge">
<title>bpanther2&#45;&gt;bpanther1</title>
<path fill="none" stroke="black" d="M127.19,-399.96C135.66,-415.41 146.44,-435.06 155.19,-451"/>
<polygon fill="black" stroke="black" points="151.99,-452.45 159.87,-459.54 158.13,-449.09 151.99,-452.45"/>
</g>
<!-- whatif1 -->
<g id="node20" class="node">
<title>whatif1</title>
<polygon fill="none" stroke="blue" points="293.5,-392.09 218.5,-392.09 218.5,-354.09 293.5,-354.09 293.5,-392.09"/>
<text text-anchor="middle" x="256" y="-376.89" font-family="Arial" font-size="14.00">What If..?</text>
<text text-anchor="middle" x="256" y="-361.89" font-family="Arial" font-size="14.00">Season 1</text>
</g>
<!-- whatif1&#45;&gt;bpanther1 -->
<g id="edge31" class="edge">
<title>whatif1&#45;&gt;bpanther1</title>
<path fill="none" stroke="black" d="M241.19,-392.51C227.95,-408.98 208.35,-433.36 193.23,-452.18"/>
<polygon fill="black" stroke="black" points="190.69,-449.74 187.16,-459.73 196.15,-454.13 190.69,-449.74"/>
</g>
<!-- infinitywar -->
<g id="node22" class="node">
<title>infinitywar</title>
<ellipse fill="none" stroke="purple" cx="747" cy="-480.83" rx="73.58" ry="26.74"/>
<text text-anchor="middle" x="747" y="-484.63" font-family="Arial" font-size="14.00">The Avengers:</text>
<text text-anchor="middle" x="747" y="-469.63" font-family="Arial" font-size="14.00">Infinity War</text>
</g>
<!-- whatif1&#45;&gt;infinitywar -->
<g id="edge30" class="edge">
<title>whatif1&#45;&gt;infinitywar</title>
<path fill="none" stroke="black" d="M293.71,-382.21C374.94,-399.7 567.62,-441.2 673.75,-464.05"/>
<polygon fill="black" stroke="black" points="672.69,-467.41 683.2,-466.09 674.16,-460.56 672.69,-467.41"/>
</g>
<!-- whatif2 -->
<g id="node21" class="node">
<title>whatif2</title>
<polygon fill="none" stroke="green" points="294.5,-284.35 215.5,-284.35 215.5,-246.35 294.5,-246.35 294.5,-284.35"/>
<text text-anchor="middle" x="255" y="-269.15" font-family="Arial" font-size="14.00">What If...?</text>
<text text-anchor="middle" x="255" y="-254.15" font-family="Arial" font-size="14.00">Season 2</text>
</g>
<!-- whatif2&#45;&gt;whatif1 -->
<g id="edge32" class="edge">
<title>whatif2&#45;&gt;whatif1</title>
<path fill="none" stroke="black" d="M255.17,-284.77C255.32,-300.69 255.55,-323.99 255.72,-342.52"/>
<polygon fill="black" stroke="black" points="252.22,-342.4 255.81,-352.37 259.22,-342.34 252.22,-342.4"/>
</g>
<!-- infinitywar&#45;&gt;civilwar -->
<g id="edge17" class="edge">
<title>infinitywar&#45;&gt;civilwar</title>
<path fill="none" stroke="black" d="M820.42,-484.4C959.32,-490.35 1269.54,-508.86 1525,-561.7 1531.27,-563 1537.75,-564.59 1544.18,-566.34"/>
<polygon fill="black" stroke="black" points="1542.89,-569.61 1553.47,-568.99 1544.81,-562.88 1542.89,-569.61"/>
</g>
<!-- infinitywar&#45;&gt;docstrange -->
<g id="edge19" class="edge">
<title>infinitywar&#45;&gt;docstrange</title>
<path fill="none" stroke="black" d="M693.77,-499.53C635.68,-518.85 543.12,-549.62 484.24,-569.2"/>
<polygon fill="black" stroke="black" points="483.48,-565.77 475.09,-572.24 485.69,-572.41 483.48,-565.77"/>
</g>
<!-- infinitywar&#45;&gt;guardians2 -->
<g id="edge20" class="edge">
<title>infinitywar&#45;&gt;guardians2</title>
<path fill="none" stroke="black" d="M787.68,-503.23C822.23,-521.41 871.63,-547.4 906.44,-565.71"/>
<polygon fill="black" stroke="black" points="904.47,-568.63 914.95,-570.19 907.73,-562.43 904.47,-568.63"/>
</g>
<!-- infinitywar&#45;&gt;spidey1 -->
<g id="edge23" class="edge">
<title>infinitywar&#45;&gt;spidey1</title>
<path fill="none" stroke="black" d="M747,-507.97C747,-520.68 747,-536.18 747,-550.12"/>
<polygon fill="black" stroke="black" points="743.5,-549.85 747,-559.85 750.5,-549.85 743.5,-549.85"/>
</g>
<!-- infinitywar&#45;&gt;thor3 -->
<g id="edge16" class="edge">
<title>infinitywar&#45;&gt;thor3</title>
<path fill="none" stroke="black" d="M712.5,-504.77C685.66,-522.63 648.61,-547.27 621.91,-565.02"/>
<polygon fill="black" stroke="black" points="620.23,-561.93 613.85,-570.38 624.11,-567.76 620.23,-561.93"/>
</g>
<!-- antman2 -->
<g id="node23" class="node">
<title>antman2</title>
<ellipse fill="none" stroke="purple" cx="982" cy="-373.09" rx="100.98" ry="18"/>
<text text-anchor="middle" x="982" y="-369.39" font-family="Arial" font-size="14.00">Ant&#45;Man and the Wasp</text>
</g>
<!-- antman2&#45;&gt;infinitywar -->
<g id="edge33" class="edge">
<title>antman2&#45;&gt;infinitywar</title>
<path fill="none" stroke="black" d="M946.05,-390.27C907.84,-407.46 846.93,-434.87 802.54,-454.84"/>
<polygon fill="black" stroke="black" points="801.27,-451.57 793.58,-458.87 804.14,-457.96 801.27,-451.57"/>
</g>
<!-- capmarvel -->
<g id="node24" class="node">
<title>capmarvel</title>
<ellipse fill="none" stroke="purple" cx="1527" cy="-373.09" rx="70.39" ry="18"/>
<text text-anchor="middle" x="1527" y="-369.39" font-family="Arial" font-size="14.00">Captain Marvel</text>
</g>
<!-- capmarvel&#45;&gt;avengers -->
<g id="edge21" class="edge">
<title>capmarvel&#45;&gt;avengers</title>
<path fill="none" stroke="black" d="M1546.52,-390.67C1606.89,-443.88 1781.15,-613.25 1690,-723.18 1651.89,-769.14 1483.99,-785.96 1383.91,-791.97"/>
<polygon fill="black" stroke="black" points="1383.94,-788.46 1374.16,-792.53 1384.35,-795.45 1383.94,-788.46"/>
</g>
<!-- endgame -->
<g id="node25" class="node">
<title>endgame</title>
<ellipse fill="none" stroke="purple" cx="1216" cy="-265.35" rx="73.58" ry="26.74"/>
<text text-anchor="middle" x="1216" y="-269.15" font-family="Arial" font-size="14.00">The Avengers:</text>
<text text-anchor="middle" x="1216" y="-254.15" font-family="Arial" font-size="14.00">Endgame</text>
</g>
<!-- endgame&#45;&gt;antman2 -->
<g id="edge34" class="edge">
<title>endgame&#45;&gt;antman2</title>
<path fill="none" stroke="black" d="M1170.6,-286.86C1129.52,-305.43 1069.31,-332.64 1028.03,-351.29"/>
<polygon fill="black" stroke="black" points="1026.76,-348.02 1019.09,-355.33 1029.64,-354.4 1026.76,-348.02"/>
</g>
<!-- endgame&#45;&gt;capmarvel -->
<g id="edge22" class="edge">
<title>endgame&#45;&gt;capmarvel</title>
<path fill="none" stroke="black" d="M1268.76,-284.29C1326.39,-303.88 1418.11,-335.07 1475.31,-354.52"/>
<polygon fill="black" stroke="black" points="1473.9,-357.73 1484.49,-357.64 1476.15,-351.11 1473.9,-357.73"/>
</g>
<!-- spidey2 -->
<g id="node26" class="node">
<title>spidey2</title>
<ellipse fill="none" stroke="purple" cx="863" cy="-157.61" rx="79.81" ry="26.74"/>
<text text-anchor="middle" x="863" y="-161.41" font-family="Arial" font-size="14.00">Spider&#45;Man:</text>
<text text-anchor="middle" x="863" y="-146.41" font-family="Arial" font-size="14.00">Far From Home</text>
</g>
<!-- spidey2&#45;&gt;endgame -->
<g id="edge24" class="edge">
<title>spidey2&#45;&gt;endgame</title>
<path fill="none" stroke="black" d="M921.69,-176.19C984.46,-194.99 1083.81,-224.75 1149.45,-244.42"/>
<polygon fill="black" stroke="black" points="1148.06,-247.65 1158.64,-247.17 1150.06,-240.95 1148.06,-247.65"/>
</g>
<!-- wandavision -->
<g id="node27" class="node">
<title>wandavision</title>
<polygon fill="none" stroke="blue" points="663,-175.61 567,-175.61 567,-139.61 663,-139.61 663,-175.61"/>
<text text-anchor="middle" x="615" y="-153.91" font-family="Arial" font-size="14.00">WandaVision</text>
</g>
<!-- wandavision&#45;&gt;endgame -->
<g id="edge26" class="edge">
<title>wandavision&#45;&gt;endgame</title>
<path fill="none" stroke="black" d="M649.38,-176.07C656.7,-179.26 664.49,-182.27 672,-184.48 830.77,-231.15 1023.98,-251.24 1132.18,-259.35"/>
<polygon fill="black" stroke="black" points="1131.6,-262.81 1141.83,-260.05 1132.11,-255.83 1131.6,-262.81"/>
</g>
<!-- falcon -->
<g id="node28" class="node">
<title>falcon</title>
<polygon fill="none" stroke="blue" points="1093.5,-176.61 960.5,-176.61 960.5,-138.61 1093.5,-138.61 1093.5,-176.61"/>
<text text-anchor="middle" x="1027" y="-161.41" font-family="Arial" font-size="14.00">The Falcon and the</text>
<text text-anchor="middle" x="1027" y="-146.41" font-family="Arial" font-size="14.00">Winter Soldier</text>
</g>
<!-- falcon&#45;&gt;endgame -->
<g id="edge63" class="edge">
<title>falcon&#45;&gt;endgame</title>
<path fill="none" stroke="black" d="M1059.92,-177.03C1089.47,-193.56 1133.25,-218.06 1166.93,-236.9"/>
<polygon fill="black" stroke="black" points="1164.83,-239.73 1175.27,-241.56 1168.25,-233.62 1164.83,-239.73"/>
</g>
<!-- loki1 -->
<g id="node29" class="node">
<title>loki1</title>
<polygon fill="none" stroke="blue" points="367,-283.35 313,-283.35 313,-247.35 367,-247.35 367,-283.35"/>
<text text-anchor="middle" x="340" y="-261.65" font-family="Arial" font-size="14.00">Loki</text>
</g>
<!-- loki1&#45;&gt;thor2 -->
<g id="edge55" class="edge">
<title>loki1&#45;&gt;thor2</title>
<path fill="none" stroke="black" d="M337.99,-283.64C331.06,-346.57 310.62,-562.47 350,-615.57 384.9,-662.63 448.78,-682.25 501.57,-690.28"/>
<polygon fill="black" stroke="black" points="500.77,-693.7 511.16,-691.61 501.74,-686.77 500.77,-693.7"/>
</g>
<!-- bwidow -->
<g id="node30" class="node">
<title>bwidow</title>
<ellipse fill="none" stroke="blue" cx="1747" cy="-265.35" rx="61.99" ry="18"/>
<text text-anchor="middle" x="1747" y="-261.65" font-family="Arial" font-size="14.00">Black Widow</text>
</g>
<!-- bwidow&#45;&gt;civilwar -->
<g id="edge18" class="edge">
<title>bwidow&#45;&gt;civilwar</title>
<path fill="none" stroke="black" d="M1739.47,-283.62C1717.42,-334.21 1652.65,-482.84 1622.62,-551.74"/>
<polygon fill="black" stroke="black" points="1619.5,-550.14 1618.71,-560.7 1625.91,-552.93 1619.5,-550.14"/>
</g>
<!-- shangchi -->
<g id="node31" class="node">
<title>shangchi</title>
<ellipse fill="none" stroke="blue" cx="1214" cy="-588.57" rx="134.2" ry="26.74"/>
<text text-anchor="middle" x="1214" y="-592.37" font-family="Arial" font-size="14.00">Shang&#45;Chi:</text>
<text text-anchor="middle" x="1214" y="-577.37" font-family="Arial" font-size="14.00">The Legend of the Ten Rings</text>
</g>
<!-- shangchi&#45;&gt;ironman3 -->
<g id="edge40" class="edge">
<title>shangchi&#45;&gt;ironman3</title>
<path fill="none" stroke="black" d="M1194.92,-615.44C1182.78,-631.9 1167.12,-653.12 1155,-669.56"/>
<polygon fill="black" stroke="black" points="1152.34,-667.27 1149.22,-677.39 1157.97,-671.42 1152.34,-667.27"/>
</g>
<!-- eternals -->
<g id="node32" class="node">
<title>eternals</title>
<ellipse fill="none" stroke="blue" cx="1880" cy="-49.87" rx="60.39" ry="18"/>
<text text-anchor="middle" x="1880" y="-46.17" font-family="Arial" font-size="14.00">The Eternals</text>
</g>
<!-- hawkeye -->
<g id="node33" class="node">
<title>hawkeye</title>
<polygon fill="none" stroke="blue" points="1811,-175.61 1739,-175.61 1739,-139.61 1811,-139.61 1811,-175.61"/>
<text text-anchor="middle" x="1775" y="-153.91" font-family="Arial" font-size="14.00">Hawkeye</text>
</g>
<!-- hawkeye&#45;&gt;endgame -->
<g id="edge56" class="edge">
<title>hawkeye&#45;&gt;endgame</title>
<path fill="none" stroke="black" d="M1748.65,-175.89C1742.71,-179.17 1736.29,-182.27 1730,-184.48 1584.44,-235.63 1404.24,-254.08 1300.46,-260.7"/>
<polygon fill="black" stroke="black" points="1300.4,-257.2 1290.63,-261.3 1300.83,-264.18 1300.4,-257.2"/>
</g>
<!-- hawkeye&#45;&gt;bwidow -->
<g id="edge58" class="edge">
<title>hawkeye&#45;&gt;bwidow</title>
<path fill="none" stroke="black" d="M1770.38,-176.07C1766.05,-192.39 1759.53,-217.05 1754.47,-236.16"/>
<polygon fill="black" stroke="black" points="1751.1,-235.19 1751.93,-245.75 1757.87,-236.98 1751.1,-235.19"/>
</g>
<!-- daredevil3 -->
<g id="node62" class="node">
<title>daredevil3</title>
<polygon fill="none" stroke="blue" points="2093,-284.35 2019,-284.35 2019,-246.35 2093,-246.35 2093,-284.35"/>
<text text-anchor="middle" x="2056" y="-269.15" font-family="Arial" font-size="14.00">Daredevil</text>
<text text-anchor="middle" x="2056" y="-254.15" font-family="Arial" font-size="14.00">Season 3</text>
</g>
<!-- hawkeye&#45;&gt;daredevil3 -->
<g id="edge57" class="edge">
<title>hawkeye&#45;&gt;daredevil3</title>
<path fill="none" stroke="black" d="M1798.24,-175.93C1803.53,-179.21 1809.28,-182.29 1815,-184.48 1896.95,-215.85 1932.45,-174.29 2010,-215.35 2020,-220.64 2029.02,-228.95 2036.37,-237.24"/>
<polygon fill="black" stroke="black" points="2033.63,-239.42 2042.7,-244.9 2039.03,-234.96 2033.63,-239.42"/>
</g>
<!-- spidey3 -->
<g id="node34" class="node">
<title>spidey3</title>
<ellipse fill="none" stroke="blue" cx="875" cy="-49.87" rx="74.49" ry="26.74"/>
<text text-anchor="middle" x="875" y="-53.67" font-family="Arial" font-size="14.00">Spider&#45;Man:</text>
<text text-anchor="middle" x="875" y="-38.67" font-family="Arial" font-size="14.00">No Way Home</text>
</g>
<!-- spidey3&#45;&gt;spidey2 -->
<g id="edge25" class="edge">
<title>spidey3&#45;&gt;spidey2</title>
<path fill="none" stroke="black" d="M872.03,-77.01C870.59,-89.72 868.83,-105.22 867.25,-119.16"/>
<polygon fill="black" stroke="black" points="863.79,-118.57 866.14,-128.9 870.75,-119.36 863.79,-118.57"/>
</g>
<!-- moonknight -->
<g id="node35" class="node">
<title>moonknight</title>
<polygon fill="none" stroke="blue" points="2051.5,-67.87 1958.5,-67.87 1958.5,-31.87 2051.5,-31.87 2051.5,-67.87"/>
<text text-anchor="middle" x="2005" y="-46.17" font-family="Arial" font-size="14.00">Moon Knight</text>
</g>
<!-- docstrange2 -->
<g id="node36" class="node">
<title>docstrange2</title>
<ellipse fill="none" stroke="blue" cx="537" cy="-49.87" rx="108.38" ry="26.74"/>
<text text-anchor="middle" x="537" y="-53.67" font-family="Arial" font-size="14.00">Doctor Strange 2:</text>
<text text-anchor="middle" x="537" y="-38.67" font-family="Arial" font-size="14.00">Multiverse of Madness</text>
</g>
<!-- docstrange2&#45;&gt;wandavision -->
<g id="edge28" class="edge">
<title>docstrange2&#45;&gt;wandavision</title>
<path fill="none" stroke="black" d="M555.88,-76.47C567.87,-92.71 583.34,-113.69 595.45,-130.11"/>
<polygon fill="black" stroke="black" points="592.49,-131.99 601.25,-137.96 598.13,-127.84 592.49,-131.99"/>
</g>
<!-- msmarvel -->
<g id="node37" class="node">
<title>msmarvel</title>
<polygon fill="none" stroke="blue" points="765,-175.61 681,-175.61 681,-139.61 765,-139.61 765,-175.61"/>
<text text-anchor="middle" x="723" y="-153.91" font-family="Arial" font-size="14.00">Ms. Marvel</text>
</g>
<!-- thor4 -->
<g id="node38" class="node">
<title>thor4</title>
<ellipse fill="none" stroke="blue" cx="1216" cy="-157.61" rx="104.78" ry="18"/>
<text text-anchor="middle" x="1216" y="-153.91" font-family="Arial" font-size="14.00">Thor: Love and Thunder</text>
</g>
<!-- thor4&#45;&gt;endgame -->
<g id="edge64" class="edge">
<title>thor4&#45;&gt;endgame</title>
<path fill="none" stroke="black" d="M1216,-176.07C1216,-189.8 1216,-209.42 1216,-226.67"/>
<polygon fill="black" stroke="black" points="1212.5,-226.63 1216,-236.63 1219.5,-226.63 1212.5,-226.63"/>
</g>
<!-- shehulk -->
<g id="node39" class="node">
<title>shehulk</title>
<polygon fill="none" stroke="blue" points="1721,-175.61 1649,-175.61 1649,-139.61 1721,-139.61 1721,-175.61"/>
<text text-anchor="middle" x="1685" y="-153.91" font-family="Arial" font-size="14.00">She&#45;Hulk</text>
</g>
<!-- shehulk&#45;&gt;endgame -->
<g id="edge59" class="edge">
<title>shehulk&#45;&gt;endgame</title>
<path fill="none" stroke="black" d="M1658.11,-176.01C1652.31,-179.2 1646.09,-182.23 1640,-184.48 1525.86,-226.66 1385.83,-247.47 1298.74,-257.05"/>
<polygon fill="black" stroke="black" points="1298.42,-253.56 1288.85,-258.11 1299.16,-260.52 1298.42,-253.56"/>
</g>
<!-- shehulk&#45;&gt;daredevil3 -->
<g id="edge60" class="edge">
<title>shehulk&#45;&gt;daredevil3</title>
<path fill="none" stroke="black" d="M1711.28,-176.1C1717.23,-179.37 1723.66,-182.41 1730,-184.48 1849.01,-223.36 1898,-159.39 2010,-215.35 2020.38,-220.54 2029.64,-229.09 2037.08,-237.61"/>
<polygon fill="black" stroke="black" points="2034.18,-239.59 2043.19,-245.16 2039.62,-235.18 2034.18,-239.59"/>
</g>
<!-- werewolf -->
<g id="node40" class="node">
<title>werewolf</title>
<polygon fill="none" stroke="blue" points="2196,-67.87 2070,-67.87 2070,-31.87 2196,-31.87 2196,-67.87"/>
<text text-anchor="middle" x="2133" y="-46.17" font-family="Arial" font-size="14.00">Werewolf by Night</text>
</g>
<!-- guardiansxmas -->
<g id="node41" class="node">
<title>guardiansxmas</title>
<polygon fill="none" stroke="blue" points="1631,-176.61 1467,-176.61 1467,-138.61 1631,-138.61 1631,-176.61"/>
<text text-anchor="middle" x="1549" y="-161.41" font-family="Arial" font-size="14.00">Guardians of the Galaxy</text>
<text text-anchor="middle" x="1549" y="-146.41" font-family="Arial" font-size="14.00">Christmas Special</text>
</g>
<!-- guardiansxmas&#45;&gt;endgame -->
<g id="edge65" class="edge">
<title>guardiansxmas&#45;&gt;endgame</title>
<path fill="none" stroke="black" d="M1491,-177.03C1432.46,-195.62 1342.23,-224.27 1281.24,-243.63"/>
<polygon fill="black" stroke="black" points="1280.49,-240.2 1272.02,-246.56 1282.61,-246.87 1280.49,-240.2"/>
</g>
<!-- antman3 -->
<g id="node42" class="node">
<title>antman3</title>
<ellipse fill="none" stroke="green" cx="437" cy="-157.61" rx="112.36" ry="26.74"/>
<text text-anchor="middle" x="437" y="-161.41" font-family="Arial" font-size="14.00">Ant&#45;Man and the Wasp:</text>
<text text-anchor="middle" x="437" y="-146.41" font-family="Arial" font-size="14.00">Quantumania</text>
</g>
<!-- antman3&#45;&gt;endgame -->
<g id="edge35" class="edge">
<title>antman3&#45;&gt;endgame</title>
<path fill="none" stroke="black" d="M516.86,-176.74C530.55,-179.55 544.65,-182.25 558,-184.48 764.09,-218.95 1008.87,-244.7 1133.76,-256.76"/>
<polygon fill="black" stroke="black" points="1133.31,-260.24 1143.6,-257.71 1133.98,-253.27 1133.31,-260.24"/>
</g>
<!-- antman3&#45;&gt;loki1 -->
<g id="edge27" class="edge">
<title>antman3&#45;&gt;loki1</title>
<path fill="none" stroke="black" d="M413.52,-184.21C398.34,-200.76 378.65,-222.22 363.47,-238.77"/>
<polygon fill="black" stroke="black" points="361.19,-236.07 357.01,-245.81 366.35,-240.8 361.19,-236.07"/>
</g>
<!-- guardians3 -->
<g id="node43" class="node">
<title>guardians3</title>
<ellipse fill="none" stroke="green" cx="1549" cy="-49.87" rx="113.98" ry="18"/>
<text text-anchor="middle" x="1549" y="-46.17" font-family="Arial" font-size="14.00">Guardians of the Galaxy 3</text>
</g>
<!-- guardians3&#45;&gt;guardiansxmas -->
<g id="edge66" class="edge">
<title>guardians3&#45;&gt;guardiansxmas</title>
<path fill="none" stroke="black" d="M1549,-68.33C1549,-84.29 1549,-108.2 1549,-127.12"/>
<polygon fill="black" stroke="black" points="1545.5,-126.9 1549,-136.9 1552.5,-126.9 1545.5,-126.9"/>
</g>
<!-- secretinvasion -->
<g id="node44" class="node">
<title>secretinvasion</title>
<polygon fill="none" stroke="green" points="1449,-175.61 1339,-175.61 1339,-139.61 1449,-139.61 1449,-175.61"/>
<text text-anchor="middle" x="1394" y="-153.91" font-family="Arial" font-size="14.00">Secret Invasion</text>
</g>
<!-- secretinvasion&#45;&gt;endgame -->
<g id="edge61" class="edge">
<title>secretinvasion&#45;&gt;endgame</title>
<path fill="none" stroke="black" d="M1364.61,-176.07C1337.04,-192.44 1295.37,-217.2 1263.16,-236.34"/>
<polygon fill="black" stroke="black" points="1261.6,-233.19 1254.79,-241.31 1265.18,-239.21 1261.6,-233.19"/>
</g>
<!-- loki2 -->
<g id="node45" class="node">
<title>loki2</title>
<polygon fill="none" stroke="green" points="307,-175.61 205,-175.61 205,-139.61 307,-139.61 307,-175.61"/>
<text text-anchor="middle" x="256" y="-153.91" font-family="Arial" font-size="14.00">Loki Season 2</text>
</g>
<!-- loki2&#45;&gt;loki1 -->
<g id="edge54" class="edge">
<title>loki2&#45;&gt;loki1</title>
<path fill="none" stroke="black" d="M273.17,-175.84C283.7,-186.77 297.18,-201.42 308,-215.35 313.4,-222.3 318.81,-230.16 323.6,-237.51"/>
<polygon fill="black" stroke="black" points="320.57,-239.26 328.89,-245.82 326.47,-235.51 320.57,-239.26"/>
</g>
<!-- themarvels -->
<g id="node46" class="node">
<title>themarvels</title>
<ellipse fill="none" stroke="green" cx="723" cy="-49.87" rx="59.59" ry="18"/>
<text text-anchor="middle" x="723" y="-46.17" font-family="Arial" font-size="14.00">The Marvels</text>
</g>
<!-- themarvels&#45;&gt;wandavision -->
<g id="edge36" class="edge">
<title>themarvels&#45;&gt;wandavision</title>
<path fill="none" stroke="black" d="M706.12,-67.39C688.68,-84.47 661.23,-111.35 641.01,-131.15"/>
<polygon fill="black" stroke="black" points="638.61,-128.59 633.92,-138.09 643.51,-133.6 638.61,-128.59"/>
</g>
<!-- themarvels&#45;&gt;msmarvel -->
<g id="edge37" class="edge">
<title>themarvels&#45;&gt;msmarvel</title>
<path fill="none" stroke="black" d="M723,-68.33C723,-84.48 723,-108.78 723,-127.8"/>
<polygon fill="black" stroke="black" points="719.5,-127.61 723,-137.61 726.5,-127.61 719.5,-127.61"/>
</g>
<!-- echo -->
<g id="node47" class="node">
<title>echo</title>
<polygon fill="none" stroke="green" points="1802,-67.87 1748,-67.87 1748,-31.87 1802,-31.87 1802,-67.87"/>
<text text-anchor="middle" x="1775" y="-46.17" font-family="Arial" font-size="14.00">Echo</text>
</g>
<!-- echo&#45;&gt;hawkeye -->
<g id="edge67" class="edge">
<title>echo&#45;&gt;hawkeye</title>
<path fill="none" stroke="black" d="M1775,-68.33C1775,-84.48 1775,-108.78 1775,-127.8"/>
<polygon fill="black" stroke="black" points="1771.5,-127.61 1775,-137.61 1778.5,-127.61 1771.5,-127.61"/>
</g>
<!-- darkhold -->
<g id="node48" class="node">
<title>darkhold</title>
<polygon fill="none" stroke="green" points="411,-68.87 295,-68.87 295,-30.87 411,-30.87 411,-68.87"/>
<text text-anchor="middle" x="353" y="-53.67" font-family="Arial" font-size="14.00">Agatha:</text>
<text text-anchor="middle" x="353" y="-38.67" font-family="Arial" font-size="14.00">Darkhold Diaries</text>
</g>
<!-- darkhold&#45;&gt;wandavision -->
<g id="edge62" class="edge">
<title>darkhold&#45;&gt;wandavision</title>
<path fill="none" stroke="black" d="M398.09,-69.33C405.36,-72 412.84,-74.57 420,-76.74 480.15,-94.97 501.83,-79.42 558,-107.61 569.97,-113.61 581.5,-122.68 591.02,-131.38"/>
<polygon fill="black" stroke="black" points="588.42,-133.74 598.06,-138.13 593.26,-128.68 588.42,-133.74"/>
</g>
<!-- agentshield -->
<g id="node49" class="node">
<title>agentshield</title>
<polygon fill="none" stroke="red" points="1515.5,-606.57 1366.5,-606.57 1366.5,-570.57 1515.5,-570.57 1515.5,-606.57"/>
<text text-anchor="middle" x="1441" y="-584.87" font-family="Arial" font-size="14.00">Agents of S.H.I.E.L.D.</text>
</g>
<!-- agentshield&#45;&gt;ironman3 -->
<g id="edge41" class="edge">
<title>agentshield&#45;&gt;ironman3</title>
<path fill="none" stroke="black" d="M1386.18,-607.04C1325.85,-626.37 1232.8,-656.48 1198,-669.44 1191.47,-671.87 1184.62,-674.58 1177.94,-677.29"/>
<polygon fill="black" stroke="black" points="1176.97,-673.91 1169.07,-680.96 1179.65,-680.37 1176.97,-673.91"/>
</g>
<!-- agentcarter1 -->
<g id="node50" class="node">
<title>agentcarter1</title>
<polygon fill="none" stroke="red" points="1775.5,-815.18 1682.5,-815.18 1682.5,-777.18 1775.5,-777.18 1775.5,-815.18"/>
<text text-anchor="middle" x="1729" y="-799.98" font-family="Arial" font-size="14.00">Agent Carter</text>
<text text-anchor="middle" x="1729" y="-784.98" font-family="Arial" font-size="14.00">Season 1</text>
</g>
<!-- agentcarter1&#45;&gt;capamerica1 -->
<g id="edge38" class="edge">
<title>agentcarter1&#45;&gt;capamerica1</title>
<path fill="none" stroke="black" d="M1718.84,-815.59C1712.29,-827.47 1703.53,-843.34 1695.57,-857.77"/>
<polygon fill="black" stroke="black" points="1692.71,-855.7 1690.95,-866.15 1698.84,-859.08 1692.71,-855.7"/>
</g>
<!-- agentcarter2 -->
<g id="node51" class="node">
<title>agentcarter2</title>
<polygon fill="none" stroke="red" points="1830.5,-715.31 1737.5,-715.31 1737.5,-677.31 1830.5,-677.31 1830.5,-715.31"/>
<text text-anchor="middle" x="1784" y="-700.11" font-family="Arial" font-size="14.00">Agent Carter</text>
<text text-anchor="middle" x="1784" y="-685.11" font-family="Arial" font-size="14.00">Season 2</text>
</g>
<!-- agentcarter2&#45;&gt;agentcarter1 -->
<g id="edge39" class="edge">
<title>agentcarter2&#45;&gt;agentcarter1</title>
<path fill="none" stroke="black" d="M1773.65,-715.72C1765.51,-730.21 1754.03,-750.65 1744.74,-767.16"/>
<polygon fill="black" stroke="black" points="1741.89,-765.1 1740.04,-775.54 1747.99,-768.53 1741.89,-765.1"/>
</g>
<!-- daredevil1 -->
<g id="node52" class="node">
<title>daredevil1</title>
<polygon fill="none" stroke="blue" points="2259,-607.57 2185,-607.57 2185,-569.57 2259,-569.57 2259,-607.57"/>
<text text-anchor="middle" x="2222" y="-592.37" font-family="Arial" font-size="14.00">Daredevil</text>
<text text-anchor="middle" x="2222" y="-577.37" font-family="Arial" font-size="14.00">Season 1</text>
</g>
<!-- jjones1 -->
<g id="node53" class="node">
<title>jjones1</title>
<polygon fill="none" stroke="blue" points="2166.5,-499.83 2065.5,-499.83 2065.5,-461.83 2166.5,-461.83 2166.5,-499.83"/>
<text text-anchor="middle" x="2116" y="-484.63" font-family="Arial" font-size="14.00">Jessica Jones</text>
<text text-anchor="middle" x="2116" y="-469.63" font-family="Arial" font-size="14.00">Season 1</text>
</g>
<!-- daredevil2 -->
<g id="node54" class="node">
<title>daredevil2</title>
<polygon fill="none" stroke="blue" points="2259,-499.83 2185,-499.83 2185,-461.83 2259,-461.83 2259,-499.83"/>
<text text-anchor="middle" x="2222" y="-484.63" font-family="Arial" font-size="14.00">Daredevil</text>
<text text-anchor="middle" x="2222" y="-469.63" font-family="Arial" font-size="14.00">Season 2</text>
</g>
<!-- daredevil2&#45;&gt;daredevil1 -->
<g id="edge43" class="edge">
<title>daredevil2&#45;&gt;daredevil1</title>
<path fill="none" stroke="black" d="M2222,-500.25C2222,-516.17 2222,-539.47 2222,-558"/>
<polygon fill="black" stroke="black" points="2218.5,-557.85 2222,-567.85 2225.5,-557.85 2218.5,-557.85"/>
</g>
<!-- lukecage1 -->
<g id="node55" class="node">
<title>lukecage1</title>
<polygon fill="none" stroke="blue" points="1955,-499.83 1873,-499.83 1873,-461.83 1955,-461.83 1955,-499.83"/>
<text text-anchor="middle" x="1914" y="-484.63" font-family="Arial" font-size="14.00">Luke Cage</text>
<text text-anchor="middle" x="1914" y="-469.63" font-family="Arial" font-size="14.00">Season 1</text>
</g>
<!-- ironfist1 -->
<g id="node56" class="node">
<title>ironfist1</title>
<polygon fill="none" stroke="blue" points="2047,-499.83 1973,-499.83 1973,-461.83 2047,-461.83 2047,-499.83"/>
<text text-anchor="middle" x="2010" y="-484.63" font-family="Arial" font-size="14.00">Iron Fist</text>
<text text-anchor="middle" x="2010" y="-469.63" font-family="Arial" font-size="14.00">Season 1</text>
</g>
<!-- defenders -->
<g id="node57" class="node">
<title>defenders</title>
<polygon fill="none" stroke="blue" points="2109,-391.09 2003,-391.09 2003,-355.09 2109,-355.09 2109,-391.09"/>
<text text-anchor="middle" x="2056" y="-369.39" font-family="Arial" font-size="14.00">The Defenders</text>
</g>
<!-- defenders&#45;&gt;jjones1 -->
<g id="edge44" class="edge">
<title>defenders&#45;&gt;jjones1</title>
<path fill="none" stroke="black" d="M2065.91,-391.55C2075.18,-407.88 2089.18,-432.56 2100.02,-451.68"/>
<polygon fill="black" stroke="black" points="2096.95,-453.35 2104.93,-460.32 2103.04,-449.89 2096.95,-453.35"/>
</g>
<!-- defenders&#45;&gt;daredevil2 -->
<g id="edge42" class="edge">
<title>defenders&#45;&gt;daredevil2</title>
<path fill="none" stroke="black" d="M2083.41,-391.55C2110.75,-408.97 2152.98,-435.86 2183.64,-455.39"/>
<polygon fill="black" stroke="black" points="2181.56,-458.22 2191.88,-460.64 2185.32,-452.32 2181.56,-458.22"/>
</g>
<!-- defenders&#45;&gt;lukecage1 -->
<g id="edge45" class="edge">
<title>defenders&#45;&gt;lukecage1</title>
<path fill="none" stroke="black" d="M2032.55,-391.55C2009.4,-408.79 1973.76,-435.33 1947.6,-454.81"/>
<polygon fill="black" stroke="black" points="1945.58,-451.95 1939.65,-460.73 1949.76,-457.57 1945.58,-451.95"/>
</g>
<!-- defenders&#45;&gt;ironfist1 -->
<g id="edge46" class="edge">
<title>defenders&#45;&gt;ironfist1</title>
<path fill="none" stroke="black" d="M2048.4,-391.55C2041.36,-407.73 2030.76,-432.1 2022.48,-451.14"/>
<polygon fill="black" stroke="black" points="2019.3,-449.68 2018.52,-460.25 2025.72,-452.47 2019.3,-449.68"/>
</g>
<!-- punisher1 -->
<g id="node58" class="node">
<title>punisher1</title>
<polygon fill="none" stroke="blue" points="2327.5,-284.35 2230.5,-284.35 2230.5,-246.35 2327.5,-246.35 2327.5,-284.35"/>
<text text-anchor="middle" x="2279" y="-269.15" font-family="Arial" font-size="14.00">The Punisher</text>
<text text-anchor="middle" x="2279" y="-254.15" font-family="Arial" font-size="14.00">Season 1</text>
</g>
<!-- punisher1&#45;&gt;defenders -->
<g id="edge51" class="edge">
<title>punisher1&#45;&gt;defenders</title>
<path fill="none" stroke="black" d="M2240.16,-284.77C2201.93,-302.89 2143.52,-330.59 2102.77,-349.91"/>
<polygon fill="black" stroke="black" points="2101.45,-346.66 2093.92,-354.11 2104.45,-352.99 2101.45,-346.66"/>
</g>
<!-- jjones2 -->
<g id="node59" class="node">
<title>jjones2</title>
<polygon fill="none" stroke="blue" points="2212.5,-284.35 2111.5,-284.35 2111.5,-246.35 2212.5,-246.35 2212.5,-284.35"/>
<text text-anchor="middle" x="2162" y="-269.15" font-family="Arial" font-size="14.00">Jessica Jones</text>
<text text-anchor="middle" x="2162" y="-254.15" font-family="Arial" font-size="14.00">Season 2</text>
</g>
<!-- jjones2&#45;&gt;defenders -->
<g id="edge48" class="edge">
<title>jjones2&#45;&gt;defenders</title>
<path fill="none" stroke="black" d="M2143.54,-284.77C2126.28,-301.98 2100.37,-327.83 2081.21,-346.94"/>
<polygon fill="black" stroke="black" points="2078.88,-344.32 2074.27,-353.86 2083.82,-349.28 2078.88,-344.32"/>
</g>
<!-- lukecage2 -->
<g id="node60" class="node">
<title>lukecage2</title>
<polygon fill="none" stroke="blue" points="2001,-284.35 1919,-284.35 1919,-246.35 2001,-246.35 2001,-284.35"/>
<text text-anchor="middle" x="1960" y="-269.15" font-family="Arial" font-size="14.00">Luke Cage</text>
<text text-anchor="middle" x="1960" y="-254.15" font-family="Arial" font-size="14.00">Season 2</text>
</g>
<!-- lukecage2&#45;&gt;defenders -->
<g id="edge49" class="edge">
<title>lukecage2&#45;&gt;defenders</title>
<path fill="none" stroke="black" d="M1976.72,-284.77C1992.21,-301.83 2015.4,-327.37 2032.7,-346.43"/>
<polygon fill="black" stroke="black" points="2030.09,-348.76 2039.41,-353.81 2035.27,-344.06 2030.09,-348.76"/>
</g>
<!-- ironfist2 -->
<g id="node61" class="node">
<title>ironfist2</title>
<polygon fill="none" stroke="blue" points="1901,-284.35 1827,-284.35 1827,-246.35 1901,-246.35 1901,-284.35"/>
<text text-anchor="middle" x="1864" y="-269.15" font-family="Arial" font-size="14.00">Iron Fist</text>
<text text-anchor="middle" x="1864" y="-254.15" font-family="Arial" font-size="14.00">Season 2</text>
</g>
<!-- ironfist2&#45;&gt;defenders -->
<g id="edge50" class="edge">
<title>ironfist2&#45;&gt;defenders</title>
<path fill="none" stroke="black" d="M1896.64,-284.77C1901.13,-287.28 1905.67,-289.82 1910,-292.22 1944.92,-311.59 1984.69,-333.32 2013.89,-349.22"/>
<polygon fill="black" stroke="black" points="2011.97,-352.16 2022.43,-353.87 2015.31,-346.01 2011.97,-352.16"/>
</g>
<!-- daredevil3&#45;&gt;defenders -->
<g id="edge47" class="edge">
<title>daredevil3&#45;&gt;defenders</title>
<path fill="none" stroke="black" d="M2056,-284.77C2056,-300.98 2056,-324.85 2056,-343.53"/>
<polygon fill="black" stroke="black" points="2052.5,-343.42 2056,-353.42 2059.5,-343.42 2052.5,-343.42"/>
</g>
<!-- punisher2 -->
<g id="node63" class="node">
<title>punisher2</title>
<polygon fill="none" stroke="blue" points="2327.5,-176.61 2230.5,-176.61 2230.5,-138.61 2327.5,-138.61 2327.5,-176.61"/>
<text text-anchor="middle" x="2279" y="-161.41" font-family="Arial" font-size="14.00">The Punisher</text>
<text text-anchor="middle" x="2279" y="-146.41" font-family="Arial" font-size="14.00">Season 2</text>
</g>
<!-- punisher2&#45;&gt;punisher1 -->
<g id="edge52" class="edge">
<title>punisher2&#45;&gt;punisher1</title>
<path fill="none" stroke="black" d="M2279,-177.03C2279,-192.95 2279,-216.25 2279,-234.78"/>
<polygon fill="black" stroke="black" points="2275.5,-234.63 2279,-244.63 2282.5,-234.63 2275.5,-234.63"/>
</g>
<!-- jjones3 -->
<g id="node64" class="node">
<title>jjones3</title>
<polygon fill="none" stroke="blue" points="2212.5,-176.61 2111.5,-176.61 2111.5,-138.61 2212.5,-138.61 2212.5,-176.61"/>
<text text-anchor="middle" x="2162" y="-161.41" font-family="Arial" font-size="14.00">Jessica Jones</text>
<text text-anchor="middle" x="2162" y="-146.41" font-family="Arial" font-size="14.00">Season 3</text>
</g>
<!-- jjones3&#45;&gt;jjones2 -->
<g id="edge53" class="edge">
<title>jjones3&#45;&gt;jjones2</title>
<path fill="none" stroke="black" d="M2162,-177.03C2162,-192.95 2162,-216.25 2162,-234.78"/>
<polygon fill="black" stroke="black" points="2158.5,-234.63 2162,-244.63 2165.5,-234.63 2158.5,-234.63"/>
</g>
</g>
</svg>
