<?xml version="1.0" encoding="UTF-8" standalone="no"?>
<!DOCTYPE svg PUBLIC "-//W3C//DTD SVG 1.1//EN"
 "http://www.w3.org/Graphics/SVG/1.1/DTD/svg11.dtd">
<!-- Generated by graphviz version 7.0.1 (20221109.1506)
 -->
<!-- Title: mcu Pages: 1 -->
<svg width="2304pt" height="1021pt"
 viewBox="0.00 0.00 2303.50 1020.92" xmlns="http://www.w3.org/2000/svg" xmlns:xlink="http://www.w3.org/1999/xlink">
<g id="graph0" class="graph" transform="scale(1 1) rotate(0) translate(4 1016.92)">
<title>mcu</title>
<polygon fill="white" stroke="none" points="-4,4 -4,-1016.92 2299.5,-1016.92 2299.5,4 -4,4"/>
<text text-anchor="middle" x="1147.75" y="-7.8" font-family="Arial" font-size="14.00">Marvel Cinematic Universe Dependency Chart</text>
<g id="clust1" class="cluster">
<title>cluster_oddball</title>
</g>
<g id="clust2" class="cluster">
<title>cluster_defenders</title>
</g>
<!-- ironman1 -->
<g id="node1" class="node">
<title>ironman1</title>
<ellipse fill="none" stroke="red" stroke-width="5" cx="1171.5" cy="-994.92" rx="46.29" ry="18"/>
<text text-anchor="middle" x="1171.5" y="-991.22" font-family="Arial" font-size="14.00">Iron Man</text>
</g>
<!-- thehulk -->
<g id="node2" class="node">
<title>thehulk</title>
<ellipse fill="none" stroke="red" stroke-width="5" cx="938.5" cy="-896.05" rx="86.38" ry="18"/>
<text text-anchor="middle" x="938.5" y="-892.35" font-family="Arial" font-size="14.00">The Incredible Hulk</text>
</g>
<!-- ironman2 -->
<g id="node3" class="node">
<title>ironman2</title>
<ellipse fill="none" stroke="red" cx="1171.5" cy="-896.05" rx="53.09" ry="18"/>
<text text-anchor="middle" x="1171.5" y="-892.35" font-family="Arial" font-size="14.00">Iron Man 2</text>
</g>
<!-- ironman2&#45;&gt;ironman1 -->
<g id="edge1" class="edge">
<title>ironman2&#45;&gt;ironman1</title>
<path fill="none" stroke="black" d="M1171.5,-914.37C1171.5,-927.94 1171.5,-947.18 1171.5,-963.33"/>
<polygon fill="black" stroke="black" points="1168,-962.91 1171.5,-972.91 1175,-962.91 1168,-962.91"/>
</g>
<!-- capamerica1 -->
<g id="node4" class="node">
<title>capamerica1</title>
<ellipse fill="none" stroke="red" stroke-width="5" cx="1399.5" cy="-896.05" rx="87.86" ry="26.74"/>
<text text-anchor="middle" x="1399.5" y="-899.85" font-family="Arial" font-size="14.00">Captain America:</text>
<text text-anchor="middle" x="1399.5" y="-884.85" font-family="Arial" font-size="14.00">The First Avenger</text>
</g>
<!-- thor1 -->
<g id="node5" class="node">
<title>thor1</title>
<ellipse fill="none" stroke="red" stroke-width="5" cx="1071.5" cy="-896.05" rx="28.7" ry="18"/>
<text text-anchor="middle" x="1071.5" y="-892.35" font-family="Arial" font-size="14.00">Thor</text>
</g>
<!-- avengers -->
<g id="node6" class="node">
<title>avengers</title>
<ellipse fill="none" stroke="red" cx="1071.5" cy="-796.18" rx="65.79" ry="18"/>
<text text-anchor="middle" x="1071.5" y="-792.48" font-family="Arial" font-size="14.00">The Avengers</text>
</g>
<!-- avengers&#45;&gt;thehulk -->
<g id="edge5" class="edge">
<title>avengers&#45;&gt;thehulk</title>
<path fill="none" stroke="black" d="M1049.24,-813.56C1028.35,-828.93 996.8,-852.15 972.71,-869.88"/>
<polygon fill="black" stroke="black" points="970.75,-866.97 964.77,-875.72 974.9,-872.61 970.75,-866.97"/>
</g>
<!-- avengers&#45;&gt;ironman2 -->
<g id="edge2" class="edge">
<title>avengers&#45;&gt;ironman2</title>
<path fill="none" stroke="black" d="M1088.46,-813.78C1104.51,-829.48 1128.76,-853.22 1146.92,-871"/>
<polygon fill="black" stroke="black" points="1144.11,-873.14 1153.71,-877.64 1149.01,-868.14 1144.11,-873.14"/>
</g>
<!-- avengers&#45;&gt;capamerica1 -->
<g id="edge4" class="edge">
<title>avengers&#45;&gt;capamerica1</title>
<path fill="none" stroke="black" d="M1114.72,-810.08C1167.83,-825.93 1258.88,-853.09 1323.72,-872.44"/>
<polygon fill="black" stroke="black" points="1322.67,-875.78 1333.25,-875.28 1324.67,-869.07 1322.67,-875.78"/>
</g>
<!-- avengers&#45;&gt;thor1 -->
<g id="edge3" class="edge">
<title>avengers&#45;&gt;thor1</title>
<path fill="none" stroke="black" d="M1071.5,-814.68C1071.5,-828.48 1071.5,-848.07 1071.5,-864.46"/>
<polygon fill="black" stroke="black" points="1068,-864.18 1071.5,-874.18 1075,-864.18 1068,-864.18"/>
</g>
<!-- ironman3 -->
<g id="node7" class="node">
<title>ironman3</title>
<ellipse fill="none" stroke="orange" cx="306.5" cy="-696.31" rx="53.09" ry="18"/>
<text text-anchor="middle" x="306.5" y="-692.61" font-family="Arial" font-size="14.00">Iron Man 3</text>
</g>
<!-- ironman3&#45;&gt;avengers -->
<g id="edge6" class="edge">
<title>ironman3&#45;&gt;avengers</title>
<path fill="none" stroke="black" d="M355.52,-703.58C487.18,-720.43 848.88,-766.7 1001.79,-786.26"/>
<polygon fill="black" stroke="black" points="1001.01,-789.69 1011.37,-787.49 1001.9,-782.75 1001.01,-789.69"/>
</g>
<!-- thor2 -->
<g id="node8" class="node">
<title>thor2</title>
<ellipse fill="none" stroke="orange" cx="902.5" cy="-696.31" rx="77.19" ry="18"/>
<text text-anchor="middle" x="902.5" y="-692.61" font-family="Arial" font-size="14.00">Thor: Dark World</text>
</g>
<!-- thor2&#45;&gt;avengers -->
<g id="edge7" class="edge">
<title>thor2&#45;&gt;avengers</title>
<path fill="none" stroke="black" d="M930.41,-713.47C958.92,-729.98 1003.33,-755.7 1034.7,-773.87"/>
<polygon fill="black" stroke="black" points="1032.67,-776.74 1043.08,-778.72 1036.18,-770.68 1032.67,-776.74"/>
</g>
<!-- capamerica2 -->
<g id="node9" class="node">
<title>capamerica2</title>
<ellipse fill="none" stroke="orange" cx="1264.5" cy="-696.31" rx="101.23" ry="26.74"/>
<text text-anchor="middle" x="1264.5" y="-700.11" font-family="Arial" font-size="14.00">Captain America and</text>
<text text-anchor="middle" x="1264.5" y="-685.11" font-family="Arial" font-size="14.00">the Winter Soldier</text>
</g>
<!-- capamerica2&#45;&gt;avengers -->
<g id="edge8" class="edge">
<title>capamerica2&#45;&gt;avengers</title>
<path fill="none" stroke="black" d="M1218.76,-720.5C1186.31,-736.96 1143.16,-758.84 1111.96,-774.66"/>
<polygon fill="black" stroke="black" points="1110.56,-771.45 1103.23,-779.09 1113.73,-777.69 1110.56,-771.45"/>
</g>
<!-- guardians1 -->
<g id="node10" class="node">
<title>guardians1</title>
<ellipse fill="none" stroke="orange" stroke-width="5" cx="1639.5" cy="-696.31" rx="106.68" ry="18"/>
<text text-anchor="middle" x="1639.5" y="-692.61" font-family="Arial" font-size="14.00">Guardians of the Galaxy</text>
</g>
<!-- ageofultron -->
<g id="node11" class="node">
<title>ageofultron</title>
<ellipse fill="none" stroke="orange" cx="1071.5" cy="-696.31" rx="73.58" ry="26.74"/>
<text text-anchor="middle" x="1071.5" y="-700.11" font-family="Arial" font-size="14.00">The Avengers:</text>
<text text-anchor="middle" x="1071.5" y="-685.11" font-family="Arial" font-size="14.00">Age of Ultron</text>
</g>
<!-- ageofultron&#45;&gt;avengers -->
<g id="edge10" class="edge">
<title>ageofultron&#45;&gt;avengers</title>
<path fill="none" stroke="black" d="M1071.5,-723.54C1071.5,-736.85 1071.5,-753.05 1071.5,-766.67"/>
<polygon fill="black" stroke="black" points="1068,-766.33 1071.5,-776.33 1075,-766.33 1068,-766.33"/>
</g>
<!-- antman -->
<g id="node12" class="node">
<title>antman</title>
<ellipse fill="none" stroke="orange" stroke-width="5" cx="1808.5" cy="-696.31" rx="44.39" ry="18"/>
<text text-anchor="middle" x="1808.5" y="-692.61" font-family="Arial" font-size="14.00">Ant&#45;Man</text>
</g>
<!-- civilwar -->
<g id="node13" class="node">
<title>civilwar</title>
<ellipse fill="none" stroke="purple" cx="1291.5" cy="-588.57" rx="73.58" ry="26.74"/>
<text text-anchor="middle" x="1291.5" y="-592.37" font-family="Arial" font-size="14.00">The Avengers:</text>
<text text-anchor="middle" x="1291.5" y="-577.37" font-family="Arial" font-size="14.00">Civil War</text>
</g>
<!-- civilwar&#45;&gt;capamerica2 -->
<g id="edge11" class="edge">
<title>civilwar&#45;&gt;capamerica2</title>
<path fill="none" stroke="black" d="M1284.9,-615.44C1281.59,-628.37 1277.54,-644.24 1273.92,-658.42"/>
<polygon fill="black" stroke="black" points="1270.59,-657.32 1271.5,-667.88 1277.37,-659.05 1270.59,-657.32"/>
</g>
<!-- civilwar&#45;&gt;ageofultron -->
<g id="edge12" class="edge">
<title>civilwar&#45;&gt;ageofultron</title>
<path fill="none" stroke="black" d="M1248.04,-610.46C1212.78,-627.41 1162.92,-651.37 1125.18,-669.51"/>
<polygon fill="black" stroke="black" points="1123.74,-666.32 1116.24,-673.81 1126.77,-672.63 1123.74,-666.32"/>
</g>
<!-- civilwar&#45;&gt;antman -->
<g id="edge13" class="edge">
<title>civilwar&#45;&gt;antman</title>
<path fill="none" stroke="black" d="M1362.96,-595.53C1455.39,-604.67 1620.54,-625.87 1755.5,-669.44 1760.53,-671.07 1765.69,-673.09 1770.72,-675.28"/>
<polygon fill="black" stroke="black" points="1768.87,-678.28 1779.41,-679.31 1771.82,-671.93 1768.87,-678.28"/>
</g>
<!-- docstrange -->
<g id="node14" class="node">
<title>docstrange</title>
<ellipse fill="none" stroke="purple" stroke-width="5" cx="1091.5" cy="-588.57" rx="69.59" ry="18"/>
<text text-anchor="middle" x="1091.5" y="-584.87" font-family="Arial" font-size="14.00">Doctor Strange</text>
</g>
<!-- guardians2 -->
<g id="node15" class="node">
<title>guardians2</title>
<ellipse fill="none" stroke="purple" cx="890.5" cy="-588.57" rx="113.98" ry="18"/>
<text text-anchor="middle" x="890.5" y="-584.87" font-family="Arial" font-size="14.00">Guardians of the Galaxy 2</text>
</g>
<!-- guardians2&#45;&gt;guardians1 -->
<g id="edge14" class="edge">
<title>guardians2&#45;&gt;guardians1</title>
<path fill="none" stroke="black" d="M952.65,-604.05C971.77,-608.15 992.93,-612.34 1012.5,-615.44 1238.5,-651.22 1298.72,-632.27 1524.5,-669.44 1537.67,-671.61 1551.6,-674.35 1565.04,-677.24"/>
<polygon fill="black" stroke="black" points="1564.19,-680.63 1574.71,-679.36 1565.69,-673.8 1564.19,-680.63"/>
</g>
<!-- spidey1 -->
<g id="node16" class="node">
<title>spidey1</title>
<ellipse fill="none" stroke="purple" cx="528.5" cy="-588.57" rx="69.09" ry="26.74"/>
<text text-anchor="middle" x="528.5" y="-592.37" font-family="Arial" font-size="14.00">Spider&#45;Man:</text>
<text text-anchor="middle" x="528.5" y="-577.37" font-family="Arial" font-size="14.00">Homecoming</text>
</g>
<!-- spidey1&#45;&gt;avengers -->
<g id="edge9" class="edge">
<title>spidey1&#45;&gt;avengers</title>
<path fill="none" stroke="black" d="M568.65,-610.69C623.52,-638.97 725.53,-689.48 816.5,-723.18 881.81,-747.37 959.05,-768.13 1011.27,-781.06"/>
<polygon fill="black" stroke="black" points="1010.34,-784.43 1020.88,-783.41 1012,-777.63 1010.34,-784.43"/>
</g>
<!-- thor3 -->
<g id="node17" class="node">
<title>thor3</title>
<ellipse fill="none" stroke="purple" cx="687.5" cy="-588.57" rx="71.49" ry="18"/>
<text text-anchor="middle" x="687.5" y="-584.87" font-family="Arial" font-size="14.00">Thor: Ragnorok</text>
</g>
<!-- thor3&#45;&gt;thor2 -->
<g id="edge15" class="edge">
<title>thor3&#45;&gt;thor2</title>
<path fill="none" stroke="black" d="M719.22,-605.17C756.62,-623.56 818.9,-654.2 860.33,-674.57"/>
<polygon fill="black" stroke="black" points="858.77,-677.7 869.29,-678.98 861.86,-671.42 858.77,-677.7"/>
</g>
<!-- bpanther1 -->
<g id="node18" class="node">
<title>bpanther1</title>
<ellipse fill="none" stroke="purple" stroke-width="5" cx="662.5" cy="-480.83" rx="65.79" ry="18"/>
<text text-anchor="middle" x="662.5" y="-477.13" font-family="Arial" font-size="14.00">Black Panther</text>
</g>
<!-- bpanther2 -->
<g id="node19" class="node">
<title>bpanther2</title>
<ellipse fill="none" stroke="blue" cx="604.5" cy="-373.09" rx="87.86" ry="26.74"/>
<text text-anchor="middle" x="604.5" y="-376.89" font-family="Arial" font-size="14.00">Black Panther 2:</text>
<text text-anchor="middle" x="604.5" y="-361.89" font-family="Arial" font-size="14.00">Wakanda Forever</text>
</g>
<!-- bpanther2&#45;&gt;bpanther1 -->
<g id="edge29" class="edge">
<title>bpanther2&#45;&gt;bpanther1</title>
<path fill="none" stroke="black" d="M618.69,-399.96C627.16,-415.41 637.94,-435.06 646.69,-451"/>
<polygon fill="black" stroke="black" points="643.49,-452.45 651.37,-459.54 649.63,-449.09 643.49,-452.45"/>
</g>
<!-- whatif1 -->
<g id="node20" class="node">
<title>whatif1</title>
<polygon fill="none" stroke="blue" points="785,-392.09 710,-392.09 710,-354.09 785,-354.09 785,-392.09"/>
<text text-anchor="middle" x="747.5" y="-376.89" font-family="Arial" font-size="14.00">What If..?</text>
<text text-anchor="middle" x="747.5" y="-361.89" font-family="Arial" font-size="14.00">Season 1</text>
</g>
<!-- whatif1&#45;&gt;bpanther1 -->
<g id="edge31" class="edge">
<title>whatif1&#45;&gt;bpanther1</title>
<path fill="none" stroke="black" d="M732.69,-392.51C719.45,-408.98 699.85,-433.36 684.73,-452.18"/>
<polygon fill="black" stroke="black" points="682.19,-449.74 678.66,-459.73 687.65,-454.13 682.19,-449.74"/>
</g>
<!-- infinitywar -->
<g id="node22" class="node">
<title>infinitywar</title>
<ellipse fill="none" stroke="purple" cx="890.5" cy="-480.83" rx="73.58" ry="26.74"/>
<text text-anchor="middle" x="890.5" y="-484.63" font-family="Arial" font-size="14.00">The Avengers:</text>
<text text-anchor="middle" x="890.5" y="-469.63" font-family="Arial" font-size="14.00">Infinity War</text>
</g>
<!-- whatif1&#45;&gt;infinitywar -->
<g id="edge30" class="edge">
<title>whatif1&#45;&gt;infinitywar</title>
<path fill="none" stroke="black" d="M772.41,-392.51C793.62,-408.2 824.53,-431.05 849.41,-449.45"/>
<polygon fill="black" stroke="black" points="847.28,-452.22 857.4,-455.35 851.44,-446.59 847.28,-452.22"/>
</g>
<!-- whatif2 -->
<g id="node21" class="node">
<title>whatif2</title>
<polygon fill="none" stroke="green" points="787,-284.35 708,-284.35 708,-246.35 787,-246.35 787,-284.35"/>
<text text-anchor="middle" x="747.5" y="-269.15" font-family="Arial" font-size="14.00">What If...?</text>
<text text-anchor="middle" x="747.5" y="-254.15" font-family="Arial" font-size="14.00">Season 2</text>
</g>
<!-- whatif2&#45;&gt;whatif1 -->
<g id="edge32" class="edge">
<title>whatif2&#45;&gt;whatif1</title>
<path fill="none" stroke="black" d="M747.5,-284.77C747.5,-300.69 747.5,-323.99 747.5,-342.52"/>
<polygon fill="black" stroke="black" points="744,-342.37 747.5,-352.37 751,-342.37 744,-342.37"/>
</g>
<!-- infinitywar&#45;&gt;civilwar -->
<g id="edge17" class="edge">
<title>infinitywar&#45;&gt;civilwar</title>
<path fill="none" stroke="black" d="M949.24,-497.32C1021.71,-516.43 1144.76,-548.88 1221.89,-569.22"/>
<polygon fill="black" stroke="black" points="1220.91,-572.58 1231.47,-571.74 1222.69,-565.81 1220.91,-572.58"/>
</g>
<!-- infinitywar&#45;&gt;docstrange -->
<g id="edge19" class="edge">
<title>infinitywar&#45;&gt;docstrange</title>
<path fill="none" stroke="black" d="M931.18,-503.23C965.42,-521.24 1014.24,-546.92 1048.99,-565.21"/>
<polygon fill="black" stroke="black" points="1047.02,-568.13 1057.5,-569.69 1050.28,-561.93 1047.02,-568.13"/>
</g>
<!-- infinitywar&#45;&gt;guardians2 -->
<g id="edge20" class="edge">
<title>infinitywar&#45;&gt;guardians2</title>
<path fill="none" stroke="black" d="M890.5,-507.97C890.5,-523.47 890.5,-543.12 890.5,-559.02"/>
<polygon fill="black" stroke="black" points="887,-558.81 890.5,-568.81 894,-558.81 887,-558.81"/>
</g>
<!-- infinitywar&#45;&gt;spidey1 -->
<g id="edge23" class="edge">
<title>infinitywar&#45;&gt;spidey1</title>
<path fill="none" stroke="black" d="M833.72,-498.1C822.38,-501.33 810.57,-504.7 799.5,-507.83 714.22,-531.98 692.3,-535.93 607.5,-561.7 602.03,-563.36 596.36,-565.13 590.69,-566.93"/>
<polygon fill="black" stroke="black" points="589.72,-563.57 581.26,-569.95 591.85,-570.23 589.72,-563.57"/>
</g>
<!-- infinitywar&#45;&gt;thor3 -->
<g id="edge16" class="edge">
<title>infinitywar&#45;&gt;thor3</title>
<path fill="none" stroke="black" d="M849.42,-503.23C813.88,-521.74 762.82,-548.34 727.58,-566.7"/>
<polygon fill="black" stroke="black" points="726.23,-563.45 718.98,-571.17 729.46,-569.66 726.23,-563.45"/>
</g>
<!-- antman2 -->
<g id="node23" class="node">
<title>antman2</title>
<ellipse fill="none" stroke="purple" cx="904.5" cy="-373.09" rx="100.98" ry="18"/>
<text text-anchor="middle" x="904.5" y="-369.39" font-family="Arial" font-size="14.00">Ant&#45;Man and the Wasp</text>
</g>
<!-- antman2&#45;&gt;infinitywar -->
<g id="edge33" class="edge">
<title>antman2&#45;&gt;infinitywar</title>
<path fill="none" stroke="black" d="M902.19,-391.55C900.35,-405.41 897.72,-425.27 895.42,-442.65"/>
<polygon fill="black" stroke="black" points="892.01,-441.75 894.17,-452.12 898.95,-442.67 892.01,-441.75"/>
</g>
<!-- capmarvel -->
<g id="node24" class="node">
<title>capmarvel</title>
<ellipse fill="none" stroke="purple" cx="1378.5" cy="-373.09" rx="70.39" ry="18"/>
<text text-anchor="middle" x="1378.5" y="-369.39" font-family="Arial" font-size="14.00">Captain Marvel</text>
</g>
<!-- capmarvel&#45;&gt;avengers -->
<g id="edge21" class="edge">
<title>capmarvel&#45;&gt;avengers</title>
<path fill="none" stroke="black" d="M1384.89,-391.4C1404.11,-446.82 1455.31,-622.11 1374.5,-723.18 1346.12,-758.67 1224.37,-778.6 1144.11,-788.1"/>
<polygon fill="black" stroke="black" points="1144.11,-784.57 1134.57,-789.2 1144.91,-791.53 1144.11,-784.57"/>
</g>
<!-- endgame -->
<g id="node25" class="node">
<title>endgame</title>
<ellipse fill="none" stroke="purple" cx="904.5" cy="-265.35" rx="73.58" ry="26.74"/>
<text text-anchor="middle" x="904.5" y="-269.15" font-family="Arial" font-size="14.00">The Avengers:</text>
<text text-anchor="middle" x="904.5" y="-254.15" font-family="Arial" font-size="14.00">Endgame</text>
</g>
<!-- endgame&#45;&gt;antman2 -->
<g id="edge34" class="edge">
<title>endgame&#45;&gt;antman2</title>
<path fill="none" stroke="black" d="M904.5,-292.49C904.5,-307.99 904.5,-327.64 904.5,-343.54"/>
<polygon fill="black" stroke="black" points="901,-343.33 904.5,-353.33 908,-343.33 901,-343.33"/>
</g>
<!-- endgame&#45;&gt;capmarvel -->
<g id="edge22" class="edge">
<title>endgame&#45;&gt;capmarvel</title>
<path fill="none" stroke="black" d="M966.47,-280.17C1057.04,-300.38 1224.69,-337.78 1315.72,-358.09"/>
<polygon fill="black" stroke="black" points="1314.7,-361.44 1325.22,-360.21 1316.23,-354.61 1314.7,-361.44"/>
</g>
<!-- spidey2 -->
<g id="node26" class="node">
<title>spidey2</title>
<ellipse fill="none" stroke="purple" cx="831.5" cy="-157.61" rx="79.81" ry="26.74"/>
<text text-anchor="middle" x="831.5" y="-161.41" font-family="Arial" font-size="14.00">Spider&#45;Man:</text>
<text text-anchor="middle" x="831.5" y="-146.41" font-family="Arial" font-size="14.00">Far From Home</text>
</g>
<!-- spidey2&#45;&gt;endgame -->
<g id="edge24" class="edge">
<title>spidey2&#45;&gt;endgame</title>
<path fill="none" stroke="black" d="M848.99,-183.94C858.47,-197.67 870.32,-214.84 880.64,-229.79"/>
<polygon fill="black" stroke="black" points="877.74,-231.74 886.3,-237.98 883.5,-227.77 877.74,-231.74"/>
</g>
<!-- wandavision -->
<g id="node27" class="node">
<title>wandavision</title>
<polygon fill="none" stroke="blue" points="1025.5,-175.61 929.5,-175.61 929.5,-139.61 1025.5,-139.61 1025.5,-175.61"/>
<text text-anchor="middle" x="977.5" y="-153.91" font-family="Arial" font-size="14.00">WandaVision</text>
</g>
<!-- wandavision&#45;&gt;endgame -->
<g id="edge26" class="edge">
<title>wandavision&#45;&gt;endgame</title>
<path fill="none" stroke="black" d="M965.45,-176.07C955.38,-190.66 940.71,-211.9 928.29,-229.89"/>
<polygon fill="black" stroke="black" points="925.7,-227.48 922.9,-237.7 931.46,-231.46 925.7,-227.48"/>
</g>
<!-- falcon -->
<g id="node28" class="node">
<title>falcon</title>
<polygon fill="none" stroke="blue" points="133,-176.61 0,-176.61 0,-138.61 133,-138.61 133,-176.61"/>
<text text-anchor="middle" x="66.5" y="-161.41" font-family="Arial" font-size="14.00">The Falcon and the</text>
<text text-anchor="middle" x="66.5" y="-146.41" font-family="Arial" font-size="14.00">Winter Soldier</text>
</g>
<!-- falcon&#45;&gt;endgame -->
<g id="edge64" class="edge">
<title>falcon&#45;&gt;endgame</title>
<path fill="none" stroke="black" d="M113.15,-176.99C122.42,-179.99 132.17,-182.69 141.5,-184.48 429.02,-239.63 515.25,-145.26 799.5,-215.35 818.93,-220.14 839.11,-228.61 856.53,-237.17"/>
<polygon fill="black" stroke="black" points="854.59,-240.11 865.09,-241.51 857.76,-233.87 854.59,-240.11"/>
</g>
<!-- loki1 -->
<g id="node29" class="node">
<title>loki1</title>
<polygon fill="none" stroke="blue" points="1361.5,-283.35 1307.5,-283.35 1307.5,-247.35 1361.5,-247.35 1361.5,-283.35"/>
<text text-anchor="middle" x="1334.5" y="-261.65" font-family="Arial" font-size="14.00">Loki</text>
</g>
<!-- loki1&#45;&gt;thor2 -->
<g id="edge56" class="edge">
<title>loki1&#45;&gt;thor2</title>
<path fill="none" stroke="black" d="M1326.93,-283.47C1296.56,-351.98 1184.53,-603.38 1170.5,-615.44 1106.51,-670.44 1069.34,-645.29 988.5,-669.44 979.06,-672.26 969.03,-675.27 959.29,-678.19"/>
<polygon fill="black" stroke="black" points="958.48,-674.78 949.91,-681.01 960.49,-681.49 958.48,-674.78"/>
</g>
<!-- bwidow -->
<g id="node30" class="node">
<title>bwidow</title>
<ellipse fill="none" stroke="blue" cx="1227.5" cy="-265.35" rx="61.99" ry="18"/>
<text text-anchor="middle" x="1227.5" y="-261.65" font-family="Arial" font-size="14.00">Black Widow</text>
</g>
<!-- bwidow&#45;&gt;civilwar -->
<g id="edge18" class="edge">
<title>bwidow&#45;&gt;civilwar</title>
<path fill="none" stroke="black" d="M1230.94,-283.62C1240.95,-333.88 1270.25,-480.9 1284.09,-550.38"/>
<polygon fill="black" stroke="black" points="1280.65,-551.02 1286.03,-560.14 1287.51,-549.65 1280.65,-551.02"/>
</g>
<!-- shangchi -->
<g id="node31" class="node">
<title>shangchi</title>
<ellipse fill="none" stroke="blue" cx="306.5" cy="-588.57" rx="134.2" ry="26.74"/>
<text text-anchor="middle" x="306.5" y="-592.37" font-family="Arial" font-size="14.00">Shang&#45;Chi:</text>
<text text-anchor="middle" x="306.5" y="-577.37" font-family="Arial" font-size="14.00">The Legend of the Ten Rings</text>
</g>
<!-- shangchi&#45;&gt;ironman3 -->
<g id="edge41" class="edge">
<title>shangchi&#45;&gt;ironman3</title>
<path fill="none" stroke="black" d="M306.5,-615.71C306.5,-631.21 306.5,-650.86 306.5,-666.76"/>
<polygon fill="black" stroke="black" points="303,-666.55 306.5,-676.55 310,-666.55 303,-666.55"/>
</g>
<!-- eternals -->
<g id="node32" class="node">
<title>eternals</title>
<ellipse fill="none" stroke="blue" cx="1664.5" cy="-49.87" rx="60.39" ry="18"/>
<text text-anchor="middle" x="1664.5" y="-46.17" font-family="Arial" font-size="14.00">The Eternals</text>
</g>
<!-- hawkeye -->
<g id="node33" class="node">
<title>hawkeye</title>
<polygon fill="none" stroke="blue" points="1357.5,-175.61 1285.5,-175.61 1285.5,-139.61 1357.5,-139.61 1357.5,-175.61"/>
<text text-anchor="middle" x="1321.5" y="-153.91" font-family="Arial" font-size="14.00">Hawkeye</text>
</g>
<!-- hawkeye&#45;&gt;endgame -->
<g id="edge57" class="edge">
<title>hawkeye&#45;&gt;endgame</title>
<path fill="none" stroke="black" d="M1294.56,-175.89C1288.77,-179.09 1282.56,-182.15 1276.5,-184.48 1249.05,-195.02 1079.79,-229.54 979.29,-249.58"/>
<polygon fill="black" stroke="black" points="978.9,-246.09 969.77,-251.48 980.26,-252.96 978.9,-246.09"/>
</g>
<!-- hawkeye&#45;&gt;bwidow -->
<g id="edge59" class="edge">
<title>hawkeye&#45;&gt;bwidow</title>
<path fill="none" stroke="black" d="M1305.98,-176.07C1290.69,-193.26 1267.19,-219.7 1249.89,-239.17"/>
<polygon fill="black" stroke="black" points="1247.46,-236.63 1243.43,-246.43 1252.69,-241.28 1247.46,-236.63"/>
</g>
<!-- daredevil3 -->
<g id="node62" class="node">
<title>daredevil3</title>
<polygon fill="none" stroke="blue" points="1859.5,-284.35 1785.5,-284.35 1785.5,-246.35 1859.5,-246.35 1859.5,-284.35"/>
<text text-anchor="middle" x="1822.5" y="-269.15" font-family="Arial" font-size="14.00">Daredevil</text>
<text text-anchor="middle" x="1822.5" y="-254.15" font-family="Arial" font-size="14.00">Season 3</text>
</g>
<!-- hawkeye&#45;&gt;daredevil3 -->
<g id="edge58" class="edge">
<title>hawkeye&#45;&gt;daredevil3</title>
<path fill="none" stroke="black" d="M1347.25,-176.01C1353.33,-179.37 1359.95,-182.47 1366.5,-184.48 1453.83,-211.35 1694.07,-175.93 1776.5,-215.35 1786.97,-220.36 1796.25,-228.87 1803.68,-237.41"/>
<polygon fill="black" stroke="black" points="1800.78,-239.39 1809.78,-244.99 1806.24,-235 1800.78,-239.39"/>
</g>
<!-- spidey3 -->
<g id="node34" class="node">
<title>spidey3</title>
<ellipse fill="none" stroke="blue" cx="827.5" cy="-49.87" rx="74.49" ry="26.74"/>
<text text-anchor="middle" x="827.5" y="-53.67" font-family="Arial" font-size="14.00">Spider&#45;Man:</text>
<text text-anchor="middle" x="827.5" y="-38.67" font-family="Arial" font-size="14.00">No Way Home</text>
</g>
<!-- spidey3&#45;&gt;spidey2 -->
<g id="edge25" class="edge">
<title>spidey3&#45;&gt;spidey2</title>
<path fill="none" stroke="black" d="M828.49,-77.01C828.97,-89.72 829.56,-105.22 830.08,-119.16"/>
<polygon fill="black" stroke="black" points="826.58,-119.03 830.45,-128.89 833.57,-118.77 826.58,-119.03"/>
</g>
<!-- moonknight -->
<g id="node35" class="node">
<title>moonknight</title>
<polygon fill="none" stroke="blue" points="1836,-67.87 1743,-67.87 1743,-31.87 1836,-31.87 1836,-67.87"/>
<text text-anchor="middle" x="1789.5" y="-46.17" font-family="Arial" font-size="14.00">Moon Knight</text>
</g>
<!-- docstrange2 -->
<g id="node36" class="node">
<title>docstrange2</title>
<ellipse fill="none" stroke="blue" cx="1161.5" cy="-49.87" rx="108.38" ry="26.74"/>
<text text-anchor="middle" x="1161.5" y="-53.67" font-family="Arial" font-size="14.00">Doctor Strange 2:</text>
<text text-anchor="middle" x="1161.5" y="-38.67" font-family="Arial" font-size="14.00">Multiverse of Madness</text>
</g>
<!-- docstrange2&#45;&gt;wandavision -->
<g id="edge28" class="edge">
<title>docstrange2&#45;&gt;wandavision</title>
<path fill="none" stroke="black" d="M1103.1,-72.77C1080.89,-82.16 1055.81,-94.1 1034.5,-107.61 1023.64,-114.49 1012.7,-123.34 1003.35,-131.61"/>
<polygon fill="black" stroke="black" points="1001.07,-128.95 996.04,-138.27 1005.79,-134.12 1001.07,-128.95"/>
</g>
<!-- msmarvel -->
<g id="node37" class="node">
<title>msmarvel</title>
<polygon fill="none" stroke="blue" points="1669.5,-175.61 1585.5,-175.61 1585.5,-139.61 1669.5,-139.61 1669.5,-175.61"/>
<text text-anchor="middle" x="1627.5" y="-153.91" font-family="Arial" font-size="14.00">Ms. Marvel</text>
</g>
<!-- thor4 -->
<g id="node38" class="node">
<title>thor4</title>
<ellipse fill="none" stroke="blue" cx="255.5" cy="-157.61" rx="104.78" ry="18"/>
<text text-anchor="middle" x="255.5" y="-153.91" font-family="Arial" font-size="14.00">Thor: Love and Thunder</text>
</g>
<!-- thor4&#45;&gt;endgame -->
<g id="edge65" class="edge">
<title>thor4&#45;&gt;endgame</title>
<path fill="none" stroke="black" d="M311.5,-173.22C329.58,-177.45 349.79,-181.69 368.5,-184.48 558.44,-212.85 613.62,-167.08 799.5,-215.35 818.71,-220.34 838.7,-228.76 856.02,-237.22"/>
<polygon fill="black" stroke="black" points="854.03,-240.14 864.54,-241.51 857.18,-233.88 854.03,-240.14"/>
</g>
<!-- shehulk -->
<g id="node39" class="node">
<title>shehulk</title>
<polygon fill="none" stroke="blue" points="1447.5,-175.61 1375.5,-175.61 1375.5,-139.61 1447.5,-139.61 1447.5,-175.61"/>
<text text-anchor="middle" x="1411.5" y="-153.91" font-family="Arial" font-size="14.00">She&#45;Hulk</text>
</g>
<!-- shehulk&#45;&gt;endgame -->
<g id="edge60" class="edge">
<title>shehulk&#45;&gt;endgame</title>
<path fill="none" stroke="black" d="M1385.16,-175.93C1379.22,-179.21 1372.8,-182.3 1366.5,-184.48 1277.37,-215.39 1249.49,-199.48 1156.5,-215.35 1096.56,-225.58 1028.93,-238.82 978.84,-248.96"/>
<polygon fill="black" stroke="black" points="978.37,-245.48 969.27,-250.9 979.77,-252.34 978.37,-245.48"/>
</g>
<!-- shehulk&#45;&gt;daredevil3 -->
<g id="edge61" class="edge">
<title>shehulk&#45;&gt;daredevil3</title>
<path fill="none" stroke="black" d="M1437.28,-175.91C1443.36,-179.27 1449.98,-182.4 1456.5,-184.48 1592.62,-227.93 1648.25,-152.36 1776.5,-215.35 1786.92,-220.47 1796.18,-229 1803.62,-237.53"/>
<polygon fill="black" stroke="black" points="1800.72,-239.51 1809.73,-245.09 1806.17,-235.11 1800.72,-239.51"/>
</g>
<!-- werewolf -->
<g id="node40" class="node">
<title>werewolf</title>
<polygon fill="none" stroke="blue" points="1980.5,-67.87 1854.5,-67.87 1854.5,-31.87 1980.5,-31.87 1980.5,-67.87"/>
<text text-anchor="middle" x="1917.5" y="-46.17" font-family="Arial" font-size="14.00">Werewolf by Night</text>
</g>
<!-- guardiansxmas -->
<g id="node41" class="node">
<title>guardiansxmas</title>
<polygon fill="none" stroke="blue" points="573.5,-68.87 409.5,-68.87 409.5,-30.87 573.5,-30.87 573.5,-68.87"/>
<text text-anchor="middle" x="491.5" y="-53.67" font-family="Arial" font-size="14.00">Guardians of the Galaxy</text>
<text text-anchor="middle" x="491.5" y="-38.67" font-family="Arial" font-size="14.00">Christmas Special</text>
</g>
<!-- guardians3 -->
<g id="node43" class="node">
<title>guardians3</title>
<ellipse fill="none" stroke="green" cx="491.5" cy="-157.61" rx="113.98" ry="18"/>
<text text-anchor="middle" x="491.5" y="-153.91" font-family="Arial" font-size="14.00">Guardians of the Galaxy 3</text>
</g>
<!-- guardiansxmas&#45;&gt;guardians3 -->
<g id="edge66" class="edge">
<title>guardiansxmas&#45;&gt;guardians3</title>
<path fill="none" stroke="black" d="M491.5,-69.29C491.5,-85.5 491.5,-109.37 491.5,-128.05"/>
<polygon fill="black" stroke="black" points="488,-127.94 491.5,-137.94 495,-127.94 488,-127.94"/>
</g>
<!-- antman3 -->
<g id="node42" class="node">
<title>antman3</title>
<ellipse fill="none" stroke="green" cx="1155.5" cy="-157.61" rx="112.36" ry="26.74"/>
<text text-anchor="middle" x="1155.5" y="-161.41" font-family="Arial" font-size="14.00">Ant&#45;Man and the Wasp:</text>
<text text-anchor="middle" x="1155.5" y="-146.41" font-family="Arial" font-size="14.00">Quantumania</text>
</g>
<!-- antman3&#45;&gt;endgame -->
<g id="edge35" class="edge">
<title>antman3&#45;&gt;endgame</title>
<path fill="none" stroke="black" d="M1101.35,-181.42C1060.38,-198.68 1004.23,-222.34 962.38,-239.97"/>
<polygon fill="black" stroke="black" points="961.05,-236.73 953.19,-243.84 963.76,-243.18 961.05,-236.73"/>
</g>
<!-- antman3&#45;&gt;loki1 -->
<g id="edge27" class="edge">
<title>antman3&#45;&gt;loki1</title>
<path fill="none" stroke="black" d="M1227.63,-178.36C1251.71,-187.17 1277.68,-199.27 1298.5,-215.35 1306.34,-221.4 1313.27,-229.6 1318.9,-237.56"/>
<polygon fill="black" stroke="black" points="1315.86,-239.3 1324.27,-245.73 1321.7,-235.45 1315.86,-239.3"/>
</g>
<!-- guardians3&#45;&gt;endgame -->
<g id="edge36" class="edge">
<title>guardians3&#45;&gt;endgame</title>
<path fill="none" stroke="black" d="M556.51,-172.82C575.2,-176.75 595.63,-180.92 614.5,-184.48 696.42,-199.92 719.89,-190.64 799.5,-215.35 817.96,-221.08 837.35,-229.41 854.37,-237.58"/>
<polygon fill="black" stroke="black" points="852.76,-240.69 863.28,-241.95 855.84,-234.4 852.76,-240.69"/>
</g>
<!-- secretinvasion -->
<g id="node44" class="node">
<title>secretinvasion</title>
<polygon fill="none" stroke="green" points="733.5,-175.61 623.5,-175.61 623.5,-139.61 733.5,-139.61 733.5,-175.61"/>
<text text-anchor="middle" x="678.5" y="-153.91" font-family="Arial" font-size="14.00">Secret Invasion</text>
</g>
<!-- secretinvasion&#45;&gt;endgame -->
<g id="edge62" class="edge">
<title>secretinvasion&#45;&gt;endgame</title>
<path fill="none" stroke="black" d="M715.82,-176.07C752.34,-193.16 808.38,-219.38 849.91,-238.81"/>
<polygon fill="black" stroke="black" points="848.22,-241.88 858.77,-242.95 851.19,-235.54 848.22,-241.88"/>
</g>
<!-- loki2 -->
<g id="node45" class="node">
<title>loki2</title>
<polygon fill="none" stroke="green" points="1567.5,-175.61 1465.5,-175.61 1465.5,-139.61 1567.5,-139.61 1567.5,-175.61"/>
<text text-anchor="middle" x="1516.5" y="-153.91" font-family="Arial" font-size="14.00">Loki Season 2</text>
</g>
<!-- loki2&#45;&gt;loki1 -->
<g id="edge55" class="edge">
<title>loki2&#45;&gt;loki1</title>
<path fill="none" stroke="black" d="M1486.45,-176.07C1454.93,-194.38 1405.35,-223.18 1371.46,-242.88"/>
<polygon fill="black" stroke="black" points="1370.11,-239.61 1363.23,-247.66 1373.63,-245.66 1370.11,-239.61"/>
</g>
<!-- themarvels -->
<g id="node46" class="node">
<title>themarvels</title>
<ellipse fill="none" stroke="green" cx="1526.5" cy="-49.87" rx="59.59" ry="18"/>
<text text-anchor="middle" x="1526.5" y="-46.17" font-family="Arial" font-size="14.00">The Marvels</text>
</g>
<!-- themarvels&#45;&gt;wandavision -->
<g id="edge37" class="edge">
<title>themarvels&#45;&gt;wandavision</title>
<path fill="none" stroke="black" d="M1475.2,-59.49C1441.76,-64.93 1397.12,-71.82 1357.5,-76.74 1214.39,-94.52 1167.18,-51.1 1034.5,-107.61 1021.81,-113.01 1009.89,-122.3 1000.26,-131.35"/>
<polygon fill="black" stroke="black" points="997.79,-128.87 993.18,-138.41 1002.73,-133.83 997.79,-128.87"/>
</g>
<!-- themarvels&#45;&gt;msmarvel -->
<g id="edge38" class="edge">
<title>themarvels&#45;&gt;msmarvel</title>
<path fill="none" stroke="black" d="M1542.28,-67.39C1558.52,-84.39 1584.04,-111.11 1602.93,-130.88"/>
<polygon fill="black" stroke="black" points="1600.34,-133.24 1609.78,-138.05 1605.4,-128.41 1600.34,-133.24"/>
</g>
<!-- echo -->
<g id="node47" class="node">
<title>echo</title>
<polygon fill="none" stroke="green" points="1348.5,-67.87 1294.5,-67.87 1294.5,-31.87 1348.5,-31.87 1348.5,-67.87"/>
<text text-anchor="middle" x="1321.5" y="-46.17" font-family="Arial" font-size="14.00">Echo</text>
</g>
<!-- echo&#45;&gt;hawkeye -->
<g id="edge67" class="edge">
<title>echo&#45;&gt;hawkeye</title>
<path fill="none" stroke="black" d="M1321.5,-68.33C1321.5,-84.48 1321.5,-108.78 1321.5,-127.8"/>
<polygon fill="black" stroke="black" points="1318,-127.61 1321.5,-137.61 1325,-127.61 1318,-127.61"/>
</g>
<!-- darkhold -->
<g id="node48" class="node">
<title>darkhold</title>
<polygon fill="none" stroke="green" points="1035.5,-68.87 919.5,-68.87 919.5,-30.87 1035.5,-30.87 1035.5,-68.87"/>
<text text-anchor="middle" x="977.5" y="-53.67" font-family="Arial" font-size="14.00">Agatha:</text>
<text text-anchor="middle" x="977.5" y="-38.67" font-family="Arial" font-size="14.00">Darkhold Diaries</text>
</g>
<!-- darkhold&#45;&gt;wandavision -->
<g id="edge63" class="edge">
<title>darkhold&#45;&gt;wandavision</title>
<path fill="none" stroke="black" d="M977.5,-69.29C977.5,-85.5 977.5,-109.37 977.5,-128.05"/>
<polygon fill="black" stroke="black" points="974,-127.94 977.5,-137.94 981,-127.94 974,-127.94"/>
</g>
<!-- agentshield -->
<g id="node49" class="node">
<title>agentshield</title>
<polygon fill="none" stroke="red" points="154,-606.57 5,-606.57 5,-570.57 154,-570.57 154,-606.57"/>
<text text-anchor="middle" x="79.5" y="-584.87" font-family="Arial" font-size="14.00">Agents of S.H.I.E.L.D.</text>
</g>
<!-- agentshield&#45;&gt;ironman3 -->
<g id="edge42" class="edge">
<title>agentshield&#45;&gt;ironman3</title>
<path fill="none" stroke="black" d="M116.98,-607.03C158.08,-626.17 223.78,-656.78 266.03,-676.46"/>
<polygon fill="black" stroke="black" points="264.32,-679.52 274.86,-680.57 267.27,-673.18 264.32,-679.52"/>
</g>
<!-- agentcarter1 -->
<g id="node50" class="node">
<title>agentcarter1</title>
<polygon fill="none" stroke="red" points="1480,-815.18 1387,-815.18 1387,-777.18 1480,-777.18 1480,-815.18"/>
<text text-anchor="middle" x="1433.5" y="-799.98" font-family="Arial" font-size="14.00">Agent Carter</text>
<text text-anchor="middle" x="1433.5" y="-784.98" font-family="Arial" font-size="14.00">Season 1</text>
</g>
<!-- agentcarter1&#45;&gt;capamerica1 -->
<g id="edge39" class="edge">
<title>agentcarter1&#45;&gt;capamerica1</title>
<path fill="none" stroke="black" d="M1427.1,-815.59C1423.09,-827.15 1417.76,-842.5 1412.85,-856.62"/>
<polygon fill="black" stroke="black" points="1409.68,-855.07 1409.71,-865.66 1416.3,-857.37 1409.68,-855.07"/>
</g>
<!-- agentcarter2 -->
<g id="node51" class="node">
<title>agentcarter2</title>
<polygon fill="none" stroke="red" points="1515,-715.31 1422,-715.31 1422,-677.31 1515,-677.31 1515,-715.31"/>
<text text-anchor="middle" x="1468.5" y="-700.11" font-family="Arial" font-size="14.00">Agent Carter</text>
<text text-anchor="middle" x="1468.5" y="-685.11" font-family="Arial" font-size="14.00">Season 2</text>
</g>
<!-- agentcarter2&#45;&gt;agentcarter1 -->
<g id="edge40" class="edge">
<title>agentcarter2&#45;&gt;agentcarter1</title>
<path fill="none" stroke="black" d="M1461.92,-715.72C1456.83,-729.94 1449.7,-749.88 1443.86,-766.22"/>
<polygon fill="black" stroke="black" points="1440.64,-764.83 1440.56,-775.43 1447.23,-767.19 1440.64,-764.83"/>
</g>
<!-- daredevil1 -->
<g id="node52" class="node">
<title>daredevil1</title>
<polygon fill="none" stroke="blue" points="2071.5,-284.35 1997.5,-284.35 1997.5,-246.35 2071.5,-246.35 2071.5,-284.35"/>
<text text-anchor="middle" x="2034.5" y="-269.15" font-family="Arial" font-size="14.00">Daredevil</text>
<text text-anchor="middle" x="2034.5" y="-254.15" font-family="Arial" font-size="14.00">Season 1</text>
</g>
<!-- defenders -->
<g id="node57" class="node">
<title>defenders</title>
<polygon fill="none" stroke="blue" points="2034.5,-391.09 1928.5,-391.09 1928.5,-355.09 2034.5,-355.09 2034.5,-391.09"/>
<text text-anchor="middle" x="1981.5" y="-369.39" font-family="Arial" font-size="14.00">The Defenders</text>
</g>
<!-- daredevil1&#45;&gt;defenders -->
<g id="edge44" class="edge">
<title>daredevil1&#45;&gt;defenders</title>
<path fill="none" stroke="black" d="M2025.27,-284.77C2016.95,-301.37 2004.61,-325.99 1995.15,-344.86"/>
<polygon fill="black" stroke="black" points="1992.13,-343.07 1990.78,-353.58 1998.39,-346.21 1992.13,-343.07"/>
</g>
<!-- jjones1 -->
<g id="node53" class="node">
<title>jjones1</title>
<polygon fill="none" stroke="blue" points="2032,-499.83 1931,-499.83 1931,-461.83 2032,-461.83 2032,-499.83"/>
<text text-anchor="middle" x="1981.5" y="-484.63" font-family="Arial" font-size="14.00">Jessica Jones</text>
<text text-anchor="middle" x="1981.5" y="-469.63" font-family="Arial" font-size="14.00">Season 1</text>
</g>
<!-- daredevil2 -->
<g id="node54" class="node">
<title>daredevil2</title>
<polygon fill="none" stroke="blue" points="2071.5,-176.61 1997.5,-176.61 1997.5,-138.61 2071.5,-138.61 2071.5,-176.61"/>
<text text-anchor="middle" x="2034.5" y="-161.41" font-family="Arial" font-size="14.00">Daredevil</text>
<text text-anchor="middle" x="2034.5" y="-146.41" font-family="Arial" font-size="14.00">Season 2</text>
</g>
<!-- daredevil2&#45;&gt;daredevil1 -->
<g id="edge43" class="edge">
<title>daredevil2&#45;&gt;daredevil1</title>
<path fill="none" stroke="black" d="M2034.5,-177.03C2034.5,-192.95 2034.5,-216.25 2034.5,-234.78"/>
<polygon fill="black" stroke="black" points="2031,-234.63 2034.5,-244.63 2038,-234.63 2031,-234.63"/>
</g>
<!-- lukecage1 -->
<g id="node55" class="node">
<title>lukecage1</title>
<polygon fill="none" stroke="blue" points="2132.5,-499.83 2050.5,-499.83 2050.5,-461.83 2132.5,-461.83 2132.5,-499.83"/>
<text text-anchor="middle" x="2091.5" y="-484.63" font-family="Arial" font-size="14.00">Luke Cage</text>
<text text-anchor="middle" x="2091.5" y="-469.63" font-family="Arial" font-size="14.00">Season 1</text>
</g>
<!-- ironfist1 -->
<g id="node56" class="node">
<title>ironfist1</title>
<polygon fill="none" stroke="blue" points="1912.5,-499.83 1838.5,-499.83 1838.5,-461.83 1912.5,-461.83 1912.5,-499.83"/>
<text text-anchor="middle" x="1875.5" y="-484.63" font-family="Arial" font-size="14.00">Iron Fist</text>
<text text-anchor="middle" x="1875.5" y="-469.63" font-family="Arial" font-size="14.00">Season 1</text>
</g>
<!-- defenders&#45;&gt;jjones1 -->
<g id="edge45" class="edge">
<title>defenders&#45;&gt;jjones1</title>
<path fill="none" stroke="black" d="M1981.5,-391.55C1981.5,-407.51 1981.5,-431.42 1981.5,-450.34"/>
<polygon fill="black" stroke="black" points="1978,-450.12 1981.5,-460.12 1985,-450.12 1978,-450.12"/>
</g>
<!-- defenders&#45;&gt;lukecage1 -->
<g id="edge46" class="edge">
<title>defenders&#45;&gt;lukecage1</title>
<path fill="none" stroke="black" d="M1999.66,-391.55C2017.28,-408.49 2044.24,-434.4 2064.4,-453.78"/>
<polygon fill="black" stroke="black" points="2061.84,-456.18 2071.48,-460.59 2066.7,-451.13 2061.84,-456.18"/>
</g>
<!-- defenders&#45;&gt;ironfist1 -->
<g id="edge47" class="edge">
<title>defenders&#45;&gt;ironfist1</title>
<path fill="none" stroke="black" d="M1964,-391.55C1947.09,-408.41 1921.27,-434.17 1901.88,-453.52"/>
<polygon fill="black" stroke="black" points="1899.42,-451.03 1894.81,-460.57 1904.36,-455.98 1899.42,-451.03"/>
</g>
<!-- punisher1 -->
<g id="node58" class="node">
<title>punisher1</title>
<polygon fill="none" stroke="blue" points="2187,-284.35 2090,-284.35 2090,-246.35 2187,-246.35 2187,-284.35"/>
<text text-anchor="middle" x="2138.5" y="-269.15" font-family="Arial" font-size="14.00">The Punisher</text>
<text text-anchor="middle" x="2138.5" y="-254.15" font-family="Arial" font-size="14.00">Season 1</text>
</g>
<!-- punisher1&#45;&gt;defenders -->
<g id="edge52" class="edge">
<title>punisher1&#45;&gt;defenders</title>
<path fill="none" stroke="black" d="M2111.15,-284.77C2084.87,-302.47 2045.03,-329.3 2016.46,-348.55"/>
<polygon fill="black" stroke="black" points="2014.83,-345.42 2008.49,-353.91 2018.74,-351.23 2014.83,-345.42"/>
</g>
<!-- jjones2 -->
<g id="node59" class="node">
<title>jjones2</title>
<polygon fill="none" stroke="blue" points="1979,-284.35 1878,-284.35 1878,-246.35 1979,-246.35 1979,-284.35"/>
<text text-anchor="middle" x="1928.5" y="-269.15" font-family="Arial" font-size="14.00">Jessica Jones</text>
<text text-anchor="middle" x="1928.5" y="-254.15" font-family="Arial" font-size="14.00">Season 2</text>
</g>
<!-- jjones2&#45;&gt;defenders -->
<g id="edge49" class="edge">
<title>jjones2&#45;&gt;defenders</title>
<path fill="none" stroke="black" d="M1937.73,-284.77C1946.05,-301.37 1958.39,-325.99 1967.85,-344.86"/>
<polygon fill="black" stroke="black" points="1964.61,-346.21 1972.22,-353.58 1970.87,-343.07 1964.61,-346.21"/>
</g>
<!-- lukecage2 -->
<g id="node60" class="node">
<title>lukecage2</title>
<polygon fill="none" stroke="blue" points="1767.5,-284.35 1685.5,-284.35 1685.5,-246.35 1767.5,-246.35 1767.5,-284.35"/>
<text text-anchor="middle" x="1726.5" y="-269.15" font-family="Arial" font-size="14.00">Luke Cage</text>
<text text-anchor="middle" x="1726.5" y="-254.15" font-family="Arial" font-size="14.00">Season 2</text>
</g>
<!-- lukecage2&#45;&gt;defenders -->
<g id="edge50" class="edge">
<title>lukecage2&#45;&gt;defenders</title>
<path fill="none" stroke="black" d="M1760.96,-284.78C1766.13,-287.37 1771.42,-289.93 1776.5,-292.22 1824.59,-313.95 1880.48,-335.49 1921.74,-350.71"/>
<polygon fill="black" stroke="black" points="1920.42,-353.96 1931.02,-354.12 1922.83,-347.39 1920.42,-353.96"/>
</g>
<!-- ironfist2 -->
<g id="node61" class="node">
<title>ironfist2</title>
<polygon fill="none" stroke="blue" points="2279.5,-284.35 2205.5,-284.35 2205.5,-246.35 2279.5,-246.35 2279.5,-284.35"/>
<text text-anchor="middle" x="2242.5" y="-269.15" font-family="Arial" font-size="14.00">Iron Fist</text>
<text text-anchor="middle" x="2242.5" y="-254.15" font-family="Arial" font-size="14.00">Season 2</text>
</g>
<!-- ironfist2&#45;&gt;defenders -->
<g id="edge51" class="edge">
<title>ironfist2&#45;&gt;defenders</title>
<path fill="none" stroke="black" d="M2211.17,-284.83C2206.32,-287.44 2201.32,-289.99 2196.5,-292.22 2146.88,-315.22 2088.61,-336.53 2045.26,-351.35"/>
<polygon fill="black" stroke="black" points="2044.35,-347.96 2036,-354.48 2046.6,-354.59 2044.35,-347.96"/>
</g>
<!-- daredevil3&#45;&gt;defenders -->
<g id="edge48" class="edge">
<title>daredevil3&#45;&gt;defenders</title>
<path fill="none" stroke="black" d="M1850.2,-284.77C1876.81,-302.47 1917.16,-329.3 1946.1,-348.55"/>
<polygon fill="black" stroke="black" points="1943.91,-351.3 1954.18,-353.92 1947.79,-345.47 1943.91,-351.3"/>
</g>
<!-- punisher2 -->
<g id="node63" class="node">
<title>punisher2</title>
<polygon fill="none" stroke="blue" points="2187,-176.61 2090,-176.61 2090,-138.61 2187,-138.61 2187,-176.61"/>
<text text-anchor="middle" x="2138.5" y="-161.41" font-family="Arial" font-size="14.00">The Punisher</text>
<text text-anchor="middle" x="2138.5" y="-146.41" font-family="Arial" font-size="14.00">Season 2</text>
</g>
<!-- punisher2&#45;&gt;punisher1 -->
<g id="edge53" class="edge">
<title>punisher2&#45;&gt;punisher1</title>
<path fill="none" stroke="black" d="M2138.5,-177.03C2138.5,-192.95 2138.5,-216.25 2138.5,-234.78"/>
<polygon fill="black" stroke="black" points="2135,-234.63 2138.5,-244.63 2142,-234.63 2135,-234.63"/>
</g>
<!-- jjones3 -->
<g id="node64" class="node">
<title>jjones3</title>
<polygon fill="none" stroke="blue" points="1979,-176.61 1878,-176.61 1878,-138.61 1979,-138.61 1979,-176.61"/>
<text text-anchor="middle" x="1928.5" y="-161.41" font-family="Arial" font-size="14.00">Jessica Jones</text>
<text text-anchor="middle" x="1928.5" y="-146.41" font-family="Arial" font-size="14.00">Season 3</text>
</g>
<!-- jjones3&#45;&gt;jjones2 -->
<g id="edge54" class="edge">
<title>jjones3&#45;&gt;jjones2</title>
<path fill="none" stroke="black" d="M1928.5,-177.03C1928.5,-192.95 1928.5,-216.25 1928.5,-234.78"/>
<polygon fill="black" stroke="black" points="1925,-234.63 1928.5,-244.63 1932,-234.63 1925,-234.63"/>
</g>
</g>
</svg>
