<?xml version="1.0" encoding="UTF-8" standalone="no"?>
<!DOCTYPE svg PUBLIC "-//W3C//DTD SVG 1.1//EN"
 "http://www.w3.org/Graphics/SVG/1.1/DTD/svg11.dtd">
<!-- Generated by graphviz version 7.0.1 (20221109.1506)
 -->
<!-- Title: mcu Pages: 1 -->
<svg width="2178pt" height="1021pt"
 viewBox="0.00 0.00 2178.00 1020.92" xmlns="http://www.w3.org/2000/svg" xmlns:xlink="http://www.w3.org/1999/xlink">
<g id="graph0" class="graph" transform="scale(1 1) rotate(0) translate(4 1016.92)">
<title>mcu</title>
<polygon fill="white" stroke="none" points="-4,4 -4,-1016.92 2174,-1016.92 2174,4 -4,4"/>
<text text-anchor="middle" x="1085" y="-7.8" font-family="Arial" font-size="14.00">Marvel Cinematic Universe Dependency Chart</text>
<g id="clust1" class="cluster">
<title>cluster_defenders</title>
</g>
<!-- ironman1 -->
<g id="node1" class="node">
<title>ironman1</title>
<ellipse fill="none" stroke="red" stroke-width="5" cx="1146" cy="-994.92" rx="46.29" ry="18"/>
<text text-anchor="middle" x="1146" y="-991.22" font-family="Arial" font-size="14.00">Iron Man</text>
</g>
<!-- thehulk -->
<g id="node2" class="node">
<title>thehulk</title>
<ellipse fill="none" stroke="red" stroke-width="5" cx="1304" cy="-896.05" rx="86.38" ry="18"/>
<text text-anchor="middle" x="1304" y="-892.35" font-family="Arial" font-size="14.00">The Incredible Hulk</text>
</g>
<!-- ironman2 -->
<g id="node3" class="node">
<title>ironman2</title>
<ellipse fill="none" stroke="red" cx="1146" cy="-896.05" rx="53.09" ry="18"/>
<text text-anchor="middle" x="1146" y="-892.35" font-family="Arial" font-size="14.00">Iron Man 2</text>
</g>
<!-- ironman2&#45;&gt;ironman1 -->
<g id="edge1" class="edge">
<title>ironman2&#45;&gt;ironman1</title>
<path fill="none" stroke="black" d="M1146,-914.37C1146,-927.94 1146,-947.18 1146,-963.33"/>
<polygon fill="black" stroke="black" points="1142.5,-962.91 1146,-972.91 1149.5,-962.91 1142.5,-962.91"/>
</g>
<!-- capamerica1 -->
<g id="node4" class="node">
<title>capamerica1</title>
<ellipse fill="none" stroke="red" stroke-width="5" cx="1625" cy="-896.05" rx="87.86" ry="26.74"/>
<text text-anchor="middle" x="1625" y="-899.85" font-family="Arial" font-size="14.00">Captain America:</text>
<text text-anchor="middle" x="1625" y="-884.85" font-family="Arial" font-size="14.00">The First Avenger</text>
</g>
<!-- thor1 -->
<g id="node5" class="node">
<title>thor1</title>
<ellipse fill="none" stroke="red" stroke-width="5" cx="1046" cy="-896.05" rx="28.7" ry="18"/>
<text text-anchor="middle" x="1046" y="-892.35" font-family="Arial" font-size="14.00">Thor</text>
</g>
<!-- avengers -->
<g id="node6" class="node">
<title>avengers</title>
<ellipse fill="none" stroke="red" cx="1146" cy="-796.18" rx="65.79" ry="18"/>
<text text-anchor="middle" x="1146" y="-792.48" font-family="Arial" font-size="14.00">The Avengers</text>
</g>
<!-- avengers&#45;&gt;thehulk -->
<g id="edge5" class="edge">
<title>avengers&#45;&gt;thehulk</title>
<path fill="none" stroke="black" d="M1171.74,-813.12C1197.03,-828.79 1235.97,-852.91 1265.06,-870.93"/>
<polygon fill="black" stroke="black" points="1262.88,-873.7 1273.22,-875.99 1266.56,-867.74 1262.88,-873.7"/>
</g>
<!-- avengers&#45;&gt;ironman2 -->
<g id="edge2" class="edge">
<title>avengers&#45;&gt;ironman2</title>
<path fill="none" stroke="black" d="M1146,-814.68C1146,-829.01 1146,-849.59 1146,-866.33"/>
<polygon fill="black" stroke="black" points="1142.5,-866.19 1146,-876.19 1149.5,-866.19 1142.5,-866.19"/>
</g>
<!-- avengers&#45;&gt;capamerica1 -->
<g id="edge4" class="edge">
<title>avengers&#45;&gt;capamerica1</title>
<path fill="none" stroke="black" d="M1197.72,-807.75C1279.59,-824.48 1439.94,-857.24 1539.23,-877.53"/>
<polygon fill="black" stroke="black" points="1538.45,-880.94 1548.95,-879.51 1539.85,-874.08 1538.45,-880.94"/>
</g>
<!-- avengers&#45;&gt;thor1 -->
<g id="edge3" class="edge">
<title>avengers&#45;&gt;thor1</title>
<path fill="none" stroke="black" d="M1129.04,-813.78C1112.9,-829.58 1088.44,-853.51 1070.25,-871.32"/>
<polygon fill="black" stroke="black" points="1068.16,-868.46 1063.46,-877.96 1073.06,-873.47 1068.16,-868.46"/>
</g>
<!-- ironman3 -->
<g id="node7" class="node">
<title>ironman3</title>
<ellipse fill="none" stroke="orange" cx="1146" cy="-696.31" rx="53.09" ry="18"/>
<text text-anchor="middle" x="1146" y="-692.61" font-family="Arial" font-size="14.00">Iron Man 3</text>
</g>
<!-- ironman3&#45;&gt;avengers -->
<g id="edge6" class="edge">
<title>ironman3&#45;&gt;avengers</title>
<path fill="none" stroke="black" d="M1146,-714.81C1146,-729.14 1146,-749.72 1146,-766.46"/>
<polygon fill="black" stroke="black" points="1142.5,-766.32 1146,-776.32 1149.5,-766.32 1142.5,-766.32"/>
</g>
<!-- thor2 -->
<g id="node8" class="node">
<title>thor2</title>
<ellipse fill="none" stroke="orange" cx="520" cy="-696.31" rx="77.19" ry="18"/>
<text text-anchor="middle" x="520" y="-692.61" font-family="Arial" font-size="14.00">Thor: Dark World</text>
</g>
<!-- thor2&#45;&gt;avengers -->
<g id="edge7" class="edge">
<title>thor2&#45;&gt;avengers</title>
<path fill="none" stroke="black" d="M582.89,-707.14C701.38,-725.67 956.72,-765.59 1078.6,-784.64"/>
<polygon fill="black" stroke="black" points="1078.05,-788.1 1088.47,-786.19 1079.13,-781.18 1078.05,-788.1"/>
</g>
<!-- capamerica2 -->
<g id="node9" class="node">
<title>capamerica2</title>
<ellipse fill="none" stroke="orange" cx="1318" cy="-696.31" rx="101.23" ry="26.74"/>
<text text-anchor="middle" x="1318" y="-700.11" font-family="Arial" font-size="14.00">Captain America and</text>
<text text-anchor="middle" x="1318" y="-685.11" font-family="Arial" font-size="14.00">the Winter Soldier</text>
</g>
<!-- capamerica2&#45;&gt;avengers -->
<g id="edge8" class="edge">
<title>capamerica2&#45;&gt;avengers</title>
<path fill="none" stroke="black" d="M1276.36,-721C1248.06,-737.1 1210.94,-758.23 1183.55,-773.82"/>
<polygon fill="black" stroke="black" points="1181.84,-770.76 1174.88,-778.75 1185.3,-776.84 1181.84,-770.76"/>
</g>
<!-- guardians1 -->
<g id="node10" class="node">
<title>guardians1</title>
<ellipse fill="none" stroke="orange" stroke-width="5" cx="880" cy="-696.31" rx="106.68" ry="18"/>
<text text-anchor="middle" x="880" y="-692.61" font-family="Arial" font-size="14.00">Guardians of the Galaxy</text>
</g>
<!-- ageofultron -->
<g id="node11" class="node">
<title>ageofultron</title>
<ellipse fill="none" stroke="orange" cx="1617" cy="-696.31" rx="73.58" ry="26.74"/>
<text text-anchor="middle" x="1617" y="-700.11" font-family="Arial" font-size="14.00">The Avengers:</text>
<text text-anchor="middle" x="1617" y="-685.11" font-family="Arial" font-size="14.00">Age of Ultron</text>
</g>
<!-- ageofultron&#45;&gt;avengers -->
<g id="edge10" class="edge">
<title>ageofultron&#45;&gt;avengers</title>
<path fill="none" stroke="black" d="M1563.68,-714.95C1553.87,-717.91 1543.67,-720.79 1534,-723.18 1423.08,-750.66 1291.99,-772.89 1214.1,-785.05"/>
<polygon fill="black" stroke="black" points="1213.84,-781.55 1204.49,-786.54 1214.91,-788.47 1213.84,-781.55"/>
</g>
<!-- antman -->
<g id="node12" class="node">
<title>antman</title>
<ellipse fill="none" stroke="orange" stroke-width="5" cx="1481" cy="-696.31" rx="44.39" ry="18"/>
<text text-anchor="middle" x="1481" y="-692.61" font-family="Arial" font-size="14.00">Ant&#45;Man</text>
</g>
<!-- civilwar -->
<g id="node13" class="node">
<title>civilwar</title>
<ellipse fill="none" stroke="purple" cx="1551" cy="-588.57" rx="85.62" ry="26.74"/>
<text text-anchor="middle" x="1551" y="-592.37" font-family="Arial" font-size="14.00">Captain America:</text>
<text text-anchor="middle" x="1551" y="-577.37" font-family="Arial" font-size="14.00">Civil War</text>
</g>
<!-- civilwar&#45;&gt;capamerica2 -->
<g id="edge11" class="edge">
<title>civilwar&#45;&gt;capamerica2</title>
<path fill="none" stroke="black" d="M1503.29,-611.22C1466.99,-627.7 1416.81,-650.47 1377.82,-668.16"/>
<polygon fill="black" stroke="black" points="1376.7,-664.83 1369.04,-672.15 1379.59,-671.2 1376.7,-664.83"/>
</g>
<!-- civilwar&#45;&gt;ageofultron -->
<g id="edge12" class="edge">
<title>civilwar&#45;&gt;ageofultron</title>
<path fill="none" stroke="black" d="M1566.98,-615.17C1575.49,-628.81 1586.08,-645.78 1595.33,-660.59"/>
<polygon fill="black" stroke="black" points="1592.1,-662.04 1600.37,-668.67 1598.04,-658.33 1592.1,-662.04"/>
</g>
<!-- civilwar&#45;&gt;antman -->
<g id="edge13" class="edge">
<title>civilwar&#45;&gt;antman</title>
<path fill="none" stroke="black" d="M1534.05,-615.17C1523.67,-630.86 1510.36,-650.96 1499.67,-667.11"/>
<polygon fill="black" stroke="black" points="1496.84,-665.05 1494.24,-675.32 1502.68,-668.91 1496.84,-665.05"/>
</g>
<!-- docstrange -->
<g id="node14" class="node">
<title>docstrange</title>
<ellipse fill="none" stroke="purple" stroke-width="5" cx="361" cy="-588.57" rx="69.59" ry="18"/>
<text text-anchor="middle" x="361" y="-584.87" font-family="Arial" font-size="14.00">Doctor Strange</text>
</g>
<!-- guardians2 -->
<g id="node15" class="node">
<title>guardians2</title>
<ellipse fill="none" stroke="purple" cx="880" cy="-588.57" rx="113.98" ry="18"/>
<text text-anchor="middle" x="880" y="-584.87" font-family="Arial" font-size="14.00">Guardians of the Galaxy 2</text>
</g>
<!-- guardians2&#45;&gt;guardians1 -->
<g id="edge14" class="edge">
<title>guardians2&#45;&gt;guardians1</title>
<path fill="none" stroke="black" d="M880,-607.03C880,-622.7 880,-646.04 880,-664.78"/>
<polygon fill="black" stroke="black" points="876.5,-664.52 880,-674.52 883.5,-664.52 876.5,-664.52"/>
</g>
<!-- spidey1 -->
<g id="node16" class="node">
<title>spidey1</title>
<ellipse fill="none" stroke="purple" cx="679" cy="-588.57" rx="69.09" ry="26.74"/>
<text text-anchor="middle" x="679" y="-592.37" font-family="Arial" font-size="14.00">Spider&#45;Man:</text>
<text text-anchor="middle" x="679" y="-577.37" font-family="Arial" font-size="14.00">Homecoming</text>
</g>
<!-- spidey1&#45;&gt;avengers -->
<g id="edge9" class="edge">
<title>spidey1&#45;&gt;avengers</title>
<path fill="none" stroke="black" d="M688.12,-615.53C700.37,-646.36 725.19,-696.9 764,-723.18 813.33,-756.59 976.34,-778.16 1072.75,-788.34"/>
<polygon fill="black" stroke="black" points="1072.35,-791.81 1082.66,-789.36 1073.07,-784.85 1072.35,-791.81"/>
</g>
<!-- thor3 -->
<g id="node17" class="node">
<title>thor3</title>
<ellipse fill="none" stroke="purple" cx="520" cy="-588.57" rx="71.49" ry="18"/>
<text text-anchor="middle" x="520" y="-584.87" font-family="Arial" font-size="14.00">Thor: Ragnorok</text>
</g>
<!-- thor3&#45;&gt;thor2 -->
<g id="edge15" class="edge">
<title>thor3&#45;&gt;thor2</title>
<path fill="none" stroke="black" d="M520,-607.03C520,-623.18 520,-647.48 520,-666.51"/>
<polygon fill="black" stroke="black" points="516.5,-666.31 520,-676.31 523.5,-666.31 516.5,-666.31"/>
</g>
<!-- bpanther1 -->
<g id="node18" class="node">
<title>bpanther1</title>
<ellipse fill="none" stroke="purple" stroke-width="5" cx="1039" cy="-480.83" rx="65.79" ry="18"/>
<text text-anchor="middle" x="1039" y="-477.13" font-family="Arial" font-size="14.00">Black Panther</text>
</g>
<!-- bpanther2 -->
<g id="node19" class="node">
<title>bpanther2</title>
<ellipse fill="none" stroke="blue" cx="1110" cy="-373.09" rx="87.86" ry="26.74"/>
<text text-anchor="middle" x="1110" y="-376.89" font-family="Arial" font-size="14.00">Black Panther 2:</text>
<text text-anchor="middle" x="1110" y="-361.89" font-family="Arial" font-size="14.00">Wakanda Forever</text>
</g>
<!-- bpanther2&#45;&gt;bpanther1 -->
<g id="edge29" class="edge">
<title>bpanther2&#45;&gt;bpanther1</title>
<path fill="none" stroke="black" d="M1092.81,-399.69C1082.35,-415.28 1068.95,-435.22 1058.15,-451.32"/>
<polygon fill="black" stroke="black" points="1055.31,-449.26 1052.64,-459.51 1061.13,-453.16 1055.31,-449.26"/>
</g>
<!-- whatif1 -->
<g id="node20" class="node">
<title>whatif1</title>
<polygon fill="none" stroke="blue" points="1004.5,-392.09 929.5,-392.09 929.5,-354.09 1004.5,-354.09 1004.5,-392.09"/>
<text text-anchor="middle" x="967" y="-376.89" font-family="Arial" font-size="14.00">What If..?</text>
<text text-anchor="middle" x="967" y="-361.89" font-family="Arial" font-size="14.00">Season 1</text>
</g>
<!-- whatif1&#45;&gt;bpanther1 -->
<g id="edge31" class="edge">
<title>whatif1&#45;&gt;bpanther1</title>
<path fill="none" stroke="black" d="M979.54,-392.51C990.61,-408.76 1006.91,-432.7 1019.65,-451.41"/>
<polygon fill="black" stroke="black" points="1016.74,-453.36 1025.27,-459.66 1022.53,-449.42 1016.74,-453.36"/>
</g>
<!-- infinitywar -->
<g id="node22" class="node">
<title>infinitywar</title>
<ellipse fill="none" stroke="purple" cx="811" cy="-480.83" rx="73.58" ry="26.74"/>
<text text-anchor="middle" x="811" y="-484.63" font-family="Arial" font-size="14.00">The Avengers:</text>
<text text-anchor="middle" x="811" y="-469.63" font-family="Arial" font-size="14.00">Infinity War</text>
</g>
<!-- whatif1&#45;&gt;infinitywar -->
<g id="edge30" class="edge">
<title>whatif1&#45;&gt;infinitywar</title>
<path fill="none" stroke="black" d="M939.83,-392.51C916.24,-408.49 881.68,-431.92 854.29,-450.49"/>
<polygon fill="black" stroke="black" points="852.5,-447.47 846.19,-455.98 856.43,-453.27 852.5,-447.47"/>
</g>
<!-- whatif2 -->
<g id="node21" class="node">
<title>whatif2</title>
<polygon fill="none" stroke="green" points="1006.5,-284.35 927.5,-284.35 927.5,-246.35 1006.5,-246.35 1006.5,-284.35"/>
<text text-anchor="middle" x="967" y="-269.15" font-family="Arial" font-size="14.00">What If...?</text>
<text text-anchor="middle" x="967" y="-254.15" font-family="Arial" font-size="14.00">Season 2</text>
</g>
<!-- whatif2&#45;&gt;whatif1 -->
<g id="edge32" class="edge">
<title>whatif2&#45;&gt;whatif1</title>
<path fill="none" stroke="black" d="M967,-284.77C967,-300.69 967,-323.99 967,-342.52"/>
<polygon fill="black" stroke="black" points="963.5,-342.37 967,-352.37 970.5,-342.37 963.5,-342.37"/>
</g>
<!-- infinitywar&#45;&gt;civilwar -->
<g id="edge17" class="edge">
<title>infinitywar&#45;&gt;civilwar</title>
<path fill="none" stroke="black" d="M876.01,-493.68C903.16,-498.41 935.05,-503.67 964,-507.7 1181.88,-538.05 1239.88,-520.68 1456,-561.7 1463.45,-563.11 1471.16,-564.81 1478.84,-566.66"/>
<polygon fill="black" stroke="black" points="1477.99,-570.05 1488.54,-569.08 1479.68,-563.26 1477.99,-570.05"/>
</g>
<!-- infinitywar&#45;&gt;docstrange -->
<g id="edge19" class="edge">
<title>infinitywar&#45;&gt;docstrange</title>
<path fill="none" stroke="black" d="M745.83,-493.72C671.35,-507.81 546.05,-533.01 440,-561.7 432.05,-563.85 423.72,-566.33 415.57,-568.88"/>
<polygon fill="black" stroke="black" points="414.53,-565.54 406.07,-571.92 416.66,-572.21 414.53,-565.54"/>
</g>
<!-- infinitywar&#45;&gt;guardians2 -->
<g id="edge20" class="edge">
<title>infinitywar&#45;&gt;guardians2</title>
<path fill="none" stroke="black" d="M827.53,-507.16C838.09,-523.35 851.78,-544.32 862.52,-560.79"/>
<polygon fill="black" stroke="black" points="859.56,-562.65 867.95,-569.11 865.42,-558.82 859.56,-562.65"/>
</g>
<!-- infinitywar&#45;&gt;spidey1 -->
<g id="edge23" class="edge">
<title>infinitywar&#45;&gt;spidey1</title>
<path fill="none" stroke="black" d="M781.38,-505.56C762.44,-520.73 737.69,-540.55 717.27,-556.91"/>
<polygon fill="black" stroke="black" points="715.32,-553.99 709.71,-562.97 719.7,-559.45 715.32,-553.99"/>
</g>
<!-- infinitywar&#45;&gt;thor3 -->
<g id="edge16" class="edge">
<title>infinitywar&#45;&gt;thor3</title>
<path fill="none" stroke="black" d="M759.98,-500.37C706.45,-519.82 622.87,-550.19 569.81,-569.47"/>
<polygon fill="black" stroke="black" points="568.92,-566.07 560.71,-572.78 571.31,-572.65 568.92,-566.07"/>
</g>
<!-- antman2 -->
<g id="node23" class="node">
<title>antman2</title>
<ellipse fill="none" stroke="purple" cx="811" cy="-373.09" rx="100.98" ry="18"/>
<text text-anchor="middle" x="811" y="-369.39" font-family="Arial" font-size="14.00">Ant&#45;Man and the Wasp</text>
</g>
<!-- antman2&#45;&gt;infinitywar -->
<g id="edge33" class="edge">
<title>antman2&#45;&gt;infinitywar</title>
<path fill="none" stroke="black" d="M811,-391.55C811,-405.28 811,-424.9 811,-442.15"/>
<polygon fill="black" stroke="black" points="807.5,-442.11 811,-452.11 814.5,-442.11 807.5,-442.11"/>
</g>
<!-- capmarvel -->
<g id="node24" class="node">
<title>capmarvel</title>
<ellipse fill="none" stroke="purple" cx="463" cy="-373.09" rx="70.39" ry="18"/>
<text text-anchor="middle" x="463" y="-369.39" font-family="Arial" font-size="14.00">Captain Marvel</text>
</g>
<!-- capmarvel&#45;&gt;avengers -->
<g id="edge21" class="edge">
<title>capmarvel&#45;&gt;avengers</title>
<path fill="none" stroke="black" d="M437.88,-390.3C396.1,-418.95 313.77,-483.01 282,-561.7 245.1,-653.09 341.7,-688.61 434,-723.18 548.97,-766.25 910.77,-785.73 1069.77,-792.38"/>
<polygon fill="black" stroke="black" points="1069.21,-795.86 1079.35,-792.77 1069.5,-788.86 1069.21,-795.86"/>
</g>
<!-- endgame -->
<g id="node25" class="node">
<title>endgame</title>
<ellipse fill="none" stroke="purple" cx="823" cy="-265.35" rx="73.58" ry="26.74"/>
<text text-anchor="middle" x="823" y="-269.15" font-family="Arial" font-size="14.00">The Avengers:</text>
<text text-anchor="middle" x="823" y="-254.15" font-family="Arial" font-size="14.00">Endgame</text>
</g>
<!-- endgame&#45;&gt;antman2 -->
<g id="edge34" class="edge">
<title>endgame&#45;&gt;antman2</title>
<path fill="none" stroke="black" d="M820.03,-292.49C818.27,-307.99 816.04,-327.64 814.24,-343.54"/>
<polygon fill="black" stroke="black" points="810.78,-343.01 813.13,-353.34 817.73,-343.8 810.78,-343.01"/>
</g>
<!-- endgame&#45;&gt;capmarvel -->
<g id="edge22" class="edge">
<title>endgame&#45;&gt;capmarvel</title>
<path fill="none" stroke="black" d="M766.75,-282.87C699.13,-302.74 586.33,-335.86 518.88,-355.68"/>
<polygon fill="black" stroke="black" points="518.11,-352.26 509.5,-358.43 520.08,-358.97 518.11,-352.26"/>
</g>
<!-- spidey2 -->
<g id="node26" class="node">
<title>spidey2</title>
<ellipse fill="none" stroke="purple" cx="442" cy="-157.61" rx="79.81" ry="26.74"/>
<text text-anchor="middle" x="442" y="-161.41" font-family="Arial" font-size="14.00">Spider&#45;Man:</text>
<text text-anchor="middle" x="442" y="-146.41" font-family="Arial" font-size="14.00">Far From Home</text>
</g>
<!-- spidey2&#45;&gt;endgame -->
<g id="edge24" class="edge">
<title>spidey2&#45;&gt;endgame</title>
<path fill="none" stroke="black" d="M500.85,-175.86C510.9,-178.76 521.24,-181.73 531,-184.48 607.03,-205.93 694.45,-229.72 753.67,-245.72"/>
<polygon fill="black" stroke="black" points="752.72,-249.09 763.29,-248.32 754.55,-242.33 752.72,-249.09"/>
</g>
<!-- wandavision -->
<g id="node27" class="node">
<title>wandavision</title>
<polygon fill="none" stroke="blue" points="636,-175.61 540,-175.61 540,-139.61 636,-139.61 636,-175.61"/>
<text text-anchor="middle" x="588" y="-153.91" font-family="Arial" font-size="14.00">WandaVision</text>
</g>
<!-- wandavision&#45;&gt;endgame -->
<g id="edge26" class="edge">
<title>wandavision&#45;&gt;endgame</title>
<path fill="none" stroke="black" d="M626.32,-176.03C632.56,-178.86 638.96,-181.75 645,-184.48 686.02,-202.99 732.42,-223.81 767.56,-239.55"/>
<polygon fill="black" stroke="black" points="765.68,-242.54 776.23,-243.43 768.54,-236.15 765.68,-242.54"/>
</g>
<!-- falcon -->
<g id="node28" class="node">
<title>falcon</title>
<polygon fill="none" stroke="blue" points="889.5,-176.61 756.5,-176.61 756.5,-138.61 889.5,-138.61 889.5,-176.61"/>
<text text-anchor="middle" x="823" y="-161.41" font-family="Arial" font-size="14.00">The Falcon and the</text>
<text text-anchor="middle" x="823" y="-146.41" font-family="Arial" font-size="14.00">Winter Soldier</text>
</g>
<!-- falcon&#45;&gt;endgame -->
<g id="edge64" class="edge">
<title>falcon&#45;&gt;endgame</title>
<path fill="none" stroke="black" d="M823,-177.03C823,-190.78 823,-210.03 823,-226.97"/>
<polygon fill="black" stroke="black" points="819.5,-226.71 823,-236.71 826.5,-226.71 819.5,-226.71"/>
</g>
<!-- loki1 -->
<g id="node29" class="node">
<title>loki1</title>
<polygon fill="none" stroke="blue" points="252,-283.35 198,-283.35 198,-247.35 252,-247.35 252,-283.35"/>
<text text-anchor="middle" x="225" y="-261.65" font-family="Arial" font-size="14.00">Loki</text>
</g>
<!-- loki1&#45;&gt;thor2 -->
<g id="edge56" class="edge">
<title>loki1&#45;&gt;thor2</title>
<path fill="none" stroke="black" d="M222.17,-283.77C214.15,-339.5 197.04,-515.65 282,-615.57 319.87,-660.11 383.41,-679.87 435.31,-688.58"/>
<polygon fill="black" stroke="black" points="434.62,-692.02 445.04,-690.1 435.7,-685.1 434.62,-692.02"/>
</g>
<!-- bwidow -->
<g id="node30" class="node">
<title>bwidow</title>
<ellipse fill="none" stroke="blue" cx="1521" cy="-265.35" rx="61.99" ry="18"/>
<text text-anchor="middle" x="1521" y="-261.65" font-family="Arial" font-size="14.00">Black Widow</text>
</g>
<!-- bwidow&#45;&gt;civilwar -->
<g id="edge18" class="edge">
<title>bwidow&#45;&gt;civilwar</title>
<path fill="none" stroke="black" d="M1522.61,-283.62C1527.31,-333.88 1541.04,-480.9 1547.53,-550.38"/>
<polygon fill="black" stroke="black" points="1544.02,-550.49 1548.44,-560.12 1550.99,-549.83 1544.02,-550.49"/>
</g>
<!-- shangchi -->
<g id="node31" class="node">
<title>shangchi</title>
<ellipse fill="none" stroke="blue" cx="1146" cy="-588.57" rx="134.2" ry="26.74"/>
<text text-anchor="middle" x="1146" y="-592.37" font-family="Arial" font-size="14.00">Shang&#45;Chi:</text>
<text text-anchor="middle" x="1146" y="-577.37" font-family="Arial" font-size="14.00">The Legend of the Ten Rings</text>
</g>
<!-- shangchi&#45;&gt;ironman3 -->
<g id="edge40" class="edge">
<title>shangchi&#45;&gt;ironman3</title>
<path fill="none" stroke="black" d="M1146,-615.71C1146,-631.21 1146,-650.86 1146,-666.76"/>
<polygon fill="black" stroke="black" points="1142.5,-666.55 1146,-676.55 1149.5,-666.55 1142.5,-666.55"/>
</g>
<!-- eternals -->
<g id="node32" class="node">
<title>eternals</title>
<ellipse fill="none" stroke="blue" cx="1616" cy="-49.87" rx="60.39" ry="18"/>
<text text-anchor="middle" x="1616" y="-46.17" font-family="Arial" font-size="14.00">The Eternals</text>
</g>
<!-- hawkeye -->
<g id="node33" class="node">
<title>hawkeye</title>
<polygon fill="none" stroke="blue" points="1547,-175.61 1475,-175.61 1475,-139.61 1547,-139.61 1547,-175.61"/>
<text text-anchor="middle" x="1511" y="-153.91" font-family="Arial" font-size="14.00">Hawkeye</text>
</g>
<!-- hawkeye&#45;&gt;endgame -->
<g id="edge57" class="edge">
<title>hawkeye&#45;&gt;endgame</title>
<path fill="none" stroke="black" d="M1474.86,-172.94C1462.68,-177.27 1448.91,-181.62 1436,-184.48 1210.01,-234.54 1145.53,-195.93 918,-238.48 908.82,-240.2 899.23,-242.36 889.83,-244.7"/>
<polygon fill="black" stroke="black" points="889.19,-241.25 880.38,-247.13 890.94,-248.03 889.19,-241.25"/>
</g>
<!-- hawkeye&#45;&gt;bwidow -->
<g id="edge59" class="edge">
<title>hawkeye&#45;&gt;bwidow</title>
<path fill="none" stroke="black" d="M1512.65,-176.07C1514.18,-192.22 1516.48,-216.52 1518.28,-235.54"/>
<polygon fill="black" stroke="black" points="1514.78,-235.73 1519.2,-245.36 1521.75,-235.07 1514.78,-235.73"/>
</g>
<!-- daredevil3 -->
<g id="node62" class="node">
<title>daredevil3</title>
<polygon fill="none" stroke="blue" points="1727,-284.35 1653,-284.35 1653,-246.35 1727,-246.35 1727,-284.35"/>
<text text-anchor="middle" x="1690" y="-269.15" font-family="Arial" font-size="14.00">Daredevil</text>
<text text-anchor="middle" x="1690" y="-254.15" font-family="Arial" font-size="14.00">Season 3</text>
</g>
<!-- hawkeye&#45;&gt;daredevil3 -->
<g id="edge58" class="edge">
<title>hawkeye&#45;&gt;daredevil3</title>
<path fill="none" stroke="black" d="M1540.56,-176.07C1570.16,-193.56 1615.97,-220.62 1649.06,-240.17"/>
<polygon fill="black" stroke="black" points="1647.2,-243.13 1657.59,-245.21 1650.76,-237.11 1647.2,-243.13"/>
</g>
<!-- spidey3 -->
<g id="node34" class="node">
<title>spidey3</title>
<ellipse fill="none" stroke="blue" cx="204" cy="-49.87" rx="74.49" ry="26.74"/>
<text text-anchor="middle" x="204" y="-53.67" font-family="Arial" font-size="14.00">Spider&#45;Man:</text>
<text text-anchor="middle" x="204" y="-38.67" font-family="Arial" font-size="14.00">No Way Home</text>
</g>
<!-- spidey3&#45;&gt;spidey2 -->
<g id="edge25" class="edge">
<title>spidey3&#45;&gt;spidey2</title>
<path fill="none" stroke="black" d="M257.15,-69.07C285.92,-79.43 321.85,-93.19 353,-107.61 366.52,-113.87 380.81,-121.33 393.88,-128.52"/>
<polygon fill="black" stroke="black" points="391.85,-131.4 402.29,-133.21 395.26,-125.28 391.85,-131.4"/>
</g>
<!-- moonknight -->
<g id="node35" class="node">
<title>moonknight</title>
<polygon fill="none" stroke="blue" points="1787.5,-67.87 1694.5,-67.87 1694.5,-31.87 1787.5,-31.87 1787.5,-67.87"/>
<text text-anchor="middle" x="1741" y="-46.17" font-family="Arial" font-size="14.00">Moon Knight</text>
</g>
<!-- docstrange2 -->
<g id="node36" class="node">
<title>docstrange2</title>
<ellipse fill="none" stroke="blue" cx="404" cy="-49.87" rx="108.38" ry="26.74"/>
<text text-anchor="middle" x="404" y="-53.67" font-family="Arial" font-size="14.00">Doctor Strange 2:</text>
<text text-anchor="middle" x="404" y="-38.67" font-family="Arial" font-size="14.00">Multiverse of Madness</text>
</g>
<!-- docstrange2&#45;&gt;wandavision -->
<g id="edge28" class="edge">
<title>docstrange2&#45;&gt;wandavision</title>
<path fill="none" stroke="black" d="M462.4,-72.77C484.61,-82.16 509.69,-94.1 531,-107.61 541.86,-114.49 552.8,-123.34 562.15,-131.61"/>
<polygon fill="black" stroke="black" points="559.71,-134.12 569.46,-138.27 564.43,-128.95 559.71,-134.12"/>
</g>
<!-- msmarvel -->
<g id="node37" class="node">
<title>msmarvel</title>
<polygon fill="none" stroke="blue" points="738,-175.61 654,-175.61 654,-139.61 738,-139.61 738,-175.61"/>
<text text-anchor="middle" x="696" y="-153.91" font-family="Arial" font-size="14.00">Ms. Marvel</text>
</g>
<!-- thor4 -->
<g id="node38" class="node">
<title>thor4</title>
<ellipse fill="none" stroke="blue" cx="1012" cy="-157.61" rx="104.78" ry="18"/>
<text text-anchor="middle" x="1012" y="-153.91" font-family="Arial" font-size="14.00">Thor: Love and Thunder</text>
</g>
<!-- thor4&#45;&gt;endgame -->
<g id="edge65" class="edge">
<title>thor4&#45;&gt;endgame</title>
<path fill="none" stroke="black" d="M982.47,-175.13C952.99,-191.63 907.15,-217.27 872.18,-236.84"/>
<polygon fill="black" stroke="black" points="870.5,-233.76 863.48,-241.7 873.92,-239.87 870.5,-233.76"/>
</g>
<!-- shehulk -->
<g id="node39" class="node">
<title>shehulk</title>
<polygon fill="none" stroke="blue" points="1637,-175.61 1565,-175.61 1565,-139.61 1637,-139.61 1637,-175.61"/>
<text text-anchor="middle" x="1601" y="-153.91" font-family="Arial" font-size="14.00">She&#45;Hulk</text>
</g>
<!-- shehulk&#45;&gt;endgame -->
<g id="edge60" class="edge">
<title>shehulk&#45;&gt;endgame</title>
<path fill="none" stroke="black" d="M1575.24,-175.96C1569.16,-179.33 1562.54,-182.44 1556,-184.48 1284.4,-269.42 1198.22,-188.89 918,-238.48 908.74,-240.12 899.08,-242.25 889.62,-244.58"/>
<polygon fill="black" stroke="black" points="888.91,-241.14 880.09,-247.02 890.65,-247.93 888.91,-241.14"/>
</g>
<!-- shehulk&#45;&gt;daredevil3 -->
<g id="edge61" class="edge">
<title>shehulk&#45;&gt;daredevil3</title>
<path fill="none" stroke="black" d="M1615.7,-176.07C1629.76,-192.78 1651.18,-218.23 1667.41,-237.51"/>
<polygon fill="black" stroke="black" points="1664.59,-239.6 1673.71,-245 1669.95,-235.09 1664.59,-239.6"/>
</g>
<!-- werewolf -->
<g id="node40" class="node">
<title>werewolf</title>
<polygon fill="none" stroke="blue" points="1932,-67.87 1806,-67.87 1806,-31.87 1932,-31.87 1932,-67.87"/>
<text text-anchor="middle" x="1869" y="-46.17" font-family="Arial" font-size="14.00">Werewolf by Night</text>
</g>
<!-- guardiansxmas -->
<g id="node41" class="node">
<title>guardiansxmas</title>
<polygon fill="none" stroke="blue" points="1427,-176.61 1263,-176.61 1263,-138.61 1427,-138.61 1427,-176.61"/>
<text text-anchor="middle" x="1345" y="-161.41" font-family="Arial" font-size="14.00">Guardians of the Galaxy</text>
<text text-anchor="middle" x="1345" y="-146.41" font-family="Arial" font-size="14.00">Christmas Special</text>
</g>
<!-- guardiansxmas&#45;&gt;endgame -->
<g id="edge66" class="edge">
<title>guardiansxmas&#45;&gt;endgame</title>
<path fill="none" stroke="black" d="M1284.06,-177C1274.07,-179.71 1263.78,-182.31 1254,-184.48 1106.34,-217.22 1065.84,-206.56 918,-238.48 909.09,-240.4 899.77,-242.65 890.6,-245"/>
<polygon fill="black" stroke="black" points="889.77,-241.59 880.99,-247.51 891.55,-248.37 889.77,-241.59"/>
</g>
<!-- antman3 -->
<g id="node42" class="node">
<title>antman3</title>
<ellipse fill="none" stroke="green" cx="232" cy="-157.61" rx="112.36" ry="26.74"/>
<text text-anchor="middle" x="232" y="-161.41" font-family="Arial" font-size="14.00">Ant&#45;Man and the Wasp:</text>
<text text-anchor="middle" x="232" y="-146.41" font-family="Arial" font-size="14.00">Quantumania</text>
</g>
<!-- antman3&#45;&gt;endgame -->
<g id="edge35" class="edge">
<title>antman3&#45;&gt;endgame</title>
<path fill="none" stroke="black" d="M313.26,-176.48C326.52,-179.25 340.13,-182.01 353,-184.48 490.33,-210.82 651.11,-237.18 744.57,-252.06"/>
<polygon fill="black" stroke="black" points="743.98,-255.51 754.41,-253.63 745.08,-248.6 743.98,-255.51"/>
</g>
<!-- antman3&#45;&gt;loki1 -->
<g id="edge27" class="edge">
<title>antman3&#45;&gt;loki1</title>
<path fill="none" stroke="black" d="M230.27,-184.75C229.24,-200.25 227.94,-219.9 226.89,-235.8"/>
<polygon fill="black" stroke="black" points="223.41,-235.38 226.24,-245.59 230.39,-235.84 223.41,-235.38"/>
</g>
<!-- guardians3 -->
<g id="node43" class="node">
<title>guardians3</title>
<ellipse fill="none" stroke="green" cx="1345" cy="-49.87" rx="113.98" ry="18"/>
<text text-anchor="middle" x="1345" y="-46.17" font-family="Arial" font-size="14.00">Guardians of the Galaxy 3</text>
</g>
<!-- guardians3&#45;&gt;guardiansxmas -->
<g id="edge67" class="edge">
<title>guardians3&#45;&gt;guardiansxmas</title>
<path fill="none" stroke="black" d="M1345,-68.33C1345,-84.29 1345,-108.2 1345,-127.12"/>
<polygon fill="black" stroke="black" points="1341.5,-126.9 1345,-136.9 1348.5,-126.9 1341.5,-126.9"/>
</g>
<!-- secretinvasion -->
<g id="node44" class="node">
<title>secretinvasion</title>
<polygon fill="none" stroke="green" points="1245,-175.61 1135,-175.61 1135,-139.61 1245,-139.61 1245,-175.61"/>
<text text-anchor="middle" x="1190" y="-153.91" font-family="Arial" font-size="14.00">Secret Invasion</text>
</g>
<!-- secretinvasion&#45;&gt;endgame -->
<g id="edge62" class="edge">
<title>secretinvasion&#45;&gt;endgame</title>
<path fill="none" stroke="black" d="M1148.98,-176.11C1141.4,-179.08 1133.51,-182 1126,-184.48 1035.31,-214.44 1010.3,-213.93 918,-238.48 909.58,-240.72 900.74,-243.09 892,-245.46"/>
<polygon fill="black" stroke="black" points="891.19,-242.05 882.46,-248.04 893.03,-248.81 891.19,-242.05"/>
</g>
<!-- loki2 -->
<g id="node45" class="node">
<title>loki2</title>
<polygon fill="none" stroke="green" points="102,-175.61 0,-175.61 0,-139.61 102,-139.61 102,-175.61"/>
<text text-anchor="middle" x="51" y="-153.91" font-family="Arial" font-size="14.00">Loki Season 2</text>
</g>
<!-- loki2&#45;&gt;loki1 -->
<g id="edge55" class="edge">
<title>loki2&#45;&gt;loki1</title>
<path fill="none" stroke="black" d="M79.73,-176.07C109.39,-194.09 155.76,-222.27 188.1,-241.93"/>
<polygon fill="black" stroke="black" points="186,-244.75 196.37,-246.95 189.64,-238.77 186,-244.75"/>
</g>
<!-- themarvels -->
<g id="node46" class="node">
<title>themarvels</title>
<ellipse fill="none" stroke="green" cx="724" cy="-49.87" rx="59.59" ry="18"/>
<text text-anchor="middle" x="724" y="-46.17" font-family="Arial" font-size="14.00">The Marvels</text>
</g>
<!-- themarvels&#45;&gt;wandavision -->
<g id="edge36" class="edge">
<title>themarvels&#45;&gt;wandavision</title>
<path fill="none" stroke="black" d="M700.79,-66.74C684.84,-77.84 663.32,-93.2 645,-107.61 635.38,-115.17 625.17,-123.77 616.08,-131.63"/>
<polygon fill="black" stroke="black" points="613.8,-128.96 608.57,-138.18 618.41,-134.24 613.8,-128.96"/>
</g>
<!-- themarvels&#45;&gt;msmarvel -->
<g id="edge37" class="edge">
<title>themarvels&#45;&gt;msmarvel</title>
<path fill="none" stroke="black" d="M719.5,-67.86C715.18,-84.18 708.57,-109.14 703.46,-128.43"/>
<polygon fill="black" stroke="black" points="700.14,-127.29 700.97,-137.85 706.91,-129.08 700.14,-127.29"/>
</g>
<!-- echo -->
<g id="node47" class="node">
<title>echo</title>
<polygon fill="none" stroke="green" points="1538,-67.87 1484,-67.87 1484,-31.87 1538,-31.87 1538,-67.87"/>
<text text-anchor="middle" x="1511" y="-46.17" font-family="Arial" font-size="14.00">Echo</text>
</g>
<!-- echo&#45;&gt;hawkeye -->
<g id="edge68" class="edge">
<title>echo&#45;&gt;hawkeye</title>
<path fill="none" stroke="black" d="M1511,-68.33C1511,-84.48 1511,-108.78 1511,-127.8"/>
<polygon fill="black" stroke="black" points="1507.5,-127.61 1511,-137.61 1514.5,-127.61 1507.5,-127.61"/>
</g>
<!-- darkhold -->
<g id="node48" class="node">
<title>darkhold</title>
<polygon fill="none" stroke="green" points="646,-68.87 530,-68.87 530,-30.87 646,-30.87 646,-68.87"/>
<text text-anchor="middle" x="588" y="-53.67" font-family="Arial" font-size="14.00">Agatha:</text>
<text text-anchor="middle" x="588" y="-38.67" font-family="Arial" font-size="14.00">Darkhold Diaries</text>
</g>
<!-- darkhold&#45;&gt;wandavision -->
<g id="edge63" class="edge">
<title>darkhold&#45;&gt;wandavision</title>
<path fill="none" stroke="black" d="M588,-69.29C588,-85.5 588,-109.37 588,-128.05"/>
<polygon fill="black" stroke="black" points="584.5,-127.94 588,-137.94 591.5,-127.94 584.5,-127.94"/>
</g>
<!-- agentshield -->
<g id="node49" class="node">
<title>agentshield</title>
<polygon fill="none" stroke="red" points="1447.5,-606.57 1298.5,-606.57 1298.5,-570.57 1447.5,-570.57 1447.5,-606.57"/>
<text text-anchor="middle" x="1373" y="-584.87" font-family="Arial" font-size="14.00">Agents of S.H.I.E.L.D.</text>
</g>
<!-- agentshield&#45;&gt;ironman3 -->
<g id="edge41" class="edge">
<title>agentshield&#45;&gt;ironman3</title>
<path fill="none" stroke="black" d="M1335.52,-607.03C1294.42,-626.17 1228.72,-656.78 1186.47,-676.46"/>
<polygon fill="black" stroke="black" points="1185.23,-673.18 1177.64,-680.57 1188.18,-679.52 1185.23,-673.18"/>
</g>
<!-- agentshield&#45;&gt;capamerica2 -->
<g id="edge42" class="edge">
<title>agentshield&#45;&gt;capamerica2</title>
<path fill="none" stroke="black" d="M1363.92,-607.03C1356.52,-621.25 1345.84,-641.8 1336.63,-659.49"/>
<polygon fill="black" stroke="black" points="1333.63,-657.68 1332.12,-668.16 1339.84,-660.91 1333.63,-657.68"/>
</g>
<!-- agentcarter1 -->
<g id="node50" class="node">
<title>agentcarter1</title>
<polygon fill="none" stroke="red" points="1736.5,-815.18 1643.5,-815.18 1643.5,-777.18 1736.5,-777.18 1736.5,-815.18"/>
<text text-anchor="middle" x="1690" y="-799.98" font-family="Arial" font-size="14.00">Agent Carter</text>
<text text-anchor="middle" x="1690" y="-784.98" font-family="Arial" font-size="14.00">Season 1</text>
</g>
<!-- agentcarter1&#45;&gt;capamerica1 -->
<g id="edge38" class="edge">
<title>agentcarter1&#45;&gt;capamerica1</title>
<path fill="none" stroke="black" d="M1677.77,-815.59C1669.81,-827.58 1659.14,-843.64 1649.48,-858.19"/>
<polygon fill="black" stroke="black" points="1646.77,-855.94 1644.15,-866.21 1652.6,-859.82 1646.77,-855.94"/>
</g>
<!-- agentcarter2 -->
<g id="node51" class="node">
<title>agentcarter2</title>
<polygon fill="none" stroke="red" points="1801.5,-715.31 1708.5,-715.31 1708.5,-677.31 1801.5,-677.31 1801.5,-715.31"/>
<text text-anchor="middle" x="1755" y="-700.11" font-family="Arial" font-size="14.00">Agent Carter</text>
<text text-anchor="middle" x="1755" y="-685.11" font-family="Arial" font-size="14.00">Season 2</text>
</g>
<!-- agentcarter2&#45;&gt;agentcarter1 -->
<g id="edge39" class="edge">
<title>agentcarter2&#45;&gt;agentcarter1</title>
<path fill="none" stroke="black" d="M1742.77,-715.72C1733.06,-730.35 1719.32,-751.03 1708.3,-767.63"/>
<polygon fill="black" stroke="black" points="1705.63,-765.33 1703.01,-775.59 1711.46,-769.2 1705.63,-765.33"/>
</g>
<!-- daredevil1 -->
<g id="node52" class="node">
<title>daredevil1</title>
<polygon fill="none" stroke="blue" points="1902,-607.57 1828,-607.57 1828,-569.57 1902,-569.57 1902,-607.57"/>
<text text-anchor="middle" x="1865" y="-592.37" font-family="Arial" font-size="14.00">Daredevil</text>
<text text-anchor="middle" x="1865" y="-577.37" font-family="Arial" font-size="14.00">Season 1</text>
</g>
<!-- jjones1 -->
<g id="node53" class="node">
<title>jjones1</title>
<polygon fill="none" stroke="blue" points="1809.5,-499.83 1708.5,-499.83 1708.5,-461.83 1809.5,-461.83 1809.5,-499.83"/>
<text text-anchor="middle" x="1759" y="-484.63" font-family="Arial" font-size="14.00">Jessica Jones</text>
<text text-anchor="middle" x="1759" y="-469.63" font-family="Arial" font-size="14.00">Season 1</text>
</g>
<!-- daredevil2 -->
<g id="node54" class="node">
<title>daredevil2</title>
<polygon fill="none" stroke="blue" points="1902,-499.83 1828,-499.83 1828,-461.83 1902,-461.83 1902,-499.83"/>
<text text-anchor="middle" x="1865" y="-484.63" font-family="Arial" font-size="14.00">Daredevil</text>
<text text-anchor="middle" x="1865" y="-469.63" font-family="Arial" font-size="14.00">Season 2</text>
</g>
<!-- daredevil2&#45;&gt;daredevil1 -->
<g id="edge44" class="edge">
<title>daredevil2&#45;&gt;daredevil1</title>
<path fill="none" stroke="black" d="M1865,-500.25C1865,-516.17 1865,-539.47 1865,-558"/>
<polygon fill="black" stroke="black" points="1861.5,-557.85 1865,-567.85 1868.5,-557.85 1861.5,-557.85"/>
</g>
<!-- lukecage1 -->
<g id="node55" class="node">
<title>lukecage1</title>
<polygon fill="none" stroke="blue" points="2002,-499.83 1920,-499.83 1920,-461.83 2002,-461.83 2002,-499.83"/>
<text text-anchor="middle" x="1961" y="-484.63" font-family="Arial" font-size="14.00">Luke Cage</text>
<text text-anchor="middle" x="1961" y="-469.63" font-family="Arial" font-size="14.00">Season 1</text>
</g>
<!-- ironfist1 -->
<g id="node56" class="node">
<title>ironfist1</title>
<polygon fill="none" stroke="blue" points="2094,-499.83 2020,-499.83 2020,-461.83 2094,-461.83 2094,-499.83"/>
<text text-anchor="middle" x="2057" y="-484.63" font-family="Arial" font-size="14.00">Iron Fist</text>
<text text-anchor="middle" x="2057" y="-469.63" font-family="Arial" font-size="14.00">Season 1</text>
</g>
<!-- defenders -->
<g id="node57" class="node">
<title>defenders</title>
<polygon fill="none" stroke="blue" points="1966,-391.09 1860,-391.09 1860,-355.09 1966,-355.09 1966,-391.09"/>
<text text-anchor="middle" x="1913" y="-369.39" font-family="Arial" font-size="14.00">The Defenders</text>
</g>
<!-- defenders&#45;&gt;jjones1 -->
<g id="edge45" class="edge">
<title>defenders&#45;&gt;jjones1</title>
<path fill="none" stroke="black" d="M1887.57,-391.55C1862.32,-408.89 1823.37,-435.63 1794.96,-455.14"/>
<polygon fill="black" stroke="black" points="1793.27,-452.05 1787.01,-460.6 1797.23,-457.82 1793.27,-452.05"/>
</g>
<!-- defenders&#45;&gt;daredevil2 -->
<g id="edge43" class="edge">
<title>defenders&#45;&gt;daredevil2</title>
<path fill="none" stroke="black" d="M1905.07,-391.55C1897.69,-407.81 1886.56,-432.33 1877.9,-451.41"/>
<polygon fill="black" stroke="black" points="1874.83,-449.7 1873.89,-460.26 1881.21,-452.6 1874.83,-449.7"/>
</g>
<!-- defenders&#45;&gt;lukecage1 -->
<g id="edge46" class="edge">
<title>defenders&#45;&gt;lukecage1</title>
<path fill="none" stroke="black" d="M1920.93,-391.55C1928.31,-407.81 1939.44,-432.33 1948.1,-451.41"/>
<polygon fill="black" stroke="black" points="1944.79,-452.6 1952.11,-460.26 1951.17,-449.7 1944.79,-452.6"/>
</g>
<!-- defenders&#45;&gt;ironfist1 -->
<g id="edge47" class="edge">
<title>defenders&#45;&gt;ironfist1</title>
<path fill="none" stroke="black" d="M1936.78,-391.55C1960.36,-408.87 1996.71,-435.56 2023.27,-455.06"/>
<polygon fill="black" stroke="black" points="2020.87,-457.64 2031,-460.74 2025.01,-452 2020.87,-457.64"/>
</g>
<!-- punisher1 -->
<g id="node58" class="node">
<title>punisher1</title>
<polygon fill="none" stroke="blue" points="1961.5,-284.35 1864.5,-284.35 1864.5,-246.35 1961.5,-246.35 1961.5,-284.35"/>
<text text-anchor="middle" x="1913" y="-269.15" font-family="Arial" font-size="14.00">The Punisher</text>
<text text-anchor="middle" x="1913" y="-254.15" font-family="Arial" font-size="14.00">Season 1</text>
</g>
<!-- punisher1&#45;&gt;defenders -->
<g id="edge52" class="edge">
<title>punisher1&#45;&gt;defenders</title>
<path fill="none" stroke="black" d="M1913,-284.77C1913,-300.98 1913,-324.85 1913,-343.53"/>
<polygon fill="black" stroke="black" points="1909.5,-343.42 1913,-353.42 1916.5,-343.42 1909.5,-343.42"/>
</g>
<!-- jjones2 -->
<g id="node59" class="node">
<title>jjones2</title>
<polygon fill="none" stroke="blue" points="1846.5,-284.35 1745.5,-284.35 1745.5,-246.35 1846.5,-246.35 1846.5,-284.35"/>
<text text-anchor="middle" x="1796" y="-269.15" font-family="Arial" font-size="14.00">Jessica Jones</text>
<text text-anchor="middle" x="1796" y="-254.15" font-family="Arial" font-size="14.00">Season 2</text>
</g>
<!-- jjones2&#45;&gt;defenders -->
<g id="edge49" class="edge">
<title>jjones2&#45;&gt;defenders</title>
<path fill="none" stroke="black" d="M1816.38,-284.77C1835.6,-302.14 1864.54,-328.3 1885.74,-347.45"/>
<polygon fill="black" stroke="black" points="1883.13,-349.81 1892.89,-353.92 1887.82,-344.62 1883.13,-349.81"/>
</g>
<!-- lukecage2 -->
<g id="node60" class="node">
<title>lukecage2</title>
<polygon fill="none" stroke="blue" points="2154,-284.35 2072,-284.35 2072,-246.35 2154,-246.35 2154,-284.35"/>
<text text-anchor="middle" x="2113" y="-269.15" font-family="Arial" font-size="14.00">Luke Cage</text>
<text text-anchor="middle" x="2113" y="-254.15" font-family="Arial" font-size="14.00">Season 2</text>
</g>
<!-- lukecage2&#45;&gt;defenders -->
<g id="edge50" class="edge">
<title>lukecage2&#45;&gt;defenders</title>
<path fill="none" stroke="black" d="M2078.16,-284.77C2044.1,-302.78 1992.16,-330.24 1955.64,-349.54"/>
<polygon fill="black" stroke="black" points="1954.32,-346.28 1947.12,-354.05 1957.6,-352.47 1954.32,-346.28"/>
</g>
<!-- ironfist2 -->
<g id="node61" class="node">
<title>ironfist2</title>
<polygon fill="none" stroke="blue" points="2054,-284.35 1980,-284.35 1980,-246.35 2054,-246.35 2054,-284.35"/>
<text text-anchor="middle" x="2017" y="-269.15" font-family="Arial" font-size="14.00">Iron Fist</text>
<text text-anchor="middle" x="2017" y="-254.15" font-family="Arial" font-size="14.00">Season 2</text>
</g>
<!-- ironfist2&#45;&gt;defenders -->
<g id="edge51" class="edge">
<title>ironfist2&#45;&gt;defenders</title>
<path fill="none" stroke="black" d="M1998.88,-284.77C1981.95,-301.98 1956.53,-327.83 1937.74,-346.94"/>
<polygon fill="black" stroke="black" points="1935.45,-344.27 1930.94,-353.85 1940.44,-349.18 1935.45,-344.27"/>
</g>
<!-- daredevil3&#45;&gt;defenders -->
<g id="edge48" class="edge">
<title>daredevil3&#45;&gt;defenders</title>
<path fill="none" stroke="black" d="M1722.7,-284.77C1727.46,-287.33 1732.34,-289.88 1737,-292.22 1778.64,-313.09 1826.86,-334.81 1862.29,-350.32"/>
<polygon fill="black" stroke="black" points="1860.44,-353.33 1871,-354.12 1863.24,-346.91 1860.44,-353.33"/>
</g>
<!-- punisher2 -->
<g id="node63" class="node">
<title>punisher2</title>
<polygon fill="none" stroke="blue" points="1961.5,-176.61 1864.5,-176.61 1864.5,-138.61 1961.5,-138.61 1961.5,-176.61"/>
<text text-anchor="middle" x="1913" y="-161.41" font-family="Arial" font-size="14.00">The Punisher</text>
<text text-anchor="middle" x="1913" y="-146.41" font-family="Arial" font-size="14.00">Season 2</text>
</g>
<!-- punisher2&#45;&gt;punisher1 -->
<g id="edge53" class="edge">
<title>punisher2&#45;&gt;punisher1</title>
<path fill="none" stroke="black" d="M1913,-177.03C1913,-192.95 1913,-216.25 1913,-234.78"/>
<polygon fill="black" stroke="black" points="1909.5,-234.63 1913,-244.63 1916.5,-234.63 1909.5,-234.63"/>
</g>
<!-- jjones3 -->
<g id="node64" class="node">
<title>jjones3</title>
<polygon fill="none" stroke="blue" points="1846.5,-176.61 1745.5,-176.61 1745.5,-138.61 1846.5,-138.61 1846.5,-176.61"/>
<text text-anchor="middle" x="1796" y="-161.41" font-family="Arial" font-size="14.00">Jessica Jones</text>
<text text-anchor="middle" x="1796" y="-146.41" font-family="Arial" font-size="14.00">Season 3</text>
</g>
<!-- jjones3&#45;&gt;jjones2 -->
<g id="edge54" class="edge">
<title>jjones3&#45;&gt;jjones2</title>
<path fill="none" stroke="black" d="M1796,-177.03C1796,-192.95 1796,-216.25 1796,-234.78"/>
<polygon fill="black" stroke="black" points="1792.5,-234.63 1796,-244.63 1799.5,-234.63 1792.5,-234.63"/>
</g>
</g>
</svg>
